<svg width="666" height="44" viewBox="0 0 666 44" fill="none" xmlns="http://www.w3.org/2000/svg">
<path d="M625.975 15.0977H666V0.529552H532.416V15.0977H572.441L585.95 43.6738H611.966L625.975 15.0977Z" fill="#1A374D"/>
<path d="M625.975 15.0977H666V0.529552H532.416V15.0977H572.441L585.95 43.6738H611.966L625.975 15.0977Z" fill="#1A374D"/>
<path d="M625.975 15.0977H666V0.529552H532.416V15.0977H572.441L585.95 43.6738H611.966L625.975 15.0977Z" fill="#1A374D"/>
<path d="M625.975 15.0977H666V0.529552H532.416V15.0977H572.441L585.95 43.6738H611.966L625.975 15.0977Z" fill="#1A374D"/>
<path d="M492.892 15.0977H532.917V0.529552H399.333V15.0977H439.358L452.867 43.6738H478.883L492.892 15.0977Z" fill="#1A374D"/>
<path d="M492.892 15.0977H532.917V0.529552H399.333V15.0977H439.358L452.867 43.6738H478.883L492.892 15.0977Z" fill="#1A374D"/>
<path d="M492.892 15.0977H532.917V0.529552H399.333V15.0977H439.358L452.867 43.6738H478.883L492.892 15.0977Z" fill="#1A374D"/>
<path d="M492.892 15.0977H532.917V0.529552H399.333V15.0977H439.358L452.867 43.6738H478.883L492.892 15.0977Z" fill="#1A374D"/>
<path d="M359.808 15.0977H399.833V0.529552H266.25V15.0977H306.275L319.783 43.6738H345.8L359.808 15.0977Z" fill="#1A374D"/>
<path d="M359.808 15.0977H399.833V0.529552H266.25V15.0977H306.275L319.783 43.6738H345.8L359.808 15.0977Z" fill="#1A374D"/>
<path d="M359.808 15.0977H399.833V0.529552H266.25V15.0977H306.275L319.783 43.6738H345.8L359.808 15.0977Z" fill="#1A374D"/>
<path d="M359.808 15.0977H399.833V0.529552H266.25V15.0977H306.275L319.783 43.6738H345.8L359.808 15.0977Z" fill="#1A374D"/>
<path d="M226.725 15.0977H266.75V0.529552H133.167V15.0977H173.192L186.7 43.6738H212.716L226.725 15.0977Z" fill="#1A374D"/>
<path d="M226.725 15.0977H266.75V0.529552H133.167V15.0977H173.192L186.7 43.6738H212.716L226.725 15.0977Z" fill="#1A374D"/>
<path d="M226.725 15.0977H266.75V0.529552H133.167V15.0977H173.192L186.7 43.6738H212.716L226.725 15.0977Z" fill="#1A374D"/>
<path d="M226.725 15.0977H266.75V0.529552H133.167V15.0977H173.192L186.7 43.6738H212.716L226.725 15.0977Z" fill="#1A374D"/>
<path d="M93.6418 15.0977H133.667V0.529552H0.0832825V15.0977H40.1083L53.6168 43.6738H79.6331L93.6418 15.0977Z" fill="#1A374D"/>
<path d="M93.6418 15.0977H133.667V0.529552H0.0832825V15.0977H40.1083L53.6168 43.6738H79.6331L93.6418 15.0977Z" fill="#1A374D"/>
<path d="M93.6418 15.0977H133.667V0.529552H0.0832825V15.0977H40.1083L53.6168 43.6738H79.6331L93.6418 15.0977Z" fill="#1A374D"/>
<path d="M93.6418 15.0977H133.667V0.529552H0.0832825V15.0977H40.1083L53.6168 43.6738H79.6331L93.6418 15.0977Z" fill="#1A374D"/>
</svg>
