<svg width="666" height="44" viewBox="0 0 666 44" fill="none" xmlns="http://www.w3.org/2000/svg">
<path d="M40.025 28.5756L-4.9964e-06 28.5756L-7.54358e-06 43.1438L133.584 43.1438L133.584 28.5756L93.5585 28.5756L80.0501 -0.000474285L54.0338 -0.000478834L40.025 28.5756Z" fill="#1A374D"/>
<path d="M40.025 28.5756L-4.9964e-06 28.5756L-7.54358e-06 43.1438L133.584 43.1438L133.584 28.5756L93.5585 28.5756L80.0501 -0.000474285L54.0338 -0.000478834L40.025 28.5756Z" fill="#1A374D"/>
<path d="M40.025 28.5756L-4.9964e-06 28.5756L-7.54358e-06 43.1438L133.584 43.1438L133.584 28.5756L93.5585 28.5756L80.0501 -0.000474285L54.0338 -0.000478834L40.025 28.5756Z" fill="#1A374D"/>
<path d="M40.025 28.5756L-4.9964e-06 28.5756L-7.54358e-06 43.1438L133.584 43.1438L133.584 28.5756L93.5585 28.5756L80.0501 -0.000474285L54.0338 -0.000478834L40.025 28.5756Z" fill="#1A374D"/>
<path d="M173.108 28.5756L133.083 28.5756L133.083 43.1438L266.667 43.1438L266.667 28.5756L226.642 28.5756L213.133 -0.000474285L187.117 -0.000478834L173.108 28.5756Z" fill="#1A374D"/>
<path d="M173.108 28.5756L133.083 28.5756L133.083 43.1438L266.667 43.1438L266.667 28.5756L226.642 28.5756L213.133 -0.000474285L187.117 -0.000478834L173.108 28.5756Z" fill="#1A374D"/>
<path d="M173.108 28.5756L133.083 28.5756L133.083 43.1438L266.667 43.1438L266.667 28.5756L226.642 28.5756L213.133 -0.000474285L187.117 -0.000478834L173.108 28.5756Z" fill="#1A374D"/>
<path d="M173.108 28.5756L133.083 28.5756L133.083 43.1438L266.667 43.1438L266.667 28.5756L226.642 28.5756L213.133 -0.000474285L187.117 -0.000478834L173.108 28.5756Z" fill="#1A374D"/>
<path d="M306.192 28.5756L266.166 28.5756L266.166 43.1438L399.75 43.1438L399.75 28.5756L359.725 28.5756L346.217 -0.000474285L320.2 -0.000478834L306.192 28.5756Z" fill="#1A374D"/>
<path d="M306.192 28.5756L266.166 28.5756L266.166 43.1438L399.75 43.1438L399.75 28.5756L359.725 28.5756L346.217 -0.000474285L320.2 -0.000478834L306.192 28.5756Z" fill="#1A374D"/>
<path d="M306.192 28.5756L266.166 28.5756L266.166 43.1438L399.75 43.1438L399.75 28.5756L359.725 28.5756L346.217 -0.000474285L320.2 -0.000478834L306.192 28.5756Z" fill="#1A374D"/>
<path d="M306.192 28.5756L266.166 28.5756L266.166 43.1438L399.75 43.1438L399.75 28.5756L359.725 28.5756L346.217 -0.000474285L320.2 -0.000478834L306.192 28.5756Z" fill="#1A374D"/>
<path d="M439.275 28.5756L399.25 28.5756L399.25 43.1438L532.833 43.1438L532.833 28.5756L492.808 28.5756L479.3 -0.000474285L453.284 -0.000478834L439.275 28.5756Z" fill="#1A374D"/>
<path d="M439.275 28.5756L399.25 28.5756L399.25 43.1438L532.833 43.1438L532.833 28.5756L492.808 28.5756L479.3 -0.000474285L453.284 -0.000478834L439.275 28.5756Z" fill="#1A374D"/>
<path d="M439.275 28.5756L399.25 28.5756L399.25 43.1438L532.833 43.1438L532.833 28.5756L492.808 28.5756L479.3 -0.000474285L453.284 -0.000478834L439.275 28.5756Z" fill="#1A374D"/>
<path d="M439.275 28.5756L399.25 28.5756L399.25 43.1438L532.833 43.1438L532.833 28.5756L492.808 28.5756L479.3 -0.000474285L453.284 -0.000478834L439.275 28.5756Z" fill="#1A374D"/>
<path d="M572.358 28.5756L532.333 28.5756L532.333 43.1438L665.917 43.1438L665.917 28.5756L625.892 28.5756L612.383 -0.000474285L586.367 -0.000478834L572.358 28.5756Z" fill="#1A374D"/>
<path d="M572.358 28.5756L532.333 28.5756L532.333 43.1438L665.917 43.1438L665.917 28.5756L625.892 28.5756L612.383 -0.000474285L586.367 -0.000478834L572.358 28.5756Z" fill="#1A374D"/>
<path d="M572.358 28.5756L532.333 28.5756L532.333 43.1438L665.917 43.1438L665.917 28.5756L625.892 28.5756L612.383 -0.000474285L586.367 -0.000478834L572.358 28.5756Z" fill="#1A374D"/>
<path d="M572.358 28.5756L532.333 28.5756L532.333 43.1438L665.917 43.1438L665.917 28.5756L625.892 28.5756L612.383 -0.000474285L586.367 -0.000478834L572.358 28.5756Z" fill="#1A374D"/>
</svg>
