<svg width="872" height="663" viewBox="0 0 872 663" fill="none" xmlns="http://www.w3.org/2000/svg">
<path d="M167.287 356.877L197.965 337.94L111.855 285.691L142.533 266.754C183.344 258.787 243.456 250.014 322.869 240.435L373.96 271.435L261.273 340.993L283.821 354.674L254.933 372.506L232.386 358.825L201.707 377.762L167.287 356.877ZM172.405 287.217L171.45 287.807L226.498 321.208L314.714 266.755L313.994 266.318C281.224 270.203 254.316 273.698 233.269 276.806C212.301 279.864 192.013 283.334 172.405 287.217ZM393.41 467.451C362.983 470.064 336.179 464.339 313 450.275C289.82 436.21 280.15 419.856 283.99 401.214C287.915 382.519 304.763 363.982 334.535 345.605C364.138 327.332 394.11 316.967 424.454 314.509C454.967 312.051 481.771 317.828 504.865 331.841C527.959 345.854 537.629 362.156 533.874 380.746C530.119 399.336 513.44 417.768 483.838 436.041C454.15 454.366 424.008 464.836 393.41 467.451ZM334.889 404.844C329.744 415.738 332.711 424.547 343.79 431.269C354.868 437.991 369.201 439.731 386.788 436.49C404.46 433.196 423.686 425.136 444.467 412.308C465.079 399.585 477.872 387.828 482.847 377.038C487.992 366.248 485.068 357.517 474.075 350.847C463.082 344.177 448.749 342.436 431.077 345.626C413.404 348.815 394.305 356.746 373.778 369.416C353.082 382.191 340.119 394.001 334.889 404.844ZM514.402 567.495L550.69 545.096L448.834 483.293L485.122 460.893C533.396 451.469 604.5 441.092 698.433 429.761L758.866 466.43L625.574 548.707L652.244 564.89L618.074 585.982L591.404 569.8L555.116 592.199L514.402 567.495ZM520.456 485.098L519.327 485.795L584.441 525.304L688.787 460.894L687.935 460.378C649.173 464.972 617.344 469.107 592.449 472.783C567.648 476.4 543.65 480.505 520.456 485.098Z" fill="url(#paint0_linear_334_20063)"/>
<path d="M156.148 247.059L160.901 250.227L165.971 254.98C165.971 254.98 168.189 259.1 169.14 260.05C170.09 261.001 171.358 261.951 169.773 262.585C167.872 263.219 163.753 258.149 163.753 258.149C167.238 265.12 167.872 266.388 167.872 266.704C167.872 267.338 170.724 273.676 170.724 274.309C170.407 274.626 169.457 275.26 168.823 274.309C168.189 273.359 165.654 267.338 165.654 267.338L163.119 264.486C165.971 270.19 165.02 267.972 167.239 274.943C167.239 274.943 167.555 276.211 166.288 275.894C165.02 275.577 163.436 270.19 163.436 270.19L160.267 265.12L161.852 269.873C161.852 269.873 162.802 273.676 162.485 274.309C161.852 274.943 161.852 275.577 161.218 274.309C160.584 273.042 159.634 268.923 159.634 268.923L157.099 265.12C157.099 265.12 157.099 267.972 157.415 268.606C157.415 268.923 158.049 272.725 157.415 273.042C156.782 273.359 156.148 272.408 155.514 270.507C154.881 268.289 154.881 265.437 154.881 265.437C154.881 265.437 149.811 258.466 149.811 255.931V250.227L156.148 247.059Z" fill="#E6B991"/>
<path d="M106.083 161.826C106.083 161.826 127.947 149.468 133.967 170.698C139.988 192.245 138.403 214.426 138.403 214.426C138.403 214.426 146.642 237.875 158.049 247.381C161.218 249.916 151.395 257.52 147.276 257.52C133.967 257.52 113.688 233.755 116.856 213.792C117.807 209.356 106.083 161.826 106.083 161.826Z" fill="#004759"/>
<path d="M119.391 383.629C119.391 383.629 126.679 392.184 130.165 395.67C133.65 399.155 141.255 399.472 141.255 404.859C141.255 410.563 137.453 415.633 129.848 413.731C121.926 411.513 120.342 404.859 114.955 402.641C109.568 400.423 101.33 398.839 101.33 395.67C101.33 392.184 101.33 392.818 101.33 392.818L119.391 383.629Z" fill="#694C2F"/>
<path d="M119.391 380.773C119.391 380.773 126.679 389.329 130.165 392.814C133.65 396.3 141.255 398.835 141.255 404.222C141.255 409.925 137.453 414.362 129.531 412.46C121.609 410.242 120.025 402.004 114.638 399.786C109.251 397.567 101.013 395.983 101.013 392.814C101.013 389.646 106.083 380.773 106.083 380.773H119.391Z" fill="black"/>
<path d="M127.63 250.868C127.63 250.868 132.7 319.945 130.165 329.451C127.63 339.274 122.243 367.476 122.877 373.813C123.511 380.15 123.511 385.537 123.511 385.537C123.511 385.537 119.391 395.043 110.836 391.558C102.28 388.072 102.28 383.636 102.28 383.636C102.28 383.636 97.5274 350.998 100.696 340.542C104.182 330.085 104.182 329.451 104.182 328.184C104.182 326.916 100.696 284.139 100.696 284.139C100.696 284.139 89.6056 264.176 97.8442 256.255C106.083 248.016 127.63 250.868 127.63 250.868Z" fill="#004759"/>
<path d="M58.8694 391.867C58.8694 391.867 59.8199 401.373 56.0175 407.077C54.75 408.978 48.0959 418.801 44.6103 421.336C41.1248 423.871 36.6886 427.673 32.5693 425.772C28.45 423.871 24.3308 413.731 28.4501 409.929C32.5694 406.126 44.6103 400.106 45.5609 397.254C46.5115 394.402 48.7296 391.867 48.7296 391.867H58.8694Z" fill="black"/>
<path d="M114.955 259.731C114.955 259.731 124.144 267.019 94.9925 297.122C85.4864 306.628 75.6634 340.85 75.6634 345.92C75.6634 350.989 65.2068 383.31 63.3056 388.38C61.4044 393.45 59.8199 396.302 52.8488 398.52C45.5608 400.421 39.2234 396.935 42.3921 388.063C45.5608 379.191 49.3633 344.969 53.1657 338.948C56.9682 332.928 58.8693 283.496 64.5729 273.673C70.2766 263.851 75.9803 251.176 75.9803 251.176L114.955 259.731Z" fill="#004759"/>
<path d="M105.132 181.469C116.222 179.251 113.688 168.161 111.786 162.457C110.202 162.774 109.251 162.774 109.251 162.774L94.3586 163.724C94.3586 163.724 92.4574 163.408 90.2393 164.675C84.8526 167.21 89.9223 184.638 105.132 181.469Z" fill="#815E59"/>
<path d="M66.7911 183.047C66.1573 179.562 67.4248 174.492 74.7128 170.056C76.614 168.788 78.8322 167.838 80.7334 167.204C78.8322 171.006 88.0213 184.315 88.0213 184.315L94.9925 183.364L91.8238 188.751H108.301L118.758 181.78L115.906 179.245C115.906 179.245 122.243 174.809 121.293 171.957C120.659 170.372 119.391 165.936 115.272 162.451C118.758 162.134 124.144 162.134 126.996 164.352C131.432 168.154 135.552 196.039 133.334 203.01C131.115 209.981 126.046 232.162 128.58 237.866C131.115 243.569 132.383 286.03 132.383 286.03C132.383 286.03 117.173 305.992 98.7947 307.26C59.1861 309.478 56.6512 286.663 56.6512 286.663C56.6512 286.663 66.7911 232.479 64.8899 223.606C62.9887 215.051 67.4248 186.533 66.7911 183.047Z" fill="#194B73"/>
<path d="M109.568 186.859C109.568 186.859 116.539 202.386 116.856 214.427C117.173 226.468 119.391 299.031 119.391 299.031L116.223 301.249C116.223 301.249 116.223 220.447 113.371 210.941C110.519 201.118 106.083 188.444 106.083 188.444L108.301 189.394L109.568 186.859Z" fill="#194B73"/>
<path d="M95.6261 221.078L102.28 219.176L108.618 213.79V208.086L95.6261 215.691V221.078Z" fill="#0D2A44"/>
<path d="M120.659 207.445L127.313 205.544L133.65 200.157V194.453L120.659 202.058V207.445Z" fill="#0D2A44"/>
<path d="M108.301 188.756C108.301 188.756 94.9924 184.32 90.5562 176.081C88.0213 171.645 88.6551 167.526 89.6057 164.674C92.1406 164.357 89.9225 164.357 108.618 163.09C109.885 165.942 111.47 169.11 112.737 171.962C115.906 179.25 108.301 188.756 108.301 188.756Z" fill="#7B7294"/>
<path d="M90.5563 176.08C94.9925 184.318 108.301 188.754 108.301 188.754C108.301 188.754 95.6263 190.022 91.8239 188.754C85.8034 186.536 74.396 172.911 74.7129 168.792C75.6635 156.117 92.4574 155.483 92.4574 158.018C92.4574 158.018 90.5563 162.454 89.9225 164.672C88.6551 167.841 88.0214 171.643 90.5563 176.08Z" fill="#0D2A44"/>
<path d="M121.293 172.278C122.243 174.813 118.758 182.101 118.758 182.101L108.301 189.072C108.301 189.072 115.906 179.566 112.737 172.595C111.153 168.792 107.984 162.455 106.083 158.652C110.202 159.286 113.054 161.187 115.272 163.088C119.074 166.257 120.659 170.377 121.293 172.278Z" fill="#0D2A44"/>
<path d="M94.3587 154.215L89.2887 166.256C89.2887 166.256 97.5273 176.396 100.062 177.346C102.914 178.297 111.786 177.346 111.786 177.346C111.786 177.346 114.955 169.108 114.955 165.939C114.955 162.77 94.3587 154.215 94.3587 154.215Z" fill="#D69E74"/>
<path d="M120.342 162.454L127.63 157.068L128.897 152.315C128.897 152.315 133.65 146.294 124.778 137.422C115.906 128.549 105.132 126.331 99.4285 130.451C93.7249 134.57 90.2393 137.739 90.5562 144.393C90.8731 151.047 94.0417 158.335 94.0417 158.335C94.0417 158.335 108.935 171.327 120.342 162.454Z" fill="#351E1A"/>
<path d="M128.58 153.59C128.58 153.59 129.214 150.104 128.58 155.491C127.947 160.878 126.046 159.927 125.412 162.779C124.778 165.631 127.63 170.701 126.679 171.334C126.046 171.968 122.877 171.968 122.877 171.968C122.877 171.968 122.877 172.919 122.56 173.235C122.243 173.552 121.609 173.869 121.609 173.869C121.609 173.869 122.243 174.82 121.609 175.137C120.976 175.454 120.976 176.404 120.976 177.038C120.976 177.672 120.976 178.939 118.124 179.256C114.955 179.573 105.132 172.919 103.231 171.017C101.33 169.116 100.062 164.68 100.062 164.68C100.062 164.68 96.8936 166.264 94.3587 162.462C91.8237 158.343 93.7249 156.758 95.3092 156.441C96.8936 156.125 100.379 158.976 100.379 158.976C100.379 158.976 101.647 161.194 102.914 161.194C104.182 161.194 109.251 152.639 112.103 153.906C114.955 154.857 123.194 158.976 124.778 158.343C126.679 156.758 128.58 153.59 128.58 153.59Z" fill="#E6B991"/>
<path d="M102.914 154.539C98.7948 152.955 88.0212 149.786 88.9718 144.399C89.6055 138.696 102.28 132.041 116.856 134.893C131.432 137.745 139.037 150.42 139.354 152.321C139.671 154.222 139.037 169.749 102.914 154.539Z" fill="#194B73"/>
<path d="M130.799 154.219C124.461 155.804 124.461 155.804 109.568 153.902C94.6755 152.001 90.5562 144.079 90.5562 144.079C90.5562 144.079 89.6056 124.434 114.005 124.434C133.967 124.434 140.938 151.684 130.799 154.219Z" fill="#2D6597"/>
<path d="M74.396 200.157L68.6922 210.614C62.038 227.091 59.5031 230.577 55.7007 236.281C55.7007 236.281 59.1861 253.708 59.1861 258.144C59.1861 262.581 62.355 273.354 64.2562 274.622C66.1574 275.889 72.8117 278.741 72.8117 279.375C74.7129 282.86 77.2478 282.86 79.149 284.762C80.4165 286.029 82.0007 286.663 80.4164 288.247C79.1489 289.515 77.2478 288.564 76.2971 287.93C75.3465 287.296 72.8115 285.712 71.8609 285.078C70.5934 284.445 69.9598 284.762 69.9598 284.762C69.9598 284.762 69.3261 286.663 69.643 288.564C69.9598 290.465 70.9105 297.753 71.2273 298.387C71.5442 299.021 73.4452 303.14 73.4452 303.457C73.4452 304.09 73.1284 304.407 72.4947 304.407C71.5441 304.407 68.6923 300.605 68.3754 299.654C67.7417 298.704 66.4743 293.634 66.4743 293.634V298.387L68.0586 300.605C68.0586 300.605 70.9103 302.189 70.2766 303.14C69.6428 304.09 67.108 302.506 65.8405 301.872C64.573 300.922 63.6224 298.704 63.6224 298.704C63.6224 298.704 62.038 298.07 61.4043 297.436C60.7705 296.803 60.4537 295.852 60.4537 295.852C60.4537 295.852 57.9188 295.535 57.9188 294.268C57.9188 293 55.7007 280.959 55.3839 280.008C54.7501 278.741 45.8777 259.729 44.927 250.856C43.9764 242.301 42.0754 236.597 42.7091 234.696C43.3429 232.795 45.2439 231.844 46.5114 223.289C47.7789 214.733 57.6018 192.236 57.6018 192.236C57.6018 192.236 63.3054 171.956 70.2766 176.392C77.8814 181.462 74.396 200.157 74.396 200.157Z" fill="#E6B991"/>
<path d="M63.9392 240.413C63.9392 235.026 78.8321 206.191 78.8321 193.833C78.8321 181.475 74.7129 170.701 69.0093 171.969C63.3056 173.236 39.2236 223.618 38.9067 240.413C38.5898 257.207 49.0466 282.239 49.0466 282.239C49.0466 282.239 59.1864 286.992 64.89 282.239C70.5936 277.486 71.5442 272.733 71.5442 272.733L63.9392 240.413Z" fill="#2D6597"/>
<path d="M178.35 25.8349V129.143C181.368 120.661 196.454 119.718 208.522 120.661C220.591 121.603 278.294 171.217 298.409 178.757C314.501 184.789 326.528 167.158 328.204 162.131V90.5006C328.204 71.6505 318.818 58.1412 314.124 53.7429C287.975 36.1494 230.246 0.773883 208.522 0.0198778C186.799 -0.734127 178.686 20.1798 178.35 25.8349Z" fill="#C7E0FA"/>
<path d="M178.35 23.6471V136.741C181.172 128.278 195.277 127.338 206.562 128.278C217.847 129.218 276.151 169.655 294.958 177.178C310.005 183.197 316.901 174.67 318.468 169.655V98.1856C318.468 79.3778 309.691 65.8989 305.303 61.5105C280.853 43.9565 226.874 8.66059 206.562 7.90828C186.25 7.15597 178.664 18.0048 178.35 23.6471Z" fill="#E1EDF9"/>
<path d="M529.352 19.2469L517.372 24.1796L625.541 224.128L636.13 243.848C633.508 233.359 639.745 214.295 643.023 206.646L655.985 213.811L663.738 210.453C669.071 208.142 672.523 202.898 672.523 197.085V113.774C672.523 98.9144 663.054 89.3722 658.319 86.4586L542.139 20.0699C538.232 17.8371 533.513 17.5334 529.352 19.2469Z" fill="#F99F27"/>
<path d="M522.569 145.242C554.506 162.216 603.221 188.283 604.782 189.844C609.904 223.652 634.238 242.09 638.154 245.159C629.014 236.965 631.036 216.523 633.19 207.326L645.209 212.789C655.698 218.033 662.691 212.789 664.876 209.511C664.876 183.652 664.657 128.876 663.783 116.639C662.909 104.401 656.135 95.5148 652.857 92.6012L534.855 22.6739C528.299 19.694 522.725 20.947 519.034 22.9696C516.261 24.4889 515.138 27.6804 515.047 30.841L512.258 127.504C512.045 134.901 516.034 141.769 522.569 145.242Z" fill="#F7D37E"/>
<path d="M672.979 577.102L659.433 589.055C659.433 589.055 643.495 596.227 641.901 603C640.706 609.773 651.464 614.555 659.433 612.961C667.401 611.367 675.37 600.211 681.347 597.422C687.323 594.633 694.495 593.836 695.69 589.852C696.886 585.867 691.706 573.914 691.706 573.914L672.979 577.102Z" fill="#694C2F"/>
<path d="M672.979 572.719L659.433 584.672C659.433 584.672 643.495 591.844 641.901 598.617C640.706 605.391 651.464 610.172 659.433 608.578C667.401 606.984 675.37 595.828 681.347 593.039C687.323 590.25 694.495 589.453 695.69 585.469C696.886 581.484 691.706 569.531 691.706 569.531L672.979 572.719Z" fill="black"/>
<path d="M666.602 386.251C666.602 386.251 667.798 373.899 659.829 394.618C651.86 415.337 639.11 483.868 643.094 487.853C647.079 491.837 666.204 555.587 668.594 563.158C671.384 570.728 671.384 573.915 671.384 573.915C671.384 573.915 682.938 581.486 689.313 575.908C695.688 570.329 695.688 565.15 695.688 563.954C695.688 562.759 695.688 521.72 689.313 509.767C682.938 498.212 677.759 488.251 677.759 488.251C677.759 488.251 695.688 409.759 699.274 404.579C702.86 399.4 666.602 386.251 666.602 386.251Z" fill="#004759"/>
<path d="M703.657 590.65C703.657 590.65 701.266 608.58 698.477 609.377C695.688 610.572 688.915 625.314 692.501 629.697C696.086 634.08 702.462 635.275 709.235 632.885C716.008 630.096 722.383 617.744 722.782 609.377C723.18 601.01 724.774 592.244 723.18 588.658C721.587 585.072 713.618 582.283 714.415 581.885C714.813 580.689 703.657 590.65 703.657 590.65Z" fill="#694C2F"/>
<path d="M703.657 587.068C703.657 587.068 701.266 604.998 698.477 605.795C695.688 606.99 688.915 621.732 692.501 626.115C696.086 630.498 702.462 631.693 709.235 629.303C716.008 626.514 722.383 614.162 722.782 605.795C723.18 597.428 724.774 588.662 723.18 585.076C721.587 581.49 713.618 578.701 714.415 578.303C714.813 577.107 703.657 587.068 703.657 587.068Z" fill="black"/>
<path d="M681.741 403.386C681.741 403.386 686.921 507.378 690.507 512.957C694.093 518.535 701.663 550.41 702.46 564.753C703.257 579.097 700.069 591.449 708.437 594.238C716.804 597.027 719.194 594.238 722.78 588.66C726.366 583.082 733.937 544.832 732.343 536.066C730.749 527.3 724.773 516.542 725.171 511.363C725.569 506.183 737.124 424.902 732.741 414.542C727.96 404.183 686.522 387.449 681.741 403.386Z" fill="#004759"/>
<path d="M679.349 301.381L681.74 297.397C681.74 297.397 667.795 295.006 663.412 307.756C659.029 320.506 658.232 330.865 657.037 335.647C655.841 340.428 650.662 353.178 650.662 353.178C650.662 353.178 645.88 355.569 640.701 362.342C635.521 369.514 624.763 388.639 624.763 388.639L633.529 393.819C633.927 394.217 630.341 399.397 638.709 397.405C647.076 395.014 664.607 384.256 670.584 364.334C676.162 344.014 679.349 301.381 679.349 301.381Z" fill="#004759"/>
<path d="M738.322 357.561C739.915 349.194 750.275 328.874 741.908 318.514C737.126 312.139 727.166 307.358 719.994 304.569C720.392 304.967 690.111 273.092 678.158 298.592C674.173 307.358 658.634 336.842 659.032 343.217C659.431 349.991 664.212 369.913 664.611 371.905C664.611 374.296 649.47 432.069 649.47 432.069C649.47 432.069 678.158 462.749 699.275 464.741C720.392 466.335 741.908 456.374 741.908 456.374C741.908 456.374 744.697 410.952 745.095 405.374C745.892 399.796 736.728 365.928 738.322 357.561Z" fill="#194B73"/>
<path d="M688.517 319.312C688.517 319.312 679.353 339.234 676.165 355.172C672.978 371.508 669.79 450 669.79 450L674.173 453.188C674.173 453.188 673.376 367.125 680.548 349.594C685.728 336.844 691.306 319.711 691.306 319.711H689.712L688.517 319.312Z" fill="#194B73"/>
<path d="M674.97 350.391C672.181 349.594 668.197 348.398 665.408 347.203C663.017 344.414 661.822 342.023 660.626 337.641C661.025 335.25 662.618 333.258 663.017 330.469C667.798 336.445 672.181 340.031 677.759 343.219C676.962 345.609 675.369 348 674.97 350.391Z" fill="#194B73"/>
<path d="M704.056 367.523C701.267 367.523 698.08 366.727 695.291 365.93C692.501 363.539 689.314 360.75 686.525 357.563C686.525 354.773 687.322 351.586 688.119 349.594C694.095 354.773 700.072 357.961 705.65 359.953C705.65 362.742 704.056 365.133 704.056 367.523Z" fill="#194B73"/>
<path d="M686.125 310.945C685.727 313.734 689.313 319.313 689.711 319.711C692.899 319.711 700.071 319.313 704.453 316.125C709.633 312.539 713.617 304.969 714.016 302.18C712.821 301.781 712.422 301.781 712.422 301.781L698.078 303.773C698.078 303.773 694.891 300.586 690.906 298.594L690.11 304.172C690.11 304.172 686.125 307.758 686.125 310.945Z" fill="#938CA9"/>
<path d="M680.947 310.943C680.947 310.943 681.744 312.936 684.134 316.123C685.33 318.115 687.322 319.311 688.517 319.709C688.517 319.709 689.314 319.709 689.712 319.709C689.712 318.912 687.72 310.943 687.72 308.154C688.119 304.568 690.111 303.771 690.111 303.771L691.306 294.607C691.306 294.607 687.72 291.021 684.134 295.803C680.947 301.381 680.947 310.943 680.947 310.943Z" fill="#194B73"/>
<path d="M689.714 320.105L688.519 319.707C689.316 320.105 689.714 320.105 689.714 320.105Z" fill="#B50B02"/>
<path d="M671.382 397.406L676.562 399.398V400.195L671.382 398.203V397.406Z" fill="#13B6C5"/>
<path d="M682.937 295.406C682.937 295.406 684.929 303.773 688.515 309.75C688.914 310.148 689.312 310.945 689.312 311.344C692.101 316.125 698.078 317.719 703.257 315.328C706.047 313.734 709.632 312.141 710.828 310.547C712.421 308.555 716.008 306.164 716.008 305.367V303.375C716.008 303.375 711.226 296.203 710.828 295.805C710.429 295.805 699.671 288.234 699.671 288.234L682.937 295.406Z" fill="#D69E74"/>
<path d="M685.726 271.898C685.328 271.898 681.742 262.336 681.742 262.336C681.742 262.336 686.523 249.586 698.078 252.773C709.633 255.961 723.578 270.703 723.179 276.68C722.781 282.656 717.203 289.031 715.211 291.023C713.218 293.016 714.812 298.594 714.812 298.594C714.812 298.594 705.648 298.992 702.461 295.406C699.273 291.82 685.726 271.898 685.726 271.898Z" fill="#231210"/>
<path d="M681.741 262.334C681.342 262.334 679.749 265.123 679.749 267.115V269.904C679.749 269.904 675.764 273.49 674.967 274.287C674.17 275.084 670.585 277.076 672.577 278.67L674.569 280.264V282.654C674.569 284.248 675.764 284.647 675.764 284.647C675.764 284.647 673.772 284.248 674.171 285.443C674.171 286.639 674.171 287.436 674.171 287.436C674.171 287.436 671.78 289.826 673.772 292.217C676.163 295.404 684.53 297.397 689.311 297.795C692.897 297.795 698.077 295.404 702.46 292.217C702.46 292.217 708.436 292.615 710.428 291.022C712.022 289.428 714.811 285.842 713.616 284.248C712.421 282.654 708.436 281.858 708.436 281.858C708.436 281.858 699.671 285.842 698.077 285.045C696.882 284.248 707.639 271.897 701.264 266.318C694.889 261.139 681.741 262.334 681.741 262.334Z" fill="#E6B991"/>
<path d="M682.934 257.158C682.934 257.158 668.59 256.759 671.379 258.353C673.77 259.947 691.301 274.689 696.083 277.079C713.614 285.447 725.567 286.642 728.754 285.447C731.942 284.65 727.161 271.103 713.215 267.517C699.669 263.533 682.934 257.158 682.934 257.158Z" fill="#004759"/>
<path d="M718 248.391C718 248.391 706.445 242.414 697.679 244.407C688.914 246.399 682.937 256.758 682.937 256.758C682.937 256.758 701.664 267.516 708.835 272.696C716.007 277.875 721.984 279.868 725.172 277.477C728.359 275.883 733.937 257.953 718 248.391Z" fill="#2D6597"/>
<path d="M725.571 330.07C725.571 330.07 719.196 343.219 725.571 356.367C731.946 369.117 737.923 390.633 737.923 390.633C737.923 390.633 700.071 405.375 699.274 406.172C698.876 406.969 700.071 411.352 699.672 416.93C699.274 422.508 749.477 415.336 755.852 400.594C762.227 385.852 756.251 328.078 744.696 319.711C733.54 311.344 725.571 330.07 725.571 330.07Z" fill="#194B73"/>
<path d="M704.851 426.098L640.703 396.215L579.343 347.207L639.507 374.699L704.851 426.098Z" fill="#766F8C"/>
<path d="M703.655 430.875C702.061 432.469 699.671 432.867 696.085 430.875L633.53 382.266L641.1 375.891L702.858 424.5C706.046 426.492 706.843 427.688 703.655 430.875Z" fill="#958EAB"/>
<path d="M639.504 374.695C645.082 374.695 637.114 381.07 633.528 381.867C630.34 383.063 633.926 374.695 639.504 374.695Z" fill="#8B8297"/>
<path d="M642.298 402.188C640.704 403.781 638.314 404.18 634.728 402.188L572.173 353.578L579.743 348L641.501 395.813C644.29 397.805 645.486 399 642.298 402.188Z" fill="#958EAB"/>
<path d="M579.344 347.205C581.336 347.603 576.555 352.783 573.367 353.58C569.781 354.376 573.766 346.408 579.344 347.205Z" fill="#8B8297"/>
<path d="M702.063 405.374C696.884 401.39 700.868 403.382 686.524 398.601C686.524 398.601 681.743 398.999 680.548 399.398C679.352 399.796 672.977 397.007 671.782 397.804C670.587 398.601 670.985 399.796 672.18 400.195C673.376 400.992 679.352 405.773 679.352 405.773L682.938 406.57C682.938 406.57 680.946 410.554 680.548 410.554C680.149 410.554 672.977 412.148 672.977 412.148C672.977 412.148 669.391 410.953 668.993 412.148C668.594 413.343 670.587 415.335 670.587 415.335C670.587 415.335 670.587 416.929 671.782 417.726C673.376 418.124 673.774 418.523 673.774 418.523C673.774 418.523 673.774 420.117 674.969 420.914C676.165 421.71 677.758 422.507 677.758 422.507C677.758 422.507 678.157 423.703 684.134 424.101C689.712 424.499 692.899 419.32 695.29 417.726C697.68 416.531 699.274 417.726 701.266 417.726C703.259 418.124 706.446 409.359 702.063 405.374Z" fill="#E6B991"/>
<path d="M609.623 382.664C609.623 382.664 606.037 385.852 610.818 387.844C614.005 389.039 619.185 385.852 618.787 385.852C618.388 385.852 617.99 382.266 614.005 382.266H609.623V382.664Z" fill="#E6B991"/>
<path d="M624.368 393.422C624.368 393.422 621.578 396.211 625.563 397.805C627.953 398.602 632.336 396.211 631.938 396.211C631.539 396.211 631.539 393.422 627.953 393.422H624.368Z" fill="#E6B991"/>
<path d="M619.188 390.234C619.188 390.234 616.001 393.023 620.384 395.016C623.173 396.211 627.556 393.023 627.556 393.422C627.157 393.422 627.157 390.234 623.173 390.234H619.188Z" fill="#E6B991"/>
<path d="M616.397 388.242C616.397 388.242 613.21 391.031 617.593 393.023C620.382 394.219 624.765 391.031 624.765 391.43C624.366 391.43 624.366 388.242 620.382 388.242H616.397Z" fill="#E6B991"/>
<path d="M704.453 316.529C700.468 319.318 693.296 320.115 688.515 320.115C689.71 320.513 689.312 320.513 702.062 320.115C708.836 319.716 712.421 316.927 716.804 314.138C721.585 310.95 727.562 310.552 733.14 311.349C733.539 311.349 733.539 311.349 733.539 311.349C730.75 289.036 714.015 294.216 714.015 294.216C714.015 294.216 714.414 300.591 714.414 302.982C713.617 305.372 709.632 312.943 704.453 316.529Z" fill="#194B73"/>
<defs>
<linearGradient id="paint0_linear_334_20063" x1="609.277" y1="287.589" x2="420.675" y2="598.421" gradientUnits="userSpaceOnUse">
<stop offset="0.21849" stop-color="#9FBDC9"/>
<stop offset="1" stop-color="#9CBBC7" stop-opacity="0"/>
</linearGradient>
</defs>
</svg>
