<svg width="670" height="280" viewBox="0 0 670 280" fill="none" xmlns="http://www.w3.org/2000/svg">
<path d="M559.457 229.421C554.866 229.421 551.144 227.317 551.144 224.722C551.144 222.127 554.866 220.023 559.457 220.023C564.049 220.023 567.771 222.127 567.771 224.722C567.771 227.317 564.049 229.421 559.457 229.421Z" fill="#4D4D4D"/>
<path d="M588.375 191.286C589.279 192.552 589.279 195.443 589.098 198.696C588.195 201.95 585.122 201.769 582.411 202.13C577.17 202.853 574.639 206.829 567.772 206.829C563.615 206.829 560.904 205.926 560 203.396C559.819 202.13 560.542 201.046 561.988 199.781C561.988 199.781 571.386 195.624 571.567 195.443C571.748 195.263 576.085 192.19 576.085 191.829C576.085 191.467 577.712 184.238 577.712 184.238H587.833L588.375 191.286Z" fill="black"/>
<path d="M597.592 137.789L596.507 141.223L596.146 142.669L591.085 160.2C592.17 165.442 592.35 171.044 591.989 177.008C591.627 181.527 590.905 186.226 589.82 191.106C589.639 192.19 589.278 193.455 589.097 194.54C588.374 198.335 580.603 195.624 575.361 192.552C577.169 183.515 575 168.153 576.265 157.851L579.157 139.777L580.603 131.283L580.964 129.476L581.687 125.138C582.229 124.957 582.772 124.776 583.133 124.776C583.494 124.776 583.856 124.596 584.217 124.596C592.712 122.788 597.592 126.584 597.592 137.789Z" fill="#004759"/>
<path opacity="0.5" d="M596.147 142.669L591.086 160.2C592.17 165.441 592.351 171.044 591.99 177.008L587.833 156.404L579.519 140.319V139.777L580.965 131.282L581.326 129.475L597.05 141.223L596.147 142.669Z" fill="#004759"/>
<path d="M619.099 207.01C620.003 210.082 620.184 210.805 619.822 213.155C619.461 214.239 618.918 214.781 618.376 216.408C617.834 218.396 617.834 221.83 614.942 223.818C611.328 226.71 604.46 226.71 602.291 223.818C602.291 222.372 603.195 219.119 605.002 216.588L608.436 210.082L608.255 203.937L618.196 201.768L619.099 207.01Z" fill="black"/>
<path d="M581.507 118.27C581.507 119.174 581.688 120.077 581.869 120.981C584.038 129.656 594.339 136.705 595.424 138.512C595.605 138.693 596.327 143.211 596.508 143.392C596.689 144.657 597.05 146.103 597.231 147.368C598.858 156.224 600.846 165.803 603.376 175.743C606.268 187.672 607.352 198.877 607.714 209.721C612.051 211.709 617.473 210.806 619.461 207.914C619.642 207.552 619.823 207.191 620.004 206.83C620.004 201.95 620.004 197.07 619.823 192.371C619.642 182.792 618.919 174.478 616.75 170.864L617.293 137.97C619.1 129.114 619.1 121.162 616.389 114.655H594.52C594.52 114.655 581.507 118.27 581.507 118.27Z" fill="#004759"/>
<path opacity="0.5" d="M581.508 118.27C581.508 119.174 581.689 120.077 581.87 120.981L587.472 130.379C590.364 131.463 595.063 132.006 599.581 132.186C606.088 132.548 596.69 139.235 596.87 145.741L612.233 170.863C617.293 178.454 618.378 193.094 619.281 208.094C619.643 207.733 619.824 207.372 619.824 207.01C619.824 202.13 619.824 197.25 619.643 192.551C619.462 182.972 618.739 174.659 616.57 171.044L617.113 138.151C618.92 129.295 618.92 121.342 616.209 114.836H594.34C594.521 114.655 581.508 118.27 581.508 118.27Z" fill="#004759"/>
<path d="M565.964 111.041C571.386 101.823 571.025 102.366 574.097 96.7629L578.073 90.6179L582.05 84.8344L578.435 74.8941L575.362 63.3271L564.157 89.895L557.289 106.161C555.662 111.222 563.434 113.933 565.964 111.041Z" fill="#004759"/>
<path d="M621.088 135.077C621.088 152.609 595.062 149.175 581.869 137.608C580.423 136.343 579.158 135.077 578.074 133.632C578.254 132.909 579.158 104.353 578.796 103.449C573.917 92.0629 574.459 75.2547 574.459 75.2547C575.001 68.7483 573.917 63.6877 576.989 60.073L592.351 58.9886C599.581 62.9648 607.172 67.8446 613.317 76.8813C614.401 79.0501 614.943 82.3033 615.305 86.0987C615.305 86.4602 615.305 86.8216 615.485 87.1831C615.666 88.2675 615.847 89.8941 616.028 91.8822C617.654 103.63 621.45 129.655 621.088 135.077Z" fill="#194B73"/>
<path d="M589.64 129.114H588.375C588.375 128.933 589.278 113.751 586.387 100.196C583.314 86.4606 586.387 71.279 586.387 71.0983L587.652 71.279C587.652 71.4597 584.76 86.4606 587.652 99.8349C590.544 113.39 589.64 128.933 589.64 129.114Z" fill="#333333"/>
<path d="M578.797 112.848C578.797 116.101 578.616 119.716 578.436 123.15C589.46 133.09 610.064 139.416 620.727 128.21C620.366 125.318 620.004 122.065 619.643 118.451C607.353 129.295 590.545 121.884 578.797 112.848Z" fill="#11324E"/>
<path opacity="0.5" d="M621.088 135.078C621.088 152.609 595.063 149.175 581.869 137.608L580.604 131.283L587.11 122.065L605.907 113.029L611.329 89.5332L616.208 91.5213C617.654 103.63 621.45 129.656 621.088 135.078Z" fill="#09223B"/>
<path opacity="0.5" d="M580.784 136.705L581.507 129.656L604.46 108.872V91.1599L616.569 95.859L580.784 136.705Z" fill="#09223B"/>
<path d="M584.038 72.363C584.58 72.9052 584.941 73.0859 585.483 73.2667C592.713 73.8089 596.147 64.5915 593.616 60.0731C591.448 56.2777 590.905 54.6511 590.905 54.6511L580.604 61.8805C580.604 61.8805 580.423 62.9649 580.965 64.4107C581.869 67.1217 582.23 70.7364 584.038 72.363Z" fill="#FFB294"/>
<path opacity="0.5" d="M584.76 73.086C588.013 73.8089 592.712 70.7365 590.543 59.8925L581.507 64.5915C582.41 67.1218 582.049 71.4594 584.76 73.086Z" fill="#FFB294"/>
<path d="M590.905 57.0011C590.905 57.0011 591.628 62.4231 590.182 65.3149C588.736 68.3873 585.302 70.5561 584.037 71.0983C582.772 71.6405 580.603 70.3754 579.338 69.8332C578.073 69.291 575.181 61.8809 575.181 61.8809C573.735 58.2662 573.374 57.1818 573.012 55.013C572.47 51.7598 572.109 44.3498 581.145 42.181C585.483 41.0966 589.278 43.0846 591.266 46.5186C592.893 49.2296 592.531 55.3745 592.531 55.3745L590.905 57.0011Z" fill="#FFB294"/>
<path d="M593.075 55.9165L589.822 59.7119L588.557 57.3623C588.195 56.0972 586.749 55.555 585.665 56.0972C583.677 57.0009 580.605 58.0853 577.171 57.7238C573.917 57.3623 572.652 55.7357 572.652 55.7357C569.218 51.0367 574.64 44.1688 579.882 42.1807C586.388 39.8312 590.726 43.0844 592.171 47.0605C593.617 50.6752 593.075 55.9165 593.075 55.9165Z" fill="black"/>
<path d="M590.906 52.8436C591.449 52.3014 592.172 52.1207 592.714 52.4821C593.075 52.6629 593.256 53.0243 593.256 53.3858C593.256 53.7473 593.256 54.1087 593.256 54.4702C593.256 55.1931 593.075 55.7353 593.075 56.4583C592.894 57.0005 592.894 57.5427 592.352 57.9041C591.81 58.2656 591.449 58.8078 590.906 58.4463C590.364 58.0849 590.003 57.0005 590.003 56.4583C589.822 55.3739 590.003 53.7473 590.906 52.8436Z" fill="#FFB294"/>
<path d="M616.208 105.437C615.485 110.137 614.762 113.028 610.786 115.559C605.364 119.535 597.954 124.234 590.543 128.571C586.748 130.74 581.507 122.426 583.314 120.438C588.736 115.378 594.881 110.498 602.653 105.618L601.026 88.4485C602.11 79.954 601.93 70.7366 610.063 72.9054C618.015 77.4237 617.834 96.7622 616.208 105.437Z" fill="#004759"/>
<path d="M589.098 41.2775C589.098 41.2775 592.893 41.8197 594.52 45.2536C594.52 45.2536 596.146 48.6875 594.339 52.4829C592.532 56.2784 588.556 59.1701 588.556 59.1701C588.556 59.1701 586.025 60.9774 582.772 62.2426L578.615 64.0499C578.615 64.0499 576.446 64.7728 574.097 64.2306C571.928 63.6884 570.301 62.604 570.301 62.604C570.301 62.604 566.868 60.616 567.771 57.0013C568.856 53.3866 570.663 49.049 571.747 47.7839L589.098 41.2775Z" fill="#11324E"/>
<path d="M589.098 40.9156C589.098 40.9156 592.893 41.4578 594.52 44.8918C594.52 44.8918 596.146 48.3257 594.339 52.1211C592.532 55.9165 588.556 58.8083 588.556 58.8083C588.556 58.8083 586.025 60.6156 582.772 61.8808L578.615 63.6881C578.615 63.6881 576.446 64.411 574.097 63.8688C571.928 63.3266 570.301 62.2422 570.301 62.2422C570.301 62.2422 566.868 60.2541 567.771 56.6395C568.856 53.0248 570.663 48.6872 571.747 47.4221L589.098 40.9156Z" fill="#194B73"/>
<path d="M593.255 46.5186C592.532 44.5305 591.086 42.181 589.279 40.9159C588.556 40.1929 586.568 38.5663 583.857 39.1085L581.146 39.2893C581.146 39.2893 578.254 38.9278 574.639 42.181C570.663 45.4342 570.663 51.7599 570.663 51.7599C570.663 51.7599 570.663 55.5553 571.748 57.5433C571.748 57.5433 573.013 60.7966 578.254 60.7966C583.495 60.7966 587.652 57.7241 587.652 57.7241C593.436 53.5672 593.978 48.8681 593.255 46.5186Z" fill="#2D6597"/>
<path d="M590.905 43.0847C588.736 46.5187 582.41 53.0251 577.53 56.459L590.905 43.0847Z" fill="#11324E"/>
<path d="M589.279 40.9159C589.279 40.9159 587.472 39.8315 584.399 41.6389C581.327 43.6269 579.339 46.1572 579.339 46.1572C579.339 46.1572 575.724 50.4948 574.82 54.2902C574.82 54.2902 574.64 52.4829 576.989 48.1453C579.339 43.8077 584.038 40.9159 584.038 40.9159C584.038 40.9159 587.291 39.1086 589.279 40.9159Z" fill="#11324E"/>
<path d="M580.964 39.1084C576.446 40.1928 572.289 44.1689 571.385 51.579C571.385 51.579 571.385 47.0607 573.193 43.9882C574.819 41.8194 577.53 39.2891 580.964 39.1084Z" fill="#11324E"/>
<path d="M576.808 61.3392L576.988 60.797L576.627 57.1823C574.277 56.6401 572.47 55.7365 571.386 54.1099L570.663 54.2906L571.024 58.086C572.109 60.2548 574.277 60.9777 576.808 61.3392Z" fill="#11324E"/>
<path d="M570.662 51.0371H570.12L569.759 53.0252L570.12 54.471L570.662 54.2903C570.482 53.2059 570.482 52.1215 570.662 51.0371Z" fill="#11324E"/>
<path d="M584.037 59.7124L583.314 58.4473L581.326 59.1702L581.146 59.5317L581.869 60.9775L584.037 60.4353V59.7124Z" fill="#11324E"/>
<path d="M594.339 48.5064L593.616 47.0605L592.893 47.2413L592.713 48.8679L593.255 50.3138L593.978 50.133L594.339 48.5064Z" fill="#11324E"/>
<path d="M557.832 138.693C558.194 138.512 559.097 138.512 559.459 138.693C559.639 138.873 559.82 139.054 559.82 139.235V258.158C559.82 258.338 559.639 258.519 559.459 258.7C559.097 258.881 558.194 258.881 557.832 258.7C557.651 258.519 557.471 258.338 557.471 258.158V139.054C557.471 139.054 557.651 138.873 557.832 138.693Z" fill="#1A1A1A"/>
<path d="M558.554 258.881H558.374C559.819 257.616 559.819 256.351 559.819 256.351V252.374C560.904 252.736 561.627 253.097 561.988 253.64C563.615 255.628 560.723 258.881 558.554 258.881Z" fill="#808080"/>
<path d="M561.988 253.459L559.819 255.085V252.193C560.904 252.555 561.446 253.097 561.988 253.459Z" fill="#4D4D4D"/>
<path d="M557.47 251.651C557.47 251.651 555.663 251.289 554.579 252.012C553.494 252.735 554.94 253.277 554.94 253.277C554.94 253.277 557.47 254.181 560.724 252.374C563.977 250.566 563.254 247.855 563.254 247.855C563.254 247.855 562.712 245.506 559.82 244.602V248.578C559.82 248.578 559.82 250.205 557.47 251.832V251.651Z" fill="#808080"/>
<path d="M559.819 244.602V247.494L561.988 245.867C561.446 245.325 560.723 244.964 559.819 244.602Z" fill="#4D4D4D"/>
<path d="M557.47 243.88C557.47 243.88 555.663 243.518 554.579 244.241C553.494 244.964 554.94 245.506 554.94 245.506C554.94 245.506 557.47 246.41 560.724 244.603C563.977 242.795 563.254 240.084 563.254 240.084C563.254 240.084 562.712 237.735 559.82 236.831V240.807C559.82 240.807 559.82 242.434 557.47 244.061V243.88Z" fill="#808080"/>
<path d="M559.819 237.012V239.904L561.988 238.277C561.446 237.735 560.723 237.373 559.819 237.012Z" fill="#4D4D4D"/>
<path d="M557.47 236.289C557.47 236.289 555.663 235.927 554.579 236.65C553.494 237.373 554.94 237.915 554.94 237.915C554.94 237.915 557.47 238.819 560.724 237.012C563.977 235.204 563.254 232.493 563.254 232.493C563.254 232.493 562.712 230.144 559.82 229.24V233.216C559.82 233.216 559.82 234.843 557.47 236.469V236.289Z" fill="#808080"/>
<path d="M559.819 229.421V232.313L561.988 230.686C561.446 230.144 560.723 229.602 559.819 229.421Z" fill="#4D4D4D"/>
<path d="M557.47 228.698C557.47 228.698 555.663 228.337 554.579 229.06C553.494 229.783 554.94 230.325 554.94 230.325C554.94 230.325 557.47 231.229 560.724 229.421C563.977 227.614 563.254 224.903 563.254 224.903C563.254 224.903 562.712 222.553 559.82 221.65V225.626C559.82 225.626 559.82 227.252 557.47 228.879V228.698Z" fill="#808080"/>
<path d="M559.819 221.65V224.541L561.988 222.915C561.446 222.373 560.723 222.011 559.819 221.65Z" fill="#4D4D4D"/>
<path d="M557.47 220.926C557.47 220.926 555.663 220.565 554.579 221.288C553.494 222.01 554.94 222.553 554.94 222.553C554.94 222.553 557.47 223.456 560.724 221.649C563.977 219.842 563.254 217.131 563.254 217.131C563.254 217.131 562.712 214.781 559.82 213.877V217.854C559.82 217.854 559.82 219.48 557.47 221.107V220.926Z" fill="#808080"/>
<path d="M559.819 214.059V216.95L561.988 215.324C561.446 214.782 560.723 214.42 559.819 214.059Z" fill="#4D4D4D"/>
<path d="M557.47 213.336C557.47 213.336 555.663 212.974 554.579 213.697C553.494 214.42 554.94 214.962 554.94 214.962C554.94 214.962 557.47 215.866 560.724 214.059C563.977 212.251 563.254 209.54 563.254 209.54C563.254 209.54 562.712 207.191 559.82 206.287V210.263C559.82 210.263 559.82 211.89 557.47 213.516V213.336Z" fill="#808080"/>
<path d="M559.819 206.468V209.36L561.988 207.733C561.446 207.191 560.723 206.649 559.819 206.468Z" fill="#4D4D4D"/>
<path d="M557.47 205.745C557.47 205.745 555.663 205.383 554.579 206.106C553.494 206.829 554.94 207.371 554.94 207.371C554.94 207.371 557.47 208.275 560.724 206.468C563.977 204.66 563.254 201.949 563.254 201.949C563.254 201.949 562.712 199.6 559.82 198.696V202.672C559.82 202.672 559.82 204.299 557.47 205.925V205.745Z" fill="#808080"/>
<path d="M559.819 198.696V201.588L561.988 199.961C561.446 199.419 560.723 199.058 559.819 198.696Z" fill="#4D4D4D"/>
<path d="M557.47 197.974C557.47 197.974 555.663 197.612 554.579 198.335C553.494 199.058 554.94 199.6 554.94 199.6C554.94 199.6 557.47 200.504 560.724 198.696C563.977 196.889 563.254 194.178 563.254 194.178C563.254 194.178 562.712 191.829 559.82 190.925V194.901C559.82 194.901 559.82 196.528 557.47 198.154V197.974Z" fill="#808080"/>
<path d="M559.819 191.106V193.997L561.988 192.371C561.446 191.829 560.723 191.467 559.819 191.106Z" fill="#4D4D4D"/>
<path d="M557.47 190.382C557.47 190.382 555.663 190.021 554.579 190.744C553.494 191.467 554.94 192.009 554.94 192.009C554.94 192.009 557.47 192.913 560.724 191.105C563.977 189.298 563.254 186.587 563.254 186.587C563.254 186.587 562.712 184.238 559.82 183.334V187.31C559.82 187.31 559.82 188.937 557.47 190.563V190.382Z" fill="#808080"/>
<path d="M559.819 183.515V186.406L561.988 184.78C561.446 184.237 560.723 183.695 559.819 183.515Z" fill="#4D4D4D"/>
<path d="M557.47 182.792C557.47 182.792 555.663 182.431 554.579 183.154C553.494 183.877 554.94 184.419 554.94 184.419C554.94 184.419 557.47 185.322 560.724 183.515C563.977 181.708 563.254 178.997 563.254 178.997C563.254 178.997 562.712 176.647 559.82 175.744V179.72C559.82 179.72 559.82 181.346 557.47 182.973V182.792Z" fill="#808080"/>
<path d="M559.819 175.744V178.635L561.988 177.009C561.446 176.466 560.723 176.105 559.819 175.744Z" fill="#4D4D4D"/>
<path d="M557.47 175.02C557.47 175.02 555.663 174.658 554.579 175.381C553.494 176.104 554.94 176.647 554.94 176.647C554.94 176.647 557.47 177.55 560.724 175.743C563.977 173.936 563.254 171.225 563.254 171.225C563.254 171.225 562.712 168.875 559.82 167.971V171.947C559.82 171.947 559.82 173.574 557.47 175.201V175.02Z" fill="#808080"/>
<path d="M559.819 168.152V171.044L561.988 169.417C561.446 168.875 560.723 168.333 559.819 168.152Z" fill="#4D4D4D"/>
<path d="M557.47 167.429C557.47 167.429 555.663 167.068 554.579 167.791C553.494 168.514 554.94 169.056 554.94 169.056C554.94 169.056 557.47 169.96 560.724 168.152C563.977 166.345 563.254 163.634 563.254 163.634C563.254 163.634 562.712 161.285 559.82 160.381V164.357C559.82 164.357 559.82 165.984 557.47 167.61V167.429Z" fill="#808080"/>
<path d="M559.819 160.561V163.453L561.988 161.826C561.446 161.284 560.723 160.742 559.819 160.561Z" fill="#4D4D4D"/>
<path d="M563.613 139.416V141.223C563.613 141.946 563.613 142.488 563.613 143.211V149.356C563.432 152.971 558.553 154.417 555.661 152.61C554.396 151.887 553.673 150.802 553.673 149.356V139.416C553.673 139.416 553.673 139.416 553.673 139.597C553.492 137.609 556.203 136.524 558.733 136.524C561.264 136.524 563.613 137.609 563.613 139.416C563.613 139.235 563.613 139.235 563.613 139.416Z" fill="#007694"/>
<path d="M555.3 137.248C557.288 136.163 560.36 136.163 562.349 137.248C564.337 138.332 564.156 140.139 562.168 141.404C560.18 142.489 557.107 142.489 555.119 141.404C553.312 140.139 553.312 138.332 555.3 137.248Z" fill="#6998AB"/>
<path d="M547.529 114.836C547.168 114.655 546.987 114.294 546.987 113.571C546.987 112.486 547.71 111.041 548.794 110.498C549.337 110.318 549.698 110.137 550.06 110.318L552.048 111.402C552.409 111.583 552.59 112.306 552.409 111.944L552.59 112.486L562.53 118.089C562.711 118.089 562.711 118.089 562.892 117.908C563.253 117.728 563.615 117.728 563.976 117.908L565.964 118.993C566.326 119.174 566.506 119.535 566.506 120.077C566.506 121.162 565.783 122.608 564.699 123.15C564.157 123.33 563.795 123.511 563.434 123.33C562.892 122.969 561.988 122.427 561.265 122.065C561.084 121.885 560.904 121.704 560.723 121.162C560.723 120.981 560.723 120.981 560.723 120.8C560 120.439 551.505 115.559 550.783 115.197L550.24 115.378C550.602 115.378 549.879 115.559 549.517 115.378C548.794 115.74 548.072 115.197 547.529 114.836Z" fill="#E6BA8A"/>
<path d="M549.338 115.921C548.976 115.741 548.795 115.379 548.795 114.656C548.795 113.572 549.518 112.126 550.603 111.584C551.145 111.403 551.506 111.222 551.868 111.403L549.88 110.319C549.518 110.138 549.157 110.138 548.615 110.499C547.711 111.041 546.807 112.307 546.807 113.572C546.807 114.114 546.988 114.475 547.349 114.837L549.338 115.921Z" fill="black"/>
<path d="M550.06 116.102C550.241 116.102 550.241 116.102 550.06 116.102C550.241 116.102 550.241 116.102 550.241 116.102C550.241 116.102 550.241 116.102 550.422 116.102H550.603C550.603 116.102 550.603 116.102 550.783 116.102H550.964C550.964 116.102 550.964 116.102 551.145 116.102H551.326C550.783 116.282 550.422 115.921 550.422 115.198C550.422 114.475 550.964 113.391 551.687 113.029C552.229 112.668 552.771 112.848 552.771 113.391V113.21C552.771 113.21 552.771 113.21 552.771 113.029V112.848C552.771 112.848 552.771 112.848 552.771 112.668V112.487C552.771 112.487 552.771 112.487 552.771 112.306V112.126C552.591 111.403 551.868 111.222 551.145 111.583C550.241 112.126 549.338 113.391 549.338 114.656C548.795 115.74 549.338 116.282 550.06 116.102Z" fill="#4D4D4D"/>
<path d="M560.905 121.704C560.724 121.524 560.543 121.343 560.543 120.801C560.543 120.078 561.085 118.993 561.808 118.632C562.17 118.451 562.35 118.451 562.712 118.632L552.41 112.668C552.229 112.487 551.868 112.487 551.506 112.668C550.784 113.029 550.241 113.933 550.241 114.836C550.241 115.198 550.422 115.559 550.603 115.74L560.905 121.704Z" fill="black"/>
<path d="M557.65 107.426L556.565 109.414L553.131 111.945L551.505 114.294L550.963 115.921L551.324 118.813L552.047 120.258L553.312 121.343L554.035 121.704L554.758 122.247L556.023 122.427L558.192 123.15L560.361 122.608L559.638 119.355C559.638 119.355 559.819 117.728 560.722 117.547L562.349 118.451L562.71 116.282L561.987 113.752L563.795 111.041C564.518 108.511 559.096 105.981 557.65 107.426Z" fill="#333333"/>
<path d="M560.722 121.885C560.722 121.704 560.722 121.343 560.722 121.162V120.981C560.722 120.259 561.265 119.174 561.988 118.813L562.53 118.632C561.626 119.174 560.722 120.439 560.722 121.704C560.722 121.704 560.722 121.885 560.722 121.885Z" fill="#4D4D4D"/>
<path d="M563.252 124.054C562.891 123.873 562.71 123.512 562.71 122.789C562.71 121.704 563.433 120.258 564.518 119.716C565.06 119.535 565.421 119.355 565.783 119.535L563.614 118.27C563.252 118.09 562.891 118.09 562.349 118.451C561.445 118.993 560.541 120.258 560.541 121.524C560.541 122.066 560.722 122.427 561.084 122.789L563.252 124.054Z" fill="black"/>
<path d="M564.518 119.717C565.422 119.175 566.326 119.717 566.145 120.801C566.145 121.886 565.422 123.331 564.338 123.874C563.434 124.416 562.53 123.874 562.711 122.789C562.711 121.705 563.615 120.259 564.518 119.717Z" fill="#4D4D4D"/>
<path d="M559.097 128.572C559.097 129.837 558.194 131.283 557.29 131.825L550.061 135.982C549.518 136.343 548.976 136.343 548.615 135.982C548.615 135.982 548.615 135.982 548.795 136.163L545.542 134.355C545.181 134.175 545 133.813 545 133.09V129.114C545 127.849 545.904 126.403 546.807 125.861L554.037 121.704C554.579 121.343 555.121 121.343 555.302 121.523L558.555 123.331C558.917 123.511 559.097 123.873 559.097 124.596V128.572ZM548.253 135.982C548.253 135.982 548.253 135.801 548.253 135.982C548.253 135.801 548.253 135.982 548.253 135.982ZM548.073 135.259C548.073 135.078 548.073 135.078 548.073 134.898C547.892 135.078 547.892 135.259 548.073 135.259ZM548.073 135.62V135.44V135.62ZM557.471 123.331C557.471 123.331 557.651 123.331 557.471 123.331C557.651 123.331 557.471 123.331 557.471 123.331ZM558.013 123.15C558.013 123.15 557.832 123.15 558.013 123.15C557.832 123.15 558.013 123.15 558.013 123.15ZM558.194 123.15C558.194 123.331 558.194 123.331 558.194 123.15C558.194 123.331 558.194 123.331 558.194 123.15Z" fill="#406882"/>
<path d="M567.593 115.74L577.353 121.342C576.81 121.162 576.268 121.162 575.545 121.523L565.786 115.92C566.509 115.559 567.232 115.378 567.593 115.74Z" fill="#6998AB"/>
<path d="M559.459 147.729L549.699 142.127C549.338 141.946 549.157 141.584 548.976 141.042L558.736 146.645C558.736 147.187 559.097 147.549 559.459 147.729Z" fill="#004759"/>
<path d="M565.966 127.126L556.206 121.523L565.966 115.921L575.725 121.523L565.966 127.126Z" fill="#6998AB"/>
<path d="M564.882 128.21L555.122 122.608C555.483 122.246 555.845 121.885 556.206 121.704L565.966 127.307C565.605 127.487 565.243 127.668 564.882 128.21Z" fill="#6998AB"/>
<path d="M558.737 146.645L548.978 140.862L547.532 133.271L557.472 139.054L558.737 146.645Z" fill="#004759"/>
<path d="M558.737 135.079L548.978 129.476L555.123 122.427L564.882 128.211L558.737 135.079Z" fill="#004759"/>
<path d="M558.737 135.079L548.978 129.476L555.123 122.427L564.882 128.211L558.737 135.079Z" fill="#6998AB"/>
<path d="M552.23 127.849L554.76 124.957C555.122 124.415 555.845 124.415 556.387 124.596L561.267 127.488C561.99 127.849 562.17 128.933 561.628 129.476L559.098 132.367C558.737 132.91 558.014 132.91 557.471 132.729L552.592 129.837C551.869 129.476 551.688 128.572 552.23 127.849Z" fill="#004759"/>
<path d="M557.472 139.054L547.713 133.451C547.532 132.367 548.074 130.74 548.978 129.475L558.737 135.078C557.653 136.343 557.111 137.789 557.472 139.054Z" fill="#6998AB"/>
<path d="M575.726 121.523C577.172 120.8 578.257 121.342 578.257 122.969V134.717C578.257 136.343 577.172 138.331 575.726 139.054L561.268 147.368C560.003 148.091 558.918 147.73 558.737 146.464L557.472 138.874C557.292 137.789 557.834 136.163 558.737 134.897L564.882 127.849C565.244 127.487 565.605 127.126 565.967 126.945L575.726 121.523Z" fill="#406882"/>
<path d="M563.253 144.838C562.168 144.838 561.988 143.211 562.891 142.488L564.518 141.404C565.241 140.862 565.602 139.777 565.602 138.512V128.572C565.602 127.488 564.518 125.861 563.434 125.319L554.035 119.897C553.493 119.535 553.132 119.535 553.132 119.716C553.132 119.716 553.132 119.897 553.132 120.077V123.873C553.132 124.957 550.782 124.957 550.782 123.873V120.077C550.782 118.993 551.324 118.089 552.047 117.728C552.951 117.186 554.035 117.366 555.301 117.909L564.699 123.331C566.506 124.415 567.952 126.765 567.952 128.572V138.512C567.952 140.681 567.229 142.308 565.783 143.392L564.157 144.476C563.976 144.657 563.434 144.838 563.253 144.838Z" fill="black"/>
<path d="M578.798 137.79L572.653 141.224C572.833 141.043 573.014 140.863 573.014 140.501L579.159 137.067C579.159 137.248 579.159 137.609 578.798 137.79Z" fill="#007694"/>
<path d="M570.123 130.741L576.268 127.127L578.075 128.211L571.93 131.645L570.123 130.741Z" fill="#6998AB"/>
<path d="M573.195 133.633L579.159 130.199V136.887L573.195 140.501V133.633Z" fill="#007694"/>
<path d="M571.93 131.645L578.074 128.211C578.797 128.573 579.34 129.476 579.34 130.199L573.195 133.633C573.195 132.91 572.652 132.007 571.93 131.645Z" fill="#6998AB"/>
<path d="M573.193 140.501C573.193 141.224 572.651 141.586 571.928 141.224L570.121 140.321V130.922L571.928 131.826C572.651 132.188 573.193 133.091 573.193 133.814V140.501Z" fill="#004759"/>
<path d="M577.894 133.452L574.821 135.259C574.46 135.44 574.279 135.259 574.279 135.079C574.279 134.898 574.46 134.356 574.821 134.175L577.894 132.368C578.255 132.187 578.436 132.368 578.436 132.548C578.436 132.91 578.075 133.452 577.894 133.452Z" fill="white"/>
<path d="M567.048 117.005C567.228 117.186 567.228 117.186 567.048 117.367L564.698 118.632C564.517 118.632 564.337 118.632 564.156 118.632C563.975 118.451 563.975 118.451 564.156 118.27L566.505 117.005C566.686 116.824 567.048 116.824 567.048 117.005Z" fill="#1A1A1A"/>
<path d="M567.952 117.367C568.133 117.547 568.133 117.547 567.952 117.728L565.602 118.993C565.422 118.993 565.241 118.993 565.06 118.993C564.88 118.812 564.88 118.812 565.06 118.632L567.41 117.367C567.591 117.367 567.952 117.367 567.952 117.367Z" fill="#1A1A1A"/>
<path d="M568.856 117.909C569.036 118.09 569.036 118.09 568.856 118.271L566.506 119.536C566.325 119.536 566.145 119.536 565.964 119.536C565.783 119.355 565.783 119.355 565.964 119.174L568.313 117.909C568.494 117.909 568.675 117.909 568.856 117.909Z" fill="#1A1A1A"/>
<path d="M569.759 118.451C569.94 118.632 569.94 118.632 569.759 118.812L567.41 120.078C567.229 120.078 567.048 120.078 566.867 120.078C566.687 119.897 566.687 119.897 566.867 119.716L569.217 118.451C569.398 118.451 569.578 118.451 569.759 118.451Z" fill="#1A1A1A"/>
<path d="M570.663 118.993C570.844 119.174 570.844 119.174 570.663 119.355L568.313 120.62C568.133 120.62 567.952 120.62 567.771 120.62C567.59 120.439 567.59 120.439 567.771 120.259L570.121 118.993C570.301 118.813 570.482 118.813 570.663 118.993Z" fill="#1A1A1A"/>
<path d="M571.566 119.535C571.747 119.716 571.747 119.716 571.566 119.897L569.217 121.162C569.036 121.162 568.855 121.162 568.675 121.162C568.494 120.981 568.494 120.981 568.675 120.8L571.024 119.535C571.205 119.355 571.386 119.355 571.566 119.535Z" fill="#1A1A1A"/>
<path d="M572.47 120.078C572.651 120.259 572.651 120.259 572.47 120.439L570.121 121.704C569.94 121.704 569.759 121.704 569.578 121.704C569.398 121.524 569.398 121.524 569.578 121.343L571.928 120.078C572.109 119.897 572.289 119.897 572.47 120.078Z" fill="#1A1A1A"/>
<path d="M573.374 120.62C573.554 120.801 573.554 120.801 573.374 120.982L571.024 122.247C570.843 122.247 570.663 122.247 570.482 122.247C570.301 122.066 570.301 122.066 570.482 121.885L572.831 120.62C573.012 120.439 573.193 120.439 573.374 120.62Z" fill="#1A1A1A"/>
<path d="M571.387 128.753C571.026 128.572 570.845 128.211 570.845 127.488C570.845 126.403 571.568 124.957 572.652 124.415C573.195 124.234 573.556 124.054 573.918 124.234L575.906 125.319C576.267 125.5 576.448 126.222 576.267 125.861L576.448 126.403L586.388 132.006C586.569 132.006 586.569 132.006 586.75 131.825C587.111 131.644 587.473 131.644 587.834 131.825L589.822 132.91C590.184 133.09 590.364 133.452 590.364 134.175C590.364 135.259 589.641 136.705 588.557 137.247C588.015 137.428 587.653 137.609 587.292 137.428C586.75 137.067 585.846 136.524 585.123 136.163C584.942 135.982 584.762 135.801 584.581 135.259C584.581 135.078 584.581 135.078 584.581 134.898C583.858 134.536 575.363 129.656 574.64 129.295L574.098 129.476C574.46 129.476 573.737 129.656 573.375 129.476C572.652 129.476 571.929 128.933 571.387 128.753Z" fill="#E6BA8A"/>
<path d="M573.375 129.837C573.014 129.656 572.833 129.295 572.833 128.572C572.833 127.487 573.556 126.042 574.641 125.499C575.183 125.319 575.544 125.138 575.906 125.319L573.918 124.234C573.556 124.053 573.195 124.053 572.653 124.415C571.749 124.957 570.845 126.222 570.845 127.487C570.845 128.03 571.026 128.391 571.387 128.753L573.375 129.837Z" fill="black"/>
<path d="M574.098 129.837C574.279 129.837 574.279 129.837 574.279 129.837C574.279 129.837 574.279 129.837 574.46 129.837H574.641C574.641 129.837 574.641 129.837 574.821 129.837H575.002C575.002 129.837 575.002 129.837 575.183 129.837H575.363C574.821 130.018 574.46 129.657 574.46 128.934C574.46 128.211 575.002 127.126 575.725 126.765C576.267 126.403 576.809 126.584 576.809 127.126V126.946C576.809 126.946 576.809 126.946 576.809 126.765V126.584C576.809 126.584 576.809 126.584 576.809 126.403V126.223C576.809 126.223 576.809 126.223 576.809 126.042V125.861C576.629 125.138 575.906 124.958 575.183 125.319C574.279 125.861 573.375 127.126 573.375 128.392C572.833 129.657 573.375 130.018 574.098 129.837Z" fill="#4D4D4D"/>
<path d="M584.763 135.62C584.582 135.439 584.401 135.259 584.401 134.716C584.401 133.993 584.943 132.909 585.666 132.548C586.028 132.367 586.208 132.367 586.57 132.548L576.268 126.583C576.087 126.403 575.726 126.403 575.364 126.583C574.641 126.945 574.099 127.848 574.099 128.752C574.099 129.114 574.28 129.475 574.461 129.656L584.763 135.62Z" fill="black"/>
<path d="M584.581 135.621C584.581 135.44 584.581 135.079 584.4 134.898V134.717C584.4 133.994 584.942 132.91 585.665 132.548L586.208 132.368C585.304 132.91 584.4 134.175 584.4 135.44C584.581 135.44 584.581 135.621 584.581 135.621Z" fill="#4D4D4D"/>
<path d="M587.11 137.789C586.749 137.608 586.568 137.247 586.568 136.524C586.568 135.439 587.291 133.993 588.375 133.451C588.918 133.27 589.279 133.09 589.641 133.27L587.472 132.005C587.11 131.825 586.749 131.825 586.207 132.186C585.303 132.728 584.399 133.993 584.399 135.259C584.399 135.801 584.58 136.162 584.942 136.524L587.11 137.789Z" fill="black"/>
<path d="M588.375 133.632C589.279 133.09 590.182 133.632 590.002 134.717C590.002 135.801 589.279 137.247 588.194 137.789C587.291 138.331 586.387 137.789 586.568 136.705C586.748 135.44 587.471 134.175 588.375 133.632Z" fill="#4D4D4D"/>
<path d="M583.858 121.162L580.243 123.512L576.267 126.403L575.002 130.922L574.64 133.633L575.544 135.078L576.448 135.44L577.351 136.344L578.797 136.886L579.701 137.789L581.689 137.609L583.135 137.789L584.4 136.524C584.4 136.524 584.039 134.175 584.761 133.452C585.484 132.729 586.388 132.367 586.388 132.367L587.292 130.379L587.111 128.753L589.099 127.668C590.726 125.861 587.111 119.355 583.858 121.162Z" fill="#333333"/>
</svg>
