<svg width="578" height="281" viewBox="0 0 578 281" fill="none" xmlns="http://www.w3.org/2000/svg">
<path d="M443.203 199.616C443.945 199.616 450.006 194.978 452.944 192.659L457.118 195.442L454.915 197.297L486.34 215.387L481.702 218.634L451.059 200.544L448.305 202.863L443.203 199.616Z" fill="#252A34"/>
<path d="M481.702 222.344V218.634L455.263 202.863L454.335 206.11L481.702 222.344Z" fill="black"/>
<path d="M479.846 196.369C476.135 198.688 468.621 203.42 468.25 203.791L468.713 192.195L481.237 184.309L479.846 196.369Z" fill="black"/>
<path d="M461.821 168.196C458.823 166.424 456.098 166.288 454.054 167.378L448.194 170.785C446.286 171.875 445.059 174.328 445.059 177.735C445.059 184.685 449.829 192.998 455.961 196.541C459.232 198.449 462.094 198.449 464.002 197.086C463.865 197.222 463.729 197.223 463.593 197.359L469.453 193.952C471.361 192.862 472.587 190.409 472.587 187.002C472.587 180.188 467.817 171.739 461.821 168.196Z" fill="black"/>
<path d="M445.059 177.871C445.059 184.821 449.829 193.134 455.961 196.677C461.957 200.084 466.863 197.359 466.863 190.409C466.863 183.458 462.094 175.146 455.961 171.602C449.965 168.195 445.059 171.057 445.059 177.871ZM455.825 192.861C451.6 190.409 448.194 184.549 448.194 179.779C448.194 175.009 451.6 172.965 455.825 175.418C460.05 177.871 463.456 183.731 463.456 188.501C463.456 193.407 460.05 195.314 455.825 192.861Z" fill="#333333"/>
<path d="M448.33 179.779C448.33 184.549 451.737 190.409 455.962 192.862C460.186 195.314 463.593 193.407 463.593 188.501C463.593 183.731 460.186 177.735 455.962 175.418C451.737 172.965 448.33 175.009 448.33 179.779Z" fill="#CCCCCC"/>
<path d="M461.821 168.196C458.823 166.424 456.097 166.288 454.053 167.378L448.193 170.785C450.237 169.695 452.963 169.831 455.961 171.603C461.957 175.009 466.863 183.459 466.863 190.409C466.863 193.816 465.637 196.269 463.729 197.359L469.589 193.952C471.497 192.862 472.723 190.409 472.723 187.002C472.587 180.188 467.817 171.739 461.821 168.196Z" fill="black"/>
<path d="M460.594 189.455C461.003 188.91 461.139 188.092 461.139 187.138C461.139 183.731 458.822 179.779 455.961 178.007C455.143 177.462 454.325 177.326 453.644 177.326C451.872 177.326 450.646 178.689 450.646 181.006C450.646 184.412 452.963 188.364 455.824 190.136C457.868 191.363 459.776 191.09 460.594 189.455Z" fill="white"/>
<path d="M460.594 189.455C461.003 188.91 461.139 188.092 461.139 187.138C461.139 183.731 458.822 179.779 455.961 178.007C455.143 177.462 454.325 177.326 453.644 177.326C453.235 177.871 453.099 178.689 453.099 179.643C453.099 183.05 455.415 187.002 458.277 188.773C459.095 189.318 459.913 189.591 460.594 189.455Z" fill="#B3B3B3"/>
<path d="M432.135 151.497C429.137 149.726 426.411 149.59 424.367 150.68L418.507 154.087C416.599 155.177 415.373 157.63 415.373 161.037C415.373 167.987 420.143 176.3 426.275 179.843C429.546 181.751 432.408 181.751 434.315 180.388C434.179 180.524 434.043 180.524 433.907 180.661L439.766 177.254C441.674 176.163 442.901 173.71 442.901 170.304C442.901 163.49 438.131 155.041 432.135 151.497Z" fill="black"/>
<path d="M415.372 161.173C415.372 168.123 420.142 176.436 426.274 179.98C432.271 183.386 437.177 180.661 437.177 173.711C437.177 166.761 432.407 158.448 426.274 154.905C420.278 151.498 415.372 154.36 415.372 161.173ZM426.138 176.164C421.914 173.711 418.507 167.851 418.507 163.081C418.507 158.312 421.914 156.267 426.138 158.72C430.363 161.173 433.77 167.033 433.77 171.803C433.77 176.709 430.363 178.617 426.138 176.164Z" fill="#333333"/>
<path d="M418.643 163.081C418.643 167.85 422.05 173.71 426.275 176.163C430.499 178.616 433.906 176.708 433.906 171.802C433.906 167.033 430.499 161.037 426.275 158.72C422.05 156.267 418.643 158.311 418.643 163.081Z" fill="#CCCCCC"/>
<path d="M432.135 151.497C429.137 149.726 426.412 149.59 424.367 150.68L418.508 154.087C420.552 152.996 423.277 153.133 426.275 154.904C432.271 158.311 437.177 166.76 437.177 173.71C437.177 177.117 435.951 179.57 434.043 180.661L439.903 177.254C441.811 176.163 443.037 173.71 443.037 170.304C442.901 163.49 438.131 155.041 432.135 151.497Z" fill="black"/>
<path d="M430.91 172.756C431.318 172.211 431.455 171.394 431.455 170.44C431.455 167.033 429.138 163.081 426.276 161.309C425.459 160.764 424.641 160.628 423.959 160.628C422.188 160.628 420.961 161.991 420.961 164.307C420.961 167.714 423.278 171.666 426.14 173.438C428.184 174.664 430.092 174.392 430.91 172.756Z" fill="white"/>
<path d="M430.91 172.756C431.318 172.211 431.455 171.394 431.455 170.44C431.455 167.033 429.138 163.081 426.276 161.309C425.459 160.764 424.641 160.628 423.959 160.628C423.551 161.173 423.414 161.991 423.414 162.945C423.414 166.351 425.731 170.303 428.593 172.075C429.411 172.62 430.228 172.893 430.91 172.756Z" fill="#B3B3B3"/>
<mask id="mask0_420_19919" style="mask-type:alpha" maskUnits="userSpaceOnUse" x="358" y="137" width="124" height="88">
<path d="M443.202 211.241L441.81 222.373L436.244 224.692L358.783 188.976V157.899C374.708 151.715 407.486 139.067 411.197 137.954C414.908 136.841 462.219 169.931 481.237 184.774L469.177 192.192L468.249 203.791L455.726 202.892L443.202 211.241Z" fill="black"/>
</mask>
<g mask="url(#mask0_420_19919)">
<path d="M426.872 198.872L416.111 205.18V192.656L426.872 198.872Z" fill="#3A4352"/>
<path d="M394.776 181.524L481.699 231.155V243.586L426.41 212.23C426.317 207.221 422.235 200.913 417.226 198.037C412.216 195.161 408.227 196.831 408.042 201.655L394.498 193.862L394.776 181.524Z" fill="#252A34"/>
<path d="M393.29 180.318L382.436 186.534V174.103L393.29 180.318Z" fill="#3A4352"/>
<path d="M396.167 194.605L393.013 192.749C392.92 187.74 388.838 181.431 383.829 178.556C378.819 175.68 374.83 177.35 374.645 182.174L361.101 174.381L361.286 162.043L395.332 181.71C395.425 185.977 395.889 190.337 396.167 194.605Z" fill="#252A34"/>
<path d="M388.932 147.664V160.188L511.385 228.372C511.385 228.372 516.488 213.436 516.488 213.065C516.488 212.694 429.131 170.547 388.932 147.664Z" fill="black"/>
<path d="M373.625 156.477L361.101 162.421L481.236 232.461L490.049 222.257L373.625 156.477Z" fill="#666666"/>
<path d="M400.528 142.562L388.932 147.579L516.024 217.704L519.735 205.644L400.528 142.562Z" fill="#666666"/>
</g>
<path d="M534.486 200.451V208.893C534.486 209.264 535.135 209.264 535.414 209.264L536.341 207.223C536.712 206.852 536.898 206.017 536.991 205.461V198.596C536.991 198.318 537.269 198.039 537.176 198.039C537.083 197.947 536.805 197.947 536.712 198.039L534.857 199.616C534.671 199.616 534.486 200.08 534.486 200.451Z" fill="#194B73"/>
<path d="M535.228 200.451V208.893C535.228 209.264 535.321 209.357 535.506 209.079L536.805 207.131C537.083 206.759 537.269 205.925 537.361 205.368V198.503C537.361 198.039 537.176 197.761 536.99 198.039L535.599 199.524C535.413 199.616 535.228 200.08 535.228 200.451Z" fill="#235885"/>
<path d="M522.982 221.88L482.164 245.443V231.714L522.982 208.151V221.88Z" fill="#3A4352"/>
<path d="M497.072 238.235C494.074 236.464 491.348 236.327 489.304 237.418L483.444 240.825C481.536 241.915 480.31 244.368 480.31 247.775C480.31 254.725 485.079 263.038 491.212 266.581C494.482 268.489 497.344 268.489 499.252 267.126C499.116 267.262 498.98 267.262 498.843 267.398L504.703 263.992C506.611 262.901 507.837 260.448 507.837 257.041C507.837 250.228 503.068 241.779 497.072 238.235Z" fill="black"/>
<path d="M480.31 247.911C480.31 254.861 485.079 263.174 491.212 266.717C497.208 270.124 502.114 267.398 502.114 260.448C502.114 253.498 497.344 245.185 491.212 241.642C485.215 238.235 480.31 241.097 480.31 247.911ZM491.075 262.901C486.851 260.448 483.444 254.588 483.444 249.819C483.444 245.049 486.851 243.005 491.075 245.458C495.3 247.911 498.707 253.771 498.707 258.54C498.707 263.446 495.3 265.354 491.075 262.901Z" fill="#333333"/>
<path d="M483.58 249.819C483.58 254.588 486.987 260.448 491.212 262.901C495.436 265.354 498.843 263.446 498.843 258.54C498.843 253.771 495.436 247.775 491.212 245.458C486.987 243.005 483.58 245.049 483.58 249.819Z" fill="#CCCCCC"/>
<path d="M497.071 238.235C494.073 236.464 491.348 236.328 489.304 237.418L483.444 240.825C485.488 239.734 488.213 239.871 491.211 241.642C497.208 245.049 502.113 253.498 502.113 260.448C502.113 263.855 500.887 266.308 498.979 267.399L504.839 263.992C506.747 262.901 507.973 260.448 507.973 257.042C507.837 250.228 503.067 241.779 497.071 238.235Z" fill="black"/>
<path d="M495.844 259.494C496.253 258.949 496.389 258.131 496.389 257.177C496.389 253.77 494.073 249.818 491.211 248.047C490.393 247.502 489.576 247.365 488.894 247.365C487.123 247.365 485.896 248.728 485.896 251.045C485.896 254.452 488.213 258.404 491.075 260.175C493.119 261.402 495.027 261.129 495.844 259.494Z" fill="white"/>
<path d="M495.844 259.494C496.253 258.949 496.389 258.131 496.389 257.177C496.389 253.77 494.073 249.818 491.211 248.047C490.393 247.502 489.576 247.365 488.894 247.365C488.485 247.91 488.349 248.728 488.349 249.682C488.349 253.089 490.666 257.041 493.528 258.813C494.345 259.358 495.163 259.63 495.844 259.494Z" fill="#B3B3B3"/>
<path d="M415.436 192.316C412.438 190.544 409.713 190.408 407.668 191.498L401.808 194.905C399.901 195.995 398.674 198.448 398.674 201.855C398.674 208.805 403.444 217.118 409.576 220.661C412.847 222.569 415.709 222.569 417.617 221.206C417.48 221.342 417.344 221.342 417.208 221.479L423.068 218.072C424.975 216.982 426.202 214.529 426.202 211.122C426.202 204.308 421.432 195.859 415.436 192.316Z" fill="black"/>
<path d="M398.673 201.99C398.673 208.941 403.443 217.253 409.576 220.797C415.572 224.204 420.478 221.478 420.478 214.528C420.478 207.578 415.708 199.265 409.576 195.722C403.579 192.315 398.673 195.177 398.673 201.99ZM409.439 216.981C405.215 214.528 401.808 208.668 401.808 203.898C401.808 199.129 405.215 197.085 409.439 199.538C413.664 201.99 417.071 207.85 417.071 212.62C417.071 217.526 413.664 219.434 409.439 216.981Z" fill="#333333"/>
<path d="M401.944 203.899C401.944 208.669 405.351 214.528 409.576 216.981C413.8 219.434 417.207 217.527 417.207 212.621C417.207 207.851 413.8 201.855 409.576 199.538C405.351 197.085 401.944 199.129 401.944 203.899Z" fill="#CCCCCC"/>
<path d="M415.436 192.315C412.438 190.544 409.713 190.407 407.669 191.498L401.809 194.905C403.853 193.814 406.578 193.951 409.576 195.722C415.573 199.129 420.479 207.578 420.479 214.528C420.479 217.935 419.252 220.388 417.344 221.478L423.204 218.072C425.112 216.981 426.338 214.528 426.338 211.121C426.202 204.308 421.432 195.858 415.436 192.315Z" fill="black"/>
<path d="M414.211 213.575C414.619 213.029 414.756 212.212 414.756 211.258C414.756 207.851 412.439 203.899 409.577 202.127C408.76 201.582 407.942 201.446 407.261 201.446C405.489 201.446 404.262 202.809 404.262 205.125C404.262 208.532 406.579 212.484 409.441 214.256C411.485 215.482 413.393 215.21 414.211 213.575Z" fill="white"/>
<path d="M414.211 213.575C414.619 213.029 414.756 212.212 414.756 211.258C414.756 207.851 412.439 203.899 409.577 202.127C408.76 201.582 407.942 201.446 407.261 201.446C406.852 201.991 406.715 202.809 406.715 203.763C406.715 207.17 409.032 211.122 411.894 212.893C412.712 213.438 413.529 213.711 414.211 213.575Z" fill="#B3B3B3"/>
<path d="M385.751 175.617C382.753 173.846 380.027 173.709 377.983 174.799L372.123 178.206C370.215 179.297 368.989 181.75 368.989 185.157C368.989 192.107 373.759 200.419 379.891 203.963C383.162 205.871 386.023 205.87 387.931 204.508C387.795 204.644 387.659 204.644 387.522 204.78L393.382 201.373C395.29 200.283 396.517 197.83 396.517 194.423C396.517 187.609 391.747 179.16 385.751 175.617Z" fill="black"/>
<path d="M368.989 185.292C368.989 192.242 373.759 200.555 379.891 204.098C385.887 207.505 390.793 204.78 390.793 197.83C390.793 190.879 386.024 182.567 379.891 179.023C373.895 175.617 368.989 178.478 368.989 185.292ZM379.755 200.283C375.53 197.83 372.123 191.97 372.123 187.2C372.123 182.43 375.53 180.386 379.755 182.839C383.979 185.292 387.386 191.152 387.386 195.922C387.386 200.828 383.979 202.735 379.755 200.283Z" fill="#333333"/>
<path d="M372.26 187.201C372.26 191.97 375.667 197.83 379.891 200.283C384.116 202.736 387.523 200.828 387.523 195.922C387.523 191.153 384.116 185.156 379.891 182.84C375.667 180.387 372.26 182.431 372.26 187.201Z" fill="#CCCCCC"/>
<path d="M385.75 175.617C382.752 173.846 380.026 173.709 377.982 174.799L372.122 178.206C374.166 177.116 376.892 177.252 379.89 179.024C385.886 182.431 390.792 190.88 390.792 197.83C390.792 201.237 389.565 203.69 387.657 204.78L393.517 201.373C395.425 200.283 396.652 197.83 396.652 194.423C396.515 187.609 391.746 179.16 385.75 175.617Z" fill="black"/>
<path d="M384.524 196.876C384.933 196.331 385.069 195.513 385.069 194.559C385.069 191.153 382.752 187.201 379.89 185.429C379.073 184.884 378.255 184.748 377.574 184.748C375.802 184.748 374.576 186.11 374.576 188.427C374.576 191.834 376.892 195.786 379.754 197.558C381.798 198.784 383.706 198.511 384.524 196.876Z" fill="white"/>
<path d="M384.524 196.876C384.933 196.331 385.069 195.513 385.069 194.559C385.069 191.153 382.752 187.201 379.89 185.429C379.073 184.884 378.255 184.748 377.574 184.748C377.165 185.293 377.029 186.11 377.029 187.064C377.029 190.471 379.345 194.423 382.207 196.195C383.025 196.74 383.842 197.012 384.524 196.876Z" fill="#B3B3B3"/>
<path d="M536.033 215.971C533.035 214.2 530.31 214.064 528.266 215.154L522.406 218.561C520.498 219.651 519.271 222.104 519.271 225.511C519.271 232.461 524.041 240.774 530.174 244.317C533.444 246.225 536.306 246.225 538.214 244.862C538.078 244.998 537.941 244.998 537.805 245.135L543.665 241.728C545.573 240.637 546.799 238.184 546.799 234.778C546.799 227.964 542.03 219.515 536.033 215.971Z" fill="black"/>
<path d="M519.273 225.646C519.273 232.597 524.042 240.909 530.175 244.453C536.171 247.86 541.077 245.134 541.077 238.184C541.077 231.234 536.307 222.921 530.175 219.378C524.179 215.971 519.273 218.833 519.273 225.646ZM530.038 240.637C525.814 238.184 522.407 232.324 522.407 227.554C522.407 222.785 525.814 220.741 530.038 223.194C534.263 225.646 537.67 231.506 537.67 236.276C537.67 241.182 534.263 243.09 530.038 240.637Z" fill="#333333"/>
<path d="M522.542 227.555C522.542 232.325 525.949 238.184 530.173 240.637C534.398 243.09 537.805 241.183 537.805 236.277C537.805 231.507 534.398 225.511 530.173 223.194C525.949 220.741 522.542 222.785 522.542 227.555Z" fill="#CCCCCC"/>
<path d="M536.033 215.971C533.035 214.2 530.31 214.064 528.265 215.154L522.406 218.561C524.45 217.47 527.175 217.607 530.173 219.378C536.169 222.785 541.075 231.234 541.075 238.184C541.075 241.591 539.849 244.044 537.941 245.135L543.801 241.728C545.709 240.637 546.935 238.184 546.935 234.778C546.799 227.964 542.029 219.515 536.033 215.971Z" fill="black"/>
<path d="M534.808 237.231C535.217 236.685 535.353 235.868 535.353 234.914C535.353 231.507 533.036 227.555 530.174 225.783C529.357 225.238 528.539 225.102 527.858 225.102C526.086 225.102 524.86 226.465 524.86 228.781C524.86 232.188 527.176 236.14 530.038 237.912C532.082 239.138 533.99 238.866 534.808 237.231Z" fill="white"/>
<path d="M534.808 237.231C535.217 236.685 535.353 235.868 535.353 234.914C535.353 231.507 533.036 227.555 530.174 225.783C529.357 225.238 528.539 225.102 527.858 225.102C527.449 225.647 527.313 226.465 527.313 227.419C527.313 230.826 529.629 234.778 532.491 236.549C533.309 237.094 534.126 237.367 534.808 237.231Z" fill="#B3B3B3"/>
<path d="M504.151 239.414C518.715 232.642 531.703 225.499 541.722 217.799C541.629 217.706 540.237 210.656 540.237 210.656C530.497 217.984 517.602 225.406 502.759 232.271L504.151 239.414Z" fill="#194B73"/>
<path d="M502.203 232.211L502.481 232.489C517.046 225.903 529.94 218.76 539.959 210.874L539.681 210.596L528.085 189.538L490.607 211.153L502.203 232.211Z" fill="white"/>
<path d="M492.276 211.305C505.542 205.09 517.602 198.318 527.992 190.711L538.753 210.377C529.012 217.706 516.767 224.478 503.037 230.972L492.276 211.305Z" fill="#6998AB"/>
<g opacity="0.5">
<path d="M521.498 196.369C520.849 196.833 520.2 197.204 519.55 197.668L529.476 215.479C530.126 215.108 530.775 214.644 531.332 214.273L521.498 196.369Z" fill="white"/>
</g>
<g opacity="0.5">
<path d="M526.322 193.122C525.116 193.957 523.91 194.792 522.704 195.627L532.538 213.531C533.744 212.696 534.95 211.861 536.063 211.026L526.322 193.122Z" fill="white"/>
</g>
<path d="M509.345 226.89C509.159 226.89 509.067 226.797 508.974 226.705C508.881 226.519 508.974 226.241 509.159 226.148C512.685 224.385 515.932 222.623 519.086 220.86C519.271 220.767 519.549 220.86 519.642 221.046C519.735 221.231 519.642 221.51 519.457 221.602C516.395 223.365 513.056 225.127 509.531 226.89C509.531 226.89 509.438 226.89 509.345 226.89Z" fill="black"/>
<path d="M522.703 219.654C522.611 219.654 522.425 219.561 522.332 219.469C522.24 219.283 522.332 219.005 522.518 218.912C525.301 217.242 527.991 215.665 530.496 213.995C530.682 213.903 530.96 213.903 531.053 214.088C531.145 214.274 531.145 214.552 530.96 214.645C528.455 216.315 525.765 217.892 522.889 219.561C522.889 219.654 522.796 219.654 522.703 219.654Z" fill="black"/>
<path d="M514.634 223.922C514.541 223.922 514.448 223.829 514.448 223.736C514.448 223.643 514.448 223.55 514.634 223.458L519.829 222.344C519.922 222.344 520.014 222.344 520.107 222.53C520.107 222.623 520.107 222.716 519.922 222.808L514.634 223.922C514.634 223.922 514.727 223.922 514.634 223.922Z" fill="black"/>
<path d="M525.765 217.613C525.672 217.613 525.58 217.52 525.58 217.427C525.58 217.335 525.58 217.242 525.765 217.149L530.96 216.036C531.053 216.036 531.146 216.036 531.239 216.221C531.239 216.314 531.239 216.407 531.053 216.5L525.765 217.613Z" fill="black"/>
<path d="M507.306 173.177C507.955 172.806 508.697 172.806 509.254 173.177L518.067 178.279C521.87 180.506 525.488 184.309 527.9 188.669L528.364 189.504C517.139 197.482 504.523 204.625 490.886 211.119L490.422 210.284C488.01 205.924 484.392 202.121 480.589 199.894L470.384 194.421L507.306 173.177Z" fill="#194B73"/>
<path d="M504.244 243.032L504.151 242.939C504.244 242.846 504.244 242.939 504.244 243.032Z" fill="#3A4352"/>
<path d="M542.851 233.94C543.222 235.146 543.129 236.074 542.851 237.28C533.018 245.351 520.123 252.401 505.373 258.895C505.651 257.689 505.28 256.854 505.373 255.555C519.937 249.061 532.739 241.918 542.851 233.94Z" fill="#252A34"/>
<path d="M470.012 197.019V238.393L482.165 245.443C482.165 244.237 482.443 243.31 482.907 242.568C483.092 242.197 483.278 241.918 483.556 241.64C485.226 239.97 488.009 239.97 491.256 241.826C491.349 241.918 491.441 241.918 491.534 242.011C494.41 243.774 496.915 246.649 498.492 249.711C498.956 250.546 499.327 251.381 499.605 252.216C500.069 253.514 500.347 254.813 500.347 256.019L500.904 256.39L505.449 259.08L506.099 259.451C507.026 255.648 503.965 242.939 503.965 242.939C503.965 242.846 502.481 235.796 502.481 235.796L502.202 235.517L490.606 214.459L490.143 213.624C487.731 209.264 484.113 205.46 480.309 203.234L470.012 197.019Z" fill="#252A34"/>
<path d="M470.012 194.978V235.053L482.999 242.568C483.185 242.197 483.371 241.918 483.649 241.64C485.319 239.97 488.102 239.97 491.349 241.825C491.441 241.918 491.534 241.918 491.627 242.011C494.503 243.774 497.007 246.649 498.584 249.711C499.048 250.546 499.419 251.381 499.698 252.215L501.089 252.958L503.408 242.568V242.475L504.058 239.506L502.574 232.363L502.295 232.085L490.699 211.026L490.235 210.192C487.823 205.831 484.205 202.028 480.402 199.802L470.94 194.328C470.661 193.957 470.012 194.328 470.012 194.978Z" fill="#235885"/>
<path d="M542.557 221.045C542.279 220.025 541.722 219.004 540.98 218.17C530.868 225.869 517.973 233.012 503.502 239.784C504.244 240.712 504.8 241.733 505.079 242.66C506.47 247.948 506.563 252.401 505.635 256.204C520.385 249.711 533.28 242.66 543.114 234.589C544.041 230.786 544.041 226.611 542.557 221.045Z" fill="#3A4352"/>
<path d="M498.492 249.433C498.585 249.525 498.585 249.618 498.585 249.711C499.048 250.546 499.42 251.381 499.698 252.216C499.791 252.494 499.883 252.772 499.976 253.051C502.017 254.071 504.893 255.555 506.099 255.926H506.192C507.119 252.123 507.027 247.67 505.635 242.382C505.357 241.362 504.8 240.341 504.058 239.506C504.058 239.506 503.594 239.692 502.945 239.97C502.481 240.156 502.11 240.341 501.739 240.62C500.533 241.455 499.698 242.753 499.42 244.238L498.492 249.433Z" fill="#252A34"/>
<path d="M473.538 201.564V235.425C473.538 235.61 473.723 235.888 473.909 235.981L482.165 240.712C482.258 240.62 482.351 240.527 482.443 240.341C483.557 239.228 485.134 238.579 486.803 238.579C488.473 238.579 490.329 239.135 492.184 240.248L492.555 240.434C493.854 241.176 495.06 242.197 496.173 243.31C496.173 241.733 496.173 240.527 496.173 240.527V223.921C496.173 223.829 496.173 223.736 496.08 223.643L488.566 210.006C488.473 209.913 488.38 209.821 488.288 209.728L477.712 203.605L473.816 201.379C473.63 201.286 473.538 201.379 473.538 201.564Z" fill="#194B73"/>
<path d="M495.151 223.736V226.89C495.151 227.075 494.966 227.168 494.78 227.075L474.835 215.572C474.65 215.479 474.464 215.201 474.464 215.016V203.141C474.464 202.956 474.65 202.863 474.835 202.956L475.114 203.141L487.823 210.47C487.916 210.563 488.008 210.655 488.101 210.748L495.059 223.457C495.151 223.643 495.151 223.643 495.151 223.736Z" fill="#11324E"/>
<path d="M495.151 223.736V226.612L475.485 215.294C475.299 215.202 475.114 214.923 475.114 214.738V203.234L487.823 210.563C487.916 210.656 488.008 210.749 488.101 210.841L495.059 223.551C495.151 223.643 495.151 223.643 495.151 223.736Z" fill="#6998AB"/>
<path d="M542.649 230.972C542.649 231.714 542.557 232.456 542.371 233.105C541.351 233.94 540.33 234.683 539.124 235.517C539.217 234.868 539.31 234.126 539.31 233.384C540.516 232.642 541.629 231.807 542.649 230.972Z" fill="#FFE0AB"/>
<path d="M513.892 250.082C512.593 250.731 511.294 251.288 509.903 251.937C509.996 251.195 510.088 250.546 509.996 249.804C511.387 249.154 512.686 248.598 513.985 247.948C513.985 248.69 513.892 249.433 513.892 250.082Z" fill="#FFE0AB"/>
<path d="M518.623 245.351C518.251 245.536 517.788 245.258 517.788 244.887C517.695 242.289 517.324 239.506 516.582 236.63V236.538C516.489 236.259 516.674 235.888 516.953 235.795C523.354 232.549 529.013 229.302 533.929 226.148C534.208 225.962 534.579 226.148 534.671 226.519C535.321 229.766 535.414 232.641 535.135 235.332C535.135 235.61 534.95 235.888 534.671 236.074C529.94 239.228 524.745 242.289 518.623 245.351Z" fill="#252A34"/>
<path d="M519.458 243.495C519.736 243.495 519.921 243.217 519.921 243.031C519.736 240.619 519.365 238.671 518.901 236.816C518.808 236.63 518.623 236.445 518.344 236.538C518.159 236.63 517.973 236.816 518.066 237.094C518.53 238.857 518.808 240.805 518.994 243.217C518.994 243.31 519.179 243.495 519.458 243.495Z" fill="black"/>
<path d="M520.478 235.796C520.385 235.61 520.2 235.518 520.014 235.61C519.829 235.703 519.736 235.889 519.736 236.167C520.107 237.837 520.385 239.599 520.571 241.548C520.571 241.733 520.664 242.011 520.664 242.197C520.756 242.382 520.942 242.568 521.128 242.475C521.406 242.475 521.499 242.197 521.499 242.011C521.313 239.878 521.128 238.115 520.756 236.445C520.571 236.26 520.571 235.981 520.478 235.796Z" fill="black"/>
<path d="M522.055 234.868C521.963 234.683 521.777 234.59 521.592 234.775C521.406 234.868 521.313 235.054 521.406 235.332C521.777 237.002 521.963 238.764 522.148 240.713C522.148 240.898 522.241 241.176 522.241 241.362C522.334 241.548 522.519 241.64 522.705 241.548C522.89 241.455 523.076 241.269 523.076 240.991C522.983 238.95 522.705 237.095 522.426 235.425C522.241 235.239 522.148 235.054 522.055 234.868Z" fill="black"/>
<path d="M523.632 233.94C523.539 233.755 523.354 233.755 523.168 233.847C522.983 233.94 522.983 234.219 522.983 234.404C523.354 236.167 523.539 237.836 523.632 239.877C523.632 240.063 523.725 240.341 523.818 240.527C523.91 240.712 524.096 240.712 524.281 240.62C524.467 240.527 524.56 240.341 524.56 240.063C524.467 238.022 524.281 236.259 523.91 234.497C523.91 234.219 523.725 234.033 523.632 233.94Z" fill="black"/>
<path d="M525.209 232.92C525.117 232.827 524.838 232.827 524.746 232.92C524.653 233.013 524.56 233.291 524.653 233.476C525.024 235.239 525.117 237.002 525.209 238.95C525.209 239.135 525.302 239.414 525.395 239.506C525.58 239.599 525.673 239.692 525.859 239.599C526.044 239.506 526.137 239.228 526.137 239.042C526.137 237.094 525.951 235.239 525.58 233.384C525.488 233.198 525.395 233.013 525.209 232.92Z" fill="black"/>
<path d="M526.879 231.992C526.694 231.9 526.508 231.992 526.415 232.085C526.323 232.271 526.323 232.456 526.323 232.642C526.601 234.404 526.787 236.167 526.787 238.115C526.787 238.301 526.879 238.579 527.065 238.672C527.25 238.764 527.436 238.764 527.529 238.672C527.621 238.579 527.714 238.301 527.714 238.115C527.714 236.167 527.529 234.311 527.25 232.456C527.158 232.271 526.972 232.085 526.879 231.992Z" fill="black"/>
<path d="M528.456 230.972C528.27 230.879 528.085 230.972 528.085 231.157C527.992 231.343 527.992 231.529 527.992 231.807C528.27 233.662 528.363 235.425 528.363 237.28C528.363 237.466 528.456 237.744 528.641 237.837C528.827 237.93 529.012 237.837 529.105 237.744C529.198 237.558 529.291 237.373 529.291 237.095C529.291 235.147 529.198 233.384 528.92 231.436C528.734 231.25 528.641 231.065 528.456 230.972Z" fill="black"/>
<path d="M530.033 230.044C529.847 230.044 529.662 230.137 529.662 230.322C529.662 230.508 529.662 230.693 529.662 230.972C529.94 232.827 530.033 234.59 529.94 236.445C529.94 236.723 530.033 236.909 530.218 237.002C530.404 237.094 530.59 237.002 530.682 236.816C530.775 236.631 530.775 236.445 530.868 236.167C530.961 234.311 530.868 232.456 530.497 230.508C530.404 230.23 530.218 230.044 530.033 230.044Z" fill="black"/>
<path d="M531.61 229.117C531.425 229.117 531.239 229.302 531.239 229.488C531.239 229.673 531.239 229.951 531.239 230.137C531.517 232.085 531.517 233.848 531.425 235.61C531.425 235.889 531.517 236.074 531.796 236.074C532.074 236.074 532.26 235.981 532.26 235.796C532.352 235.61 532.352 235.332 532.352 235.146C532.445 233.291 532.352 231.436 532.074 229.488C532.074 229.209 531.888 229.024 531.61 229.117Z" fill="black"/>
<path d="M533.466 235.239C533.651 235.239 533.837 235.054 533.929 234.868C534.115 232.827 534.115 230.786 533.744 228.56C533.744 228.282 533.466 228.189 533.28 228.189C533.002 228.189 532.909 228.467 532.909 228.653C533.187 230.879 533.28 232.827 533.002 234.775C533.002 234.961 533.187 235.146 533.466 235.239C533.373 235.239 533.373 235.239 533.466 235.239Z" fill="black"/>
<path d="M513.799 239.043C514.078 239.414 514.263 239.97 514.356 240.62C514.634 242.939 513.521 245.722 511.851 246.835C511.387 247.206 510.924 247.299 510.46 247.299L510.367 247.577L509.532 247.114C508.883 246.743 508.419 245.908 508.233 244.794C507.955 242.475 509.068 239.692 510.738 238.579C511.573 238.022 512.408 237.93 513.057 238.301L513.892 238.764L513.799 239.043Z" fill="#E6E6E6"/>
<path d="M515.192 241.176C514.914 238.857 513.244 237.93 511.574 239.136C509.904 240.249 508.791 243.032 509.069 245.351C509.347 247.67 511.017 248.598 512.687 247.392C514.357 246.186 515.47 243.403 515.192 241.176Z" fill="#B3B3B3"/>
<path d="M513.151 239.506C512.687 239.414 512.223 239.506 511.759 239.878C510.46 240.805 509.533 243.032 509.811 244.887C509.904 245.536 510.182 246.093 510.46 246.464C511.017 247.021 511.852 247.113 512.687 246.557C513.986 245.629 514.913 243.403 514.635 241.547C514.449 240.434 513.893 239.692 513.151 239.506Z" fill="#FFE0AB"/>
<path d="M513.151 239.507C512.687 239.414 512.223 239.507 511.759 239.878C510.46 240.805 509.533 243.032 509.811 244.887C509.904 245.537 510.182 246.093 510.46 246.464C510.924 246.557 511.388 246.464 511.852 246.093C513.151 245.165 514.078 242.939 513.8 241.084C513.707 240.434 513.429 239.878 513.151 239.507Z" fill="white"/>
<path d="M513.15 239.507C512.778 239.414 512.407 239.507 511.944 239.692C511.851 239.692 511.758 239.785 511.758 239.785C510.459 240.713 509.532 242.939 509.81 244.795C509.81 244.887 509.81 244.98 509.903 245.073C509.995 245.629 510.274 246.093 510.552 246.372C511.016 246.464 511.48 246.372 511.944 246C513.242 245.073 514.17 242.846 513.892 240.991C513.706 240.434 513.428 239.878 513.15 239.507Z" fill="#F5D08E"/>
<path d="M512.129 239.785C512.037 239.785 511.944 239.785 511.944 239.785C511.851 239.785 511.758 239.877 511.758 239.877C510.459 240.805 509.532 243.031 509.81 244.887C509.81 244.98 509.81 245.072 509.903 245.165C509.903 245.258 509.996 245.258 510.088 245.351C510.459 245.443 510.831 245.351 511.202 245.072C512.315 244.33 512.964 242.568 512.779 241.083C512.593 240.527 512.408 240.063 512.129 239.785Z" fill="white"/>
<path d="M542.278 222.252C542.556 222.623 542.742 223.18 542.835 223.829C543.113 226.056 542 228.839 540.423 229.952C539.959 230.23 539.495 230.416 539.031 230.416L538.938 230.694L538.104 230.23C537.454 229.859 536.99 229.024 536.805 227.911C536.526 225.684 537.64 222.901 539.217 221.788C540.052 221.232 540.887 221.139 541.536 221.51L542.371 221.974L542.278 222.252Z" fill="#E6E6E6"/>
<path d="M543.577 224.293C543.299 222.066 541.722 221.138 540.052 222.252C538.382 223.365 537.269 226.148 537.64 228.374C537.918 230.601 539.495 231.528 541.165 230.415C542.835 229.302 543.948 226.612 543.577 224.293Z" fill="#B3B3B3"/>
<path d="M541.629 222.808C541.165 222.716 540.701 222.808 540.238 223.179C538.939 224.107 538.011 226.241 538.289 228.003C538.382 228.653 538.568 229.209 538.939 229.58C539.495 230.137 540.33 230.23 541.072 229.673C542.371 228.746 543.299 226.612 543.021 224.849C542.835 223.643 542.278 222.901 541.629 222.808Z" fill="#FFE0AB"/>
<path d="M541.629 222.808C541.165 222.716 540.701 222.808 540.237 223.179C538.938 224.107 538.011 226.241 538.289 228.003C538.382 228.653 538.567 229.209 538.938 229.58C539.402 229.673 539.866 229.58 540.33 229.209C541.629 228.282 542.556 226.148 542.278 224.385C542.092 223.643 541.907 223.087 541.629 222.808Z" fill="white"/>
<path d="M541.629 222.808C541.257 222.716 540.886 222.808 540.423 222.994C540.33 222.994 540.237 223.087 540.237 223.087C538.938 224.014 538.011 226.148 538.289 227.911C538.289 228.003 538.289 228.096 538.382 228.189C538.474 228.746 538.66 229.117 538.938 229.488C539.402 229.58 539.866 229.488 540.33 229.117C541.629 228.189 542.556 226.055 542.278 224.293C542.092 223.643 541.907 223.087 541.629 222.808Z" fill="#F5D08E"/>
<path d="M540.609 222.994C540.516 222.994 540.423 222.994 540.423 222.994C540.33 222.994 540.238 223.087 540.238 223.087C538.939 224.014 538.011 226.148 538.29 227.91C538.29 228.003 538.29 228.096 538.382 228.189C538.382 228.282 538.475 228.282 538.568 228.374C538.939 228.467 539.31 228.374 539.681 228.096C540.701 227.354 541.444 225.591 541.258 224.2C541.073 223.736 540.887 223.272 540.609 222.994Z" fill="white"/>
<path d="M497.286 229.395C497.379 229.395 497.472 229.395 497.472 229.302C497.565 229.209 497.657 229.024 497.472 228.838L493.205 224.107C493.112 224.014 492.926 223.921 492.741 224.107C492.648 224.2 492.555 224.385 492.741 224.571L497.008 229.302C497.101 229.302 497.194 229.395 497.286 229.395Z" fill="black"/>
<path d="M497.286 233.198C497.379 233.198 497.379 233.198 497.472 233.106C497.657 233.013 497.657 232.827 497.564 232.642L493.297 226.519C493.204 226.334 493.019 226.334 492.833 226.426C492.648 226.519 492.648 226.705 492.74 226.89L497.008 233.013C497.1 233.106 497.193 233.198 497.286 233.198Z" fill="black"/>
<path d="M495.244 221.231C495.522 221.417 495.615 221.695 495.615 221.974L495.244 230.137C495.244 230.508 494.966 230.787 494.594 230.787L491.162 231.158C490.605 231.25 490.142 230.787 490.142 230.23V223.458C490.142 222.994 490.42 222.53 490.884 222.345L494.687 221.231C494.78 221.139 495.058 221.139 495.244 221.231Z" fill="#194B73"/>
<path d="M495.615 222.159V230.601C495.615 230.972 495.337 231.25 494.965 231.25L491.348 231.436C490.791 231.436 490.234 230.972 490.234 230.415L490.142 223.643C490.142 223.179 490.513 222.715 490.976 222.623L494.873 221.695C495.337 221.602 495.615 221.788 495.615 222.159Z" fill="#235885"/>
<path d="M478.733 221.695L475.022 219.561V217.799L478.733 219.839V221.695Z" fill="white"/>
<path d="M408.321 148.501L402.383 145.068L403.682 137.74L409.619 141.172L408.321 148.501Z" fill="#1A1A1A"/>
<path d="M409.62 141.172L403.682 137.74L408.135 135.142L414.072 138.575L409.62 141.172Z" fill="#E6E6E6"/>
<path d="M390.045 158.984L384.108 155.551L402.383 145.069L408.321 148.501L390.045 158.984Z" fill="#6E6E6E"/>
<path d="M384.293 172.435L378.356 169.003V158.891L384.293 162.416V172.435Z" fill="#1A1A1A"/>
<path d="M384.2 155.829L378.263 152.397L382.809 149.799L388.746 153.232L384.2 155.829Z" fill="#E6E6E6"/>
<path d="M384.293 162.416L378.356 158.891L378.263 152.397L384.201 155.83L384.293 162.416Z" fill="#1A1A1A"/>
<path d="M414.072 138.575L414.164 145.161V155.18L384.293 172.435V162.416L384.2 155.83L388.746 153.232L390.045 158.984L408.32 148.501L409.619 141.172L414.072 138.575Z" fill="#3B3B3B"/>
<path d="M413.98 189.69L384.294 172.435V162.416L413.887 179.578L413.98 189.69Z" fill="#1A1A1A"/>
<path d="M381.388 174.988L387.836 178.721C387.61 178.608 387.497 178.269 387.497 177.929L381.048 174.196C381.048 174.649 381.162 174.875 381.388 174.988Z" fill="#194B73"/>
<path d="M390.552 167.521L384.103 163.901L382.293 164.919L388.741 168.653L390.552 167.521Z" fill="#235885"/>
<path d="M387.497 170.802L381.048 167.069V174.196L387.497 177.929V170.802Z" fill="#194B73"/>
<path d="M388.741 168.653L382.293 164.919C381.614 165.259 381.048 166.277 381.048 167.069L387.497 170.802C387.497 170.01 388.063 168.992 388.741 168.653Z" fill="#235885"/>
<path d="M387.496 177.93C387.496 178.722 388.062 179.061 388.741 178.608L390.551 177.59V167.521L388.741 168.54C388.062 168.879 387.496 169.897 387.496 170.689V177.93V177.93Z" fill="#11324E"/>
<path d="M390.324 180.305L396.772 184.038C396.546 183.925 396.433 183.585 396.433 183.246L389.984 179.513C389.984 179.965 390.098 180.191 390.324 180.305Z" fill="#194B73"/>
<path d="M399.601 172.838L393.152 169.217L391.229 170.235L397.677 173.969L399.601 172.838Z" fill="#235885"/>
<path d="M396.433 176.118L389.984 172.385V179.512L396.433 183.246V176.118Z" fill="#194B73"/>
<path d="M397.677 173.969L391.229 170.236C390.55 170.575 389.984 171.593 389.984 172.385L396.433 176.119C396.433 175.327 396.999 174.309 397.677 173.969Z" fill="#235885"/>
<path d="M396.433 183.246C396.433 184.038 396.999 184.377 397.677 183.925L399.488 182.906V172.838L397.677 173.856C396.999 174.195 396.433 175.213 396.433 176.005V183.246Z" fill="#11324E"/>
<path d="M399.941 185.192L406.389 188.925C406.163 188.812 406.05 188.473 406.05 188.133L399.601 184.4C399.601 184.853 399.714 185.079 399.941 185.192Z" fill="#194B73"/>
<path d="M409.105 177.725L402.656 174.105L400.846 175.123L407.295 178.856L409.105 177.725Z" fill="#235885"/>
<path d="M406.05 181.006L399.601 177.273V184.4L406.05 188.133V181.006Z" fill="#194B73"/>
<path d="M407.294 178.856L400.846 175.123C400.167 175.463 399.601 176.481 399.601 177.273L406.05 181.006C406.05 180.214 406.616 179.196 407.294 178.856Z" fill="#235885"/>
<path d="M406.05 188.133C406.05 188.925 406.616 189.265 407.295 188.812L409.105 187.794V177.725L407.295 178.743C406.616 179.083 406.05 180.101 406.05 180.893V188.133V188.133Z" fill="#11324E"/>
<path d="M413.888 179.578L384.295 162.416L414.073 145.161L443.759 162.416L413.888 179.578Z" fill="#6E6E6E"/>
<path d="M437.08 162.324L431.606 165.478L413.888 175.682L396.447 165.571L390.974 162.416L414.073 149.058L437.08 162.324Z" fill="#1A1A1A"/>
<path d="M431.607 165.478L413.888 175.682L396.448 165.57L414.074 155.366L431.607 165.478Z" fill="#808080"/>
<path d="M443.759 162.416L443.851 172.435L413.98 189.69L413.887 179.578L443.759 162.416Z" fill="#3B3B3B"/>
<path d="M442.181 169.745L436.244 166.313L438.842 151.655L444.779 155.088L442.181 169.745Z" fill="#1A1A1A"/>
<path d="M444.78 155.088L438.842 151.655L443.388 149.058L449.325 152.49L444.78 155.088Z" fill="#E6E6E6"/>
<path d="M426.597 178.744L420.66 175.218L436.245 166.313L442.182 169.745L426.597 178.744Z" fill="#6E6E6E"/>
<path d="M419.453 169.745L413.516 166.312L417.969 163.715L423.906 167.147L419.453 169.745Z" fill="#E6E6E6"/>
<path d="M419.454 192.937L413.517 189.505V166.313L419.454 169.745V192.937Z" fill="#1A1A1A"/>
<path d="M449.325 152.49V175.682L419.454 192.937V169.745L423.907 167.148L426.597 178.744L442.182 169.745L444.779 155.088L449.325 152.49Z" fill="#3B3B3B"/>
<path d="M421.124 170.766L422.793 169.746L425.484 181.342L443.666 170.766L446.264 156.201L447.562 155.459L447.655 174.662L421.124 189.969V170.766Z" fill="#4D4D4D"/>
<path d="M406.958 148.594L433.363 20.4515L429.944 18.3722L403.539 146.515L406.958 148.594Z" fill="#11324E"/>
<path d="M407.338 138.726C402.516 141.779 392.821 147.965 392.621 148.293L392.03 148.494L392.499 145.413L407.9 136.262L407.338 138.726Z" fill="#2D6597"/>
<path d="M411.646 117.78C406.823 120.832 397.128 127.018 396.929 127.346L396.338 127.548L396.807 124.466L412.207 115.316L411.646 117.78Z" fill="#2D6597"/>
<path d="M415.953 96.8335C411.13 99.8857 401.435 106.072 401.236 106.4L400.645 106.602L401.114 103.52L416.514 94.3695L415.953 96.8335Z" fill="#2D6597"/>
<path d="M420.26 75.8868C415.438 78.9391 405.743 85.1255 405.544 85.4532L404.953 85.6549L405.421 82.5734L420.822 73.4229L420.26 75.8868Z" fill="#2D6597"/>
<path d="M424.567 54.9402C419.745 57.9924 410.05 64.1789 409.85 64.5066L409.259 64.7083L409.728 61.6268L425.129 52.4762L424.567 54.9402Z" fill="#2D6597"/>
<path d="M428.875 33.994C424.052 37.0463 414.357 43.2327 414.158 43.5604L413.567 43.7621L414.036 40.6806L429.437 31.5301L428.875 33.994Z" fill="#2D6597"/>
<path d="M388.602 158.754L415.1 31.2283L418.24 29.2101L391.745 156.72L388.602 158.754Z" fill="#6998AB"/>
<path d="M425.866 24.3087L399.378 151.782L396.684 153.525L423.174 26.0386L425.866 24.3087Z" fill="#2D6597"/>
<path d="M432.088 20.2376L405.59 147.763L403.355 149.209L429.849 21.7025L432.088 20.2376Z" fill="#2D6597"/>
<path d="M405.889 147.551L402.376 149.758M390.958 156.929L394.91 154.446M402.376 149.758L427.698 25.0954M402.376 149.758L394.91 154.446M419.638 29.4226L394.91 154.446" stroke="black" stroke-width="1.5" stroke-linecap="round" stroke-linejoin="round"/>
<path d="M416.126 31.8521L412.365 29.5649L429.944 18.3725L431.126 17.9692L434.203 19.8406L416.126 31.8521Z" fill="#2D6597"/>
<path d="M423.859 26.4572C421.294 24.8977 419.478 20.7874 419.814 17.2644C420.15 13.7414 422.51 12.1708 425.148 13.7749C427.712 15.3344 429.602 19.4893 429.192 22.9677C428.857 26.4907 426.423 28.0167 423.859 26.4572Z" fill="#F5D08E"/>
<path d="M424.426 21.1909C423.785 20.801 423.331 19.7734 423.415 18.8927C423.499 18.012 424.089 17.6193 424.749 18.0203C425.39 18.4102 425.862 19.4489 425.76 20.3185C425.676 21.1993 425.068 21.5807 424.426 21.1909Z" fill="#ECBD6A"/>
<path d="M422.163 26.5477L425.651 20.8132L423.599 19.5656L420.112 25.3001L422.163 26.5477Z" fill="#2D6597"/>
<path d="M419.611 18.0131C419.611 18.0131 427.568 23.4131 428.843 23.6273C430.118 23.8415 429.932 22.6064 429.248 22.1905C428.564 21.7747 420.24 16.8246 419.767 16.9859C419.294 17.1472 419.466 17.7379 419.611 18.0131Z" fill="#2D6597"/>
<path d="M390.312 159.793L416.126 31.8519L412.365 29.5647L386.893 157.714L390.312 159.793Z" fill="#11324E"/>
<path d="M407.798 147.983L406.958 148.595L433.363 20.4516L434.203 19.8403L407.798 147.983Z" fill="#6998AB"/>
<path d="M453.871 213.531C450.161 215.851 442.183 221.046 441.812 221.417L443.203 210.748L455.727 202.863L453.871 213.531Z" fill="black"/>
</svg>
