<svg width="591" height="278" viewBox="0 0 591 278" fill="none" xmlns="http://www.w3.org/2000/svg">
<g clip-path="url(#clip0_420_20250)">
<path d="M522.79 152.975C522.611 152.975 519.399 152.975 519.399 152.975L512.974 152.083L509.048 154.225L506.192 155.831L502.98 159.4C502.444 160.114 502.98 160.828 504.051 160.114L507.263 157.437C507.263 158.151 507.62 158.865 508.334 159.043C508.512 159.757 509.048 160.293 509.762 160.471C510.119 161.007 510.654 161.364 511.368 161.542L514.223 162.256L515.473 161.542L515.651 160.293L518.507 159.222L519.934 158.151L524.039 155.653L522.79 152.975Z" fill="#FFB294"/>
<path d="M537.066 145.301L536.888 146.193C537.78 147.621 537.602 149.227 537.066 150.834L536.531 153.332L536.888 154.938C536.709 156.009 536.174 156.009 535.638 155.652L536.174 156.545L537.602 158.329L539.208 159.043C539.922 159.579 539.743 159.757 539.208 159.936C539.565 160.471 539.208 160.828 538.672 160.828L537.245 159.936C537.245 160.649 536.888 161.006 536.352 160.649L534.032 158.329C533.14 156.902 532.426 155.474 532.069 154.046C532.069 151.548 532.604 149.227 533.497 146.907V145.658C532.961 144.409 536.709 144.23 537.066 145.301Z" fill="#FFB294"/>
<path d="M537.066 148.157L533.497 146.015L529.927 132.808C529.927 132.808 516.364 119.959 519.041 106.038L532.069 115.675L542.599 137.27L537.066 148.157Z" fill="#6998AB"/>
<path d="M554.021 210.978C554.735 212.227 554.199 214.904 553.485 217.76C552.057 220.615 549.38 219.723 546.882 219.723C542.063 219.544 539.208 222.578 532.961 221.508C529.392 220.794 527.072 219.544 526.715 217.046C526.715 215.975 527.607 214.904 529.213 214.19C529.213 214.19 538.315 212.049 538.494 211.87C538.672 211.692 542.956 209.729 543.134 209.372C543.312 209.015 545.811 202.947 545.811 202.947L554.913 204.731L554.021 210.978Z" fill="black"/>
<path d="M567.406 224.72C568.12 227.397 568.299 228.289 567.763 230.253C567.228 231.323 566.871 231.68 566.336 233.287C565.8 235.071 565.622 238.105 562.945 239.711C559.554 242.032 553.307 241.853 551.523 239.176C551.523 237.927 552.593 234.893 554.378 232.751L557.769 227.04V221.508L566.871 219.901L567.406 224.72Z" fill="black"/>
<path d="M556.519 140.126L549.737 176.355C550.63 187.42 554.377 198.306 553.307 209.014C552.414 213.476 543.312 212.762 541.706 209.371C542.42 201.162 537.601 188.848 535.817 175.105C535.46 161.72 535.817 147.8 538.494 137.092L556.519 140.126Z" fill="#30485C"/>
<path d="M556.519 140.126L549.737 176.355C550.63 187.42 554.377 198.306 553.307 209.014C552.414 213.476 543.312 212.762 541.706 209.371C542.42 201.162 537.601 188.848 535.817 175.105C535.46 161.72 535.817 147.8 538.494 137.092L556.519 140.126Z" fill="#004759"/>
<path opacity="0.5" d="M556.519 140.126L549.737 176.355C550.63 187.42 554.377 198.306 553.307 209.014C552.414 213.476 543.312 212.762 541.706 209.371C542.42 201.162 537.601 188.848 535.817 175.105C535.46 161.72 535.817 147.8 538.494 137.092L556.519 140.126Z" fill="#004759"/>
<path d="M538.138 140.304C537.781 144.052 542.421 154.046 547.953 158.865C547.775 166.896 548.132 180.816 549.203 189.918C552.772 203.125 556.163 215.796 556.52 224.184C557.948 226.148 562.409 227.218 565.443 226.148C565.622 226.148 565.8 225.969 565.979 225.969H566.157C567.228 225.434 567.942 224.541 567.942 223.471C568.299 212.941 566.871 202.233 564.551 191.525L566.871 154.582C569.013 149.584 570.084 143.695 567.763 134.95L565.265 135.485L538.138 140.304Z" fill="#004759"/>
<path opacity="0.5" d="M559.018 191.882C564.372 198.842 564.907 212.406 565.264 225.969C565.443 225.969 565.621 225.791 565.8 225.791H565.978C567.049 225.255 567.763 224.363 567.763 223.292C568.12 212.763 566.692 202.054 564.372 191.346L566.692 154.403C568.834 149.406 569.904 143.517 567.584 134.772L565.086 135.307L541.885 147.978C560.624 150.12 561.338 175.284 559.018 191.882Z" fill="#004759"/>
<path d="M519.754 110.678C522.253 124.42 532.961 131.202 532.961 131.202L535.281 135.485L538.315 141.196C563.301 151.369 567.941 134.415 567.941 134.415C566.156 116.389 554.199 110.857 554.199 110.857C549.559 103.183 540.992 98.8993 540.992 98.8993C513.151 86.9419 519.754 110.678 519.754 110.678Z" fill="#6998AB"/>
<path opacity="0.5" d="M535.103 135.664L538.137 141.375C563.123 151.547 567.763 134.593 567.763 134.593C567.763 134.593 554.735 135.664 550.987 124.599L544.205 122.814C544.205 122.814 542.064 134.058 535.103 135.664Z" fill="#004759"/>
<path d="M555.806 124.777C555.806 124.777 552.951 152.261 545.276 154.225C538.852 159.043 523.146 158.865 520.648 158.865C520.648 158.865 516.364 154.225 519.577 151.904C521.362 152.44 539.387 145.123 539.387 145.123L541.707 131.737C541.529 116.746 556.163 118.174 555.806 124.777Z" fill="#6998AB"/>
<path d="M525.109 105.503L531.177 106.216C531.177 106.216 534.567 106.93 533.675 113.355C532.783 119.602 529.927 120.137 529.927 120.137L519.576 115.318L525.109 105.503Z" fill="#FFB294"/>
<path opacity="0.5" d="M526.537 116.033L529.928 120.316C529.928 120.316 530.642 126.741 526.894 125.848C525.109 125.313 522.968 121.922 522.968 121.922L526.537 116.033Z" fill="#F2A9A2"/>
<path d="M526.894 113.891C526.894 113.891 531.177 100.863 519.577 98.5425C516.364 97.8287 509.404 100.506 507.976 106.574C507.084 110.5 505.835 114.783 512.795 118.888L513.152 120.673C513.152 121.565 513.687 122.1 514.401 121.922L515.294 121.565C515.294 121.565 518.149 123.707 520.648 122.993C522.968 122.457 527.251 118.531 526.894 113.891Z" fill="#FFB294"/>
<path d="M524.574 114.426L523.324 115.676C520.826 115.319 519.041 116.211 516.721 113.534C516.721 113.534 514.936 116.925 509.582 116.389C509.582 116.389 508.511 116.032 507.798 115.14C506.013 113.534 504.05 106.217 511.188 100.327C513.33 98.5425 516.721 96.2224 522.075 98.8995C527.608 101.577 529.571 107.823 528.322 112.642C527.786 114.426 526.001 115.319 524.574 114.426Z" fill="black"/>
<path d="M522.79 113.712C523.147 112.82 524.217 112.463 525.11 112.642C526.002 112.82 526.537 113.712 526.716 114.605C526.716 115.14 526.716 115.497 526.537 116.033C526.181 116.568 525.467 116.746 524.931 116.746C523.325 116.568 522.254 115.14 522.79 113.712Z" fill="#FFB294"/>
<path d="M523.504 95.865C523.504 95.865 527.252 96.4004 528.858 99.7913C528.858 99.7913 530.464 103.182 528.679 106.93C526.895 110.678 522.968 113.533 522.968 113.533C522.968 113.533 520.47 115.318 517.257 116.567L513.152 118.352C513.152 118.352 511.011 119.066 508.869 118.531C506.728 117.995 505.121 116.924 505.121 116.924C505.121 116.924 501.731 114.961 502.623 111.57C503.694 108.179 505.478 103.718 506.371 102.468L523.504 95.865Z" fill="#11324E"/>
<path d="M523.504 95.5082C523.504 95.5082 527.252 96.0436 528.858 99.4345C528.858 99.4345 530.464 102.825 528.679 106.573C526.895 110.321 522.968 113.177 522.968 113.177C522.968 113.177 520.47 114.961 517.257 116.211L513.152 117.995C513.152 117.995 511.011 118.709 508.869 118.174C506.728 117.638 505.121 116.567 505.121 116.567C505.121 116.567 501.731 114.604 502.623 111.213C503.694 107.644 505.478 103.361 506.371 102.111L523.504 95.5082Z" fill="#194B73"/>
<path d="M527.608 101.041C527.073 99.0776 525.466 96.9361 523.682 95.5083C523.146 94.7944 521.005 93.1882 518.328 93.7236L515.651 93.902C515.651 93.902 512.795 93.5451 509.226 96.7575C505.656 99.97 505.478 106.216 505.478 106.216C505.478 106.216 505.478 109.786 506.549 111.927C506.549 111.927 507.798 115.14 512.974 115.14C518.149 115.14 522.254 112.106 522.254 112.106C527.608 107.823 528.322 103.361 527.608 101.041Z" fill="#2D6597"/>
<path d="M525.288 97.6498C523.146 101.041 516.9 107.287 512.259 110.856L525.288 97.6498Z" fill="#11324E"/>
<path d="M523.682 95.5082C523.682 95.5082 521.897 94.4373 518.863 96.222C515.829 98.1852 513.866 100.505 513.866 100.505C513.866 100.505 510.297 104.789 509.404 108.358C509.404 108.358 509.226 106.573 511.546 102.29C513.866 98.1852 518.506 95.3297 518.506 95.3297C518.506 95.3297 521.719 93.7235 523.682 95.5082Z" fill="#11324E"/>
<path d="M515.651 93.7235C511.189 94.7943 507.084 98.5422 506.37 106.038C506.37 106.038 506.37 101.576 508.155 98.7206C509.583 96.2221 512.26 93.902 515.651 93.7235Z" fill="#11324E"/>
<path d="M511.367 115.497L511.546 114.961L511.189 111.392C509.047 110.856 507.084 109.964 506.192 108.358L505.478 108.536L505.835 112.284C506.906 114.426 509.047 115.14 511.367 115.497Z" fill="#11324E"/>
<path d="M505.478 105.324H504.942L504.586 107.287L504.942 108.715L505.478 108.536C505.299 107.644 505.299 106.573 505.478 105.324Z" fill="#11324E"/>
<path d="M518.506 113.891L517.97 112.641L515.829 113.355V113.712L516.364 115.14L518.506 114.605V113.891Z" fill="#11324E"/>
<path d="M528.68 102.826L527.966 101.576L527.252 101.755L527.074 103.361L527.609 104.789L528.323 104.61L528.68 102.826Z" fill="#11324E"/>
<path d="M465.143 93.0097L459.432 113.712L452.294 118.531C447.475 117.995 444.084 111.392 440.515 103.718L433.733 89.7973L444.084 78.1968L452.472 98.3637L461.039 89.0834L465.143 93.0097Z" fill="#235885"/>
<path d="M420.349 210.621L419.1 216.689C419.1 216.689 423.383 223.47 426.06 225.255C428.737 227.04 431.949 231.144 430.7 233.108C429.451 235.071 426.238 237.926 419.1 234.357C419.1 234.357 417.315 233.286 413.21 228.289C407.321 221.15 410.176 218.83 410.355 216.332C410.533 213.833 411.426 210.799 411.426 210.799L420.349 210.621Z" fill="black"/>
<path d="M435.517 190.632V196.878C435.517 196.878 438.194 199.734 440.158 200.805C442.121 201.876 444.976 203.839 445.69 204.196C451.58 209.371 442.299 212.762 438.016 209.193C435.517 207.051 434.268 205.267 431.948 204.91C429.628 204.553 425.166 203.482 424.631 201.876C424.095 200.269 427.308 190.097 427.308 190.097L435.517 190.632Z" fill="black"/>
<path d="M423.025 142.089L428.557 164.754C428.557 164.754 423.917 173.678 424.274 193.131C424.274 193.131 428.914 199.734 435.517 196.7C435.517 196.7 439.622 168.145 441.942 163.683C444.262 159.222 440.693 134.414 440.693 134.414L423.025 142.089Z" fill="#004759"/>
<path opacity="0.5" d="M423.025 142.089L428.557 164.754C428.557 164.754 423.917 173.678 424.274 193.131C424.274 193.131 428.914 199.734 435.517 196.7C435.517 196.7 439.622 168.145 441.942 163.683C444.262 159.222 440.693 134.414 440.693 134.414L423.025 142.089Z" fill="#004759"/>
<path d="M429.093 144.23C429.093 144.23 429.093 145.122 429.093 146.55C429.093 147.978 429.093 149.941 429.093 152.261C429.093 159.043 428.915 168.502 428.201 174.034C428.201 174.57 427.13 179.745 427.13 180.102C425.881 188.133 420.527 211.87 421.062 214.725C421.062 214.725 414.459 214.725 411.068 212.762C410.532 212.405 409.997 212.048 409.64 211.691C407.32 208.836 411.603 188.49 413.745 177.782C413.745 177.782 413.745 173.321 413.388 171.357C413.031 169.394 409.997 145.658 409.997 145.658C409.283 144.23 408.748 142.802 408.391 141.196C407.677 137.984 407.677 134.414 408.569 130.131C408.748 129.06 409.105 128.168 409.461 127.097L440.872 130.131C440.694 129.953 439.444 142.088 429.093 144.23Z" fill="#004759"/>
<path d="M448.368 141.018C431.056 152.618 412.139 152.618 405 140.482L405.714 131.737L406.428 123.706L408.391 101.398L409.64 86.5846C411.246 85.6923 420.527 78.9104 428.201 76.4119L443.549 76.2334C445.156 99.6128 446.048 111.927 446.583 119.423V119.78C446.762 122.635 446.94 124.598 447.119 126.383C447.476 131.559 447.654 133.165 448.368 141.018Z" fill="#194B73"/>
<path d="M447.118 128.346C447.118 128.346 442.478 134.771 428.379 137.805C414.102 140.661 405.535 131.916 405.535 131.916L406.249 123.885C419.277 131.559 435.518 129.596 446.404 119.601V119.958L447.118 128.346Z" fill="#11324E"/>
<path opacity="0.5" d="M448.368 141.018C431.056 152.618 412.139 152.618 405 140.482L405.714 131.737L406.428 123.706L408.391 101.397L420.348 99.4343C432.663 120.137 434.09 129.417 447.297 126.205C447.476 131.559 447.654 133.165 448.368 141.018Z" fill="#09223B"/>
<path d="M427.487 122.1C422.133 102.468 418.742 94.0804 412.317 87.834C412.317 87.834 410.711 85.5139 409.462 86.5847C398.575 95.8651 415.351 124.42 416.422 125.848C419.456 130.488 421.419 135.842 434.269 146.193L439.088 140.125C438.909 140.125 430.343 128.346 427.487 122.1Z" fill="#194B73"/>
<path d="M428.023 70.3444L421.241 79.4463C417.136 82.6587 424.275 90.3329 431.057 90.8683C434.269 90.5113 432.663 82.6587 436.589 80.6955L428.023 70.3444Z" fill="#FFB294"/>
<path opacity="0.5" d="M426.417 80.517C426.417 80.517 424.811 89.7974 431.236 90.8682C434.805 91.4036 438.196 82.4801 438.196 82.4801L426.417 80.517Z" fill="#FFC0A8"/>
<path d="M426.416 80.5169L426.594 82.4801C426.773 83.9078 427.487 85.1571 428.736 86.0494L432.662 88.905C434.804 89.6188 436.767 89.4404 438.195 87.8341C439.623 86.4064 441.407 80.16 441.407 80.16L442.478 77.3045C442.835 73.0212 442.478 69.0949 439.98 66.7748C436.41 61.7777 432.127 61.2423 427.308 63.027C425.167 64.4547 423.917 66.5963 423.382 69.0949V75.8768L426.416 80.5169Z" fill="#FFB294"/>
<path d="M426.239 61.7776C426.239 61.7776 422.491 62.313 420.884 65.7039C420.884 65.7039 419.278 69.0948 421.063 72.8427C422.848 76.5905 426.774 79.4461 426.774 79.4461C426.774 79.4461 429.273 81.2307 432.485 82.48L436.59 84.2647C436.59 84.2647 438.731 84.9786 440.873 84.4432C443.015 83.9078 444.621 82.8369 444.621 82.8369C444.621 82.8369 448.012 80.8738 446.941 77.4829C445.87 74.092 444.085 69.6302 443.193 68.381L426.239 61.7776Z" fill="#11324E"/>
<path d="M426.416 61.2421C426.416 61.2421 422.668 61.7775 421.062 65.1684C421.062 65.1684 419.456 68.5593 421.241 72.3072C423.025 76.055 426.952 78.9105 426.952 78.9105C426.952 78.9105 429.45 80.6952 432.663 81.9445L436.768 83.7292C436.768 83.7292 438.909 84.443 441.051 83.9076C443.192 83.3722 444.799 82.3014 444.799 82.3014C444.799 82.3014 448.19 80.3382 447.119 76.9473C446.048 73.5564 444.263 69.0947 443.371 67.8454L426.416 61.2421Z" fill="#194B73"/>
<path d="M422.313 66.7747C422.848 64.8116 424.276 62.6699 426.239 61.2422C426.775 60.5283 428.916 58.9221 431.593 59.4575L434.27 59.636C434.27 59.636 437.126 59.2791 440.695 62.4915C444.265 65.7039 444.443 71.9503 444.443 71.9503C444.443 71.9503 444.443 75.5197 443.372 77.6613C443.372 77.6613 442.123 80.8738 436.947 80.8738C431.772 80.8738 427.667 77.8398 427.667 77.8398C422.134 73.5565 421.599 69.2733 422.313 66.7747Z" fill="#2D6597"/>
<path d="M424.632 63.384C426.774 66.7749 433.02 73.0213 437.66 76.5907L424.632 63.384Z" fill="#11324E"/>
<path d="M426.239 61.4205C426.239 61.4205 428.024 60.3496 431.057 62.1343C434.091 64.0975 436.055 66.4176 436.055 66.4176C436.055 66.4176 439.624 70.7008 440.516 74.2702C440.516 74.2702 440.695 72.4855 438.375 68.2023C436.055 64.0975 431.414 61.242 431.414 61.242C431.414 61.242 428.202 59.4573 426.239 61.4205Z" fill="#11324E"/>
<path d="M434.27 59.6361C438.732 60.7069 442.836 64.4548 443.55 71.9505C443.55 71.9505 443.55 67.4887 441.766 64.6332C440.338 62.1347 437.661 59.8146 434.27 59.6361Z" fill="#11324E"/>
<path d="M438.553 81.4091L438.374 80.8738L438.731 77.3044C440.873 76.769 442.836 75.8766 443.728 74.2704L444.442 74.4489L444.085 78.1967C443.014 80.1599 440.873 81.0522 438.553 81.4091Z" fill="#11324E"/>
<path d="M444.443 71.2366H444.978L445.335 73.1997L444.978 74.6275L444.443 74.449C444.621 73.3782 444.621 72.3074 444.443 71.2366Z" fill="#11324E"/>
<path d="M431.415 79.803L431.95 78.3752L434.092 79.0891V79.6245L433.557 80.8738L431.415 80.3384V79.803Z" fill="#11324E"/>
<path d="M421.242 68.7378L421.956 67.4885H422.67L422.848 69.2732L422.313 70.7009L421.599 70.5225L421.242 68.7378Z" fill="#11324E"/>
<path d="M467.999 241.496C465.679 242.745 463.002 243.637 460.147 243.816C459.79 243.816 459.254 243.816 458.897 243.994C457.648 243.994 456.22 243.994 454.971 243.994C452.829 243.816 450.688 243.28 448.725 242.567C448.011 242.21 447.297 242.031 446.761 241.674C440.872 238.283 440.872 232.751 446.761 229.36C449.081 228.111 451.937 227.218 454.971 227.04C456.756 226.861 458.362 226.861 460.147 227.04C463.002 227.397 465.858 228.111 467.999 229.36C473.889 232.572 473.889 238.105 467.999 241.496Z" fill="black"/>
<path d="M459.969 112.641V243.816C459.612 243.816 459.077 243.816 458.72 243.994C457.471 243.994 456.043 243.994 454.794 243.994V112.82C454.794 112.463 454.972 112.106 455.508 111.749C456.578 111.213 458.185 111.213 459.077 111.749C459.791 111.927 459.969 112.284 459.969 112.641Z" fill="#1A1A1A"/>
<path d="M458.719 243.994C455.15 244.173 451.58 243.637 448.725 242.388C446.405 239.176 447.297 235.963 447.297 235.963C447.297 235.963 448.368 230.609 454.793 228.824V237.748C454.971 237.748 454.971 240.782 458.719 243.994Z" fill="#808080"/>
<path d="M454.972 228.824V235.428L449.975 231.68C451.045 230.431 452.652 229.538 454.972 228.824Z" fill="#4D4D4D"/>
<path d="M459.968 227.218C459.968 227.218 463.895 226.326 466.393 227.932C469.07 229.539 465.679 230.966 465.679 230.966C465.679 230.966 459.968 232.929 452.83 229.003C445.691 224.898 447.297 218.83 447.297 218.83C447.297 218.83 448.368 213.476 454.793 211.692V220.615C454.793 220.615 454.971 224.363 459.968 227.754V227.218Z" fill="#808080"/>
<path d="M454.972 211.692V218.295L449.975 214.547C451.045 213.476 452.652 212.406 454.972 211.692Z" fill="#4D4D4D"/>
<path d="M459.968 210.085C459.968 210.085 463.895 209.193 466.393 210.799C469.07 212.405 465.679 213.833 465.679 213.833C465.679 213.833 459.968 215.796 452.83 211.87C445.691 207.765 447.297 201.697 447.297 201.697C447.297 201.697 448.368 196.343 454.793 194.558V203.482C454.793 203.482 454.971 207.23 459.968 210.621V210.085Z" fill="#808080"/>
<path d="M454.972 194.558V201.162L449.975 197.414C451.045 196.343 452.652 195.272 454.972 194.558Z" fill="#4D4D4D"/>
<path d="M459.968 192.952C459.968 192.952 463.895 192.06 466.393 193.666C469.07 195.273 465.679 196.7 465.679 196.7C465.679 196.7 459.968 198.663 452.83 194.737C445.691 190.632 447.297 184.564 447.297 184.564C447.297 184.564 448.368 179.21 454.793 177.426V186.349C454.793 186.349 454.971 190.097 459.968 193.488V192.952Z" fill="#808080"/>
<path d="M454.972 177.604V184.207L449.975 180.459C451.045 179.21 452.652 178.139 454.972 177.604Z" fill="#4D4D4D"/>
<path d="M459.968 175.819C459.968 175.819 463.895 174.927 466.393 176.533C469.07 178.139 465.679 179.567 465.679 179.567C465.679 179.567 459.968 181.53 452.83 177.604C445.691 173.499 447.297 167.431 447.297 167.431C447.297 167.431 448.368 162.077 454.793 160.292V169.216C454.793 169.216 454.971 172.964 459.968 176.355V175.819Z" fill="#808080"/>
<path d="M454.972 160.471V167.074L449.975 163.327C451.045 162.077 452.652 161.006 454.972 160.471Z" fill="#4D4D4D"/>
<path d="M463.537 145.658C466.928 147.621 466.928 150.833 463.537 152.796C460.146 154.76 454.614 154.76 451.223 152.796C447.832 150.833 447.832 147.621 451.223 145.658C454.614 143.695 460.146 143.695 463.537 145.658Z" fill="#4A6373"/>
<path d="M464.608 146.55C468.713 148.87 468.713 152.618 464.608 154.938C460.503 157.258 454.078 157.258 449.974 154.938C445.869 152.618 445.869 148.87 449.974 146.55C454.078 144.23 460.682 144.23 464.608 146.55Z" fill="#4A6373"/>
<path d="M441.049 144.587V153.689C441.049 156.187 442.656 158.508 445.868 160.292C452.293 164.04 462.644 164.04 469.069 160.292C472.281 158.508 473.888 156.009 473.888 153.689V144.587H441.049Z" fill="#333333"/>
<path d="M457.291 154.046C466.359 154.046 473.71 149.811 473.71 144.587C473.71 139.363 466.359 135.128 457.291 135.128C448.223 135.128 440.872 139.363 440.872 144.587C440.872 149.811 448.223 154.046 457.291 154.046Z" fill="#CCCCCC"/>
<path d="M447.118 131.916V142.445C447.118 144.051 448.189 145.479 450.152 146.728C454.257 149.049 460.682 149.049 464.786 146.728C466.75 145.479 467.82 144.051 467.82 142.445V131.916H447.118Z" fill="#4D4D4D"/>
<path d="M464.608 127.632C468.713 129.952 468.713 133.7 464.608 136.02C460.503 138.34 454.078 138.34 449.974 136.02C445.869 133.7 445.869 129.952 449.974 127.632C454.078 125.312 460.682 125.312 464.608 127.632Z" fill="#CCCCCC"/>
<path d="M452.294 53.9247V130.488C452.294 131.202 452.83 131.916 453.722 132.629C455.685 133.7 458.898 133.7 461.039 132.629C462.11 132.094 462.467 131.38 462.467 130.488V53.9247H452.294Z" fill="#333333"/>
<path d="M448.725 48.0357C453.544 45.3587 461.218 45.3587 465.858 48.0357C468.178 49.4635 469.427 51.2481 469.427 53.0328V56.4237V58.9223C469.427 60.707 468.178 62.4917 465.858 63.9194C461.039 66.5965 453.365 66.5965 448.725 63.9194C446.405 62.4917 445.156 60.707 445.156 58.9223V53.0328C445.156 51.2481 446.405 49.4635 448.725 48.0357Z" fill="#808080"/>
<path d="M477.816 42.6816V46.9649C477.816 49.9989 475.853 53.0328 471.748 55.3529C463.717 59.9931 450.688 59.9931 442.657 55.3529C438.731 53.0328 436.589 49.9989 436.589 46.9649V42.6816H477.816Z" fill="#3B3B3B"/>
<path d="M457.291 54.4605C468.626 54.4605 477.815 49.1869 477.815 42.6815C477.815 36.1762 468.626 30.9026 457.291 30.9026C445.956 30.9026 436.767 36.1762 436.767 42.6815C436.767 49.1869 445.956 54.4605 457.291 54.4605Z" fill="#666666"/>
<path d="M448.725 -24.9584V40.5397C448.725 41.789 449.617 43.0382 451.223 44.1091C454.614 46.0722 460.147 46.0722 463.538 44.1091C465.144 43.2167 466.036 41.789 466.036 40.5397V-24.9584H448.725Z" fill="#3B3B3B"/>
<path d="M462.467 91.7606L461.04 90.1544C461.04 90.1544 460.683 86.942 460.683 86.4066C460.683 85.8712 461.218 82.3017 461.218 82.3017L462.289 81.0525H463.717C463.717 81.0525 465.323 84.8003 465.323 85.6927C465.323 84.9788 465.323 84.9788 465.323 88.1912V91.2252C465.323 92.1175 464.966 93.9023 464.252 94.6161L462.11 96.0439V91.7606H462.467Z" fill="black"/>
<path d="M440.337 138.698C436.054 136.734 430.343 143.338 432.663 147.264L436.59 150.12C438.374 153.867 439.267 154.76 444.085 157.615L447.476 158.686L450.689 157.794C451.759 157.08 453.187 153.689 453.366 151.726C453.366 151.012 453.009 150.477 452.295 150.298C449.261 149.941 447.833 149.049 446.584 147.264C446.048 146.372 450.332 144.587 450.332 144.587C451.938 144.052 451.581 142.089 449.439 142.624L444.264 143.516L440.337 138.698Z" fill="black"/>
<path opacity="0.5" d="M429.093 152.262L420.169 163.148L418.385 180.103L410.889 212.762C410.354 212.406 409.818 212.049 409.461 211.692C407.141 208.836 411.425 188.491 413.566 177.783C413.566 177.783 413.566 173.321 413.209 171.358C412.852 169.395 409.818 145.658 409.818 145.658C409.104 144.23 408.569 142.803 408.212 141.196L428.914 146.55C429.093 147.978 429.093 149.941 429.093 152.262Z" fill="#004759"/>
</g>
<defs>
<clipPath id="clip0_420_20250">
<rect width="591" height="278" fill="white"/>
</clipPath>
</defs>
</svg>
