<svg width="669" height="280" viewBox="0 0 669 280" fill="none" xmlns="http://www.w3.org/2000/svg">
<path d="M589.477 208.939V210.413C589.477 211.396 590.091 212.379 591.442 213.116C594.022 214.59 598.321 214.59 601.024 213.116C602.375 212.379 602.989 211.396 602.989 210.413V208.939H589.477Z" fill="black"/>
<path d="M596.233 212.87C592.502 212.87 589.477 211.11 589.477 208.939C589.477 206.768 592.502 205.008 596.233 205.008C599.965 205.008 602.989 206.768 602.989 208.939C602.989 211.11 599.965 212.87 596.233 212.87Z" fill="#585858"/>
<path d="M592.548 208.817L596.233 211.028V170.121L592.548 167.91V208.817Z" fill="#999999"/>
<path d="M595.127 170.735L593.653 169.875V208.202L595.127 209.062V170.735Z" fill="#333333"/>
<path d="M592.547 167.91L596.232 170.121L600.041 167.91L596.232 165.699L592.547 167.91Z" fill="#585858"/>
<path d="M600.041 208.817L596.232 211.028V170.121L600.041 167.91V208.817Z" fill="#333333"/>
<path d="M544.519 182.897V184.371C544.519 185.354 545.133 186.336 546.484 187.074C549.064 188.548 553.363 188.548 556.066 187.074C557.417 186.336 558.031 185.354 558.031 184.371V182.897H544.519Z" fill="black"/>
<path d="M551.152 186.828C547.421 186.828 544.396 185.068 544.396 182.897C544.396 180.726 547.421 178.966 551.152 178.966C554.883 178.966 557.908 180.726 557.908 182.897C557.908 185.068 554.883 186.828 551.152 186.828Z" fill="#585858"/>
<path d="M547.468 182.774L551.153 184.985V144.079L547.468 141.868V182.774Z" fill="#999999"/>
<path d="M550.047 144.693L548.573 143.833V182.16L550.047 183.02V144.693Z" fill="#333333"/>
<path d="M547.467 141.868L551.152 144.079L554.961 141.868L551.152 139.656L547.467 141.868Z" fill="#585858"/>
<path d="M554.961 182.774L551.152 184.985V144.079L554.961 141.868V182.774Z" fill="#333333"/>
<path d="M579.283 159.066C575.966 157.224 573.018 156.978 570.93 158.206L564.542 161.892C562.453 163.12 561.102 165.7 561.102 169.385C561.102 176.878 566.262 185.846 572.772 189.654C576.212 191.62 579.406 191.742 581.494 190.145C581.371 190.268 581.248 190.391 581.125 190.391L587.513 186.706C589.602 185.477 590.953 182.898 590.953 179.212C590.953 171.842 585.794 162.752 579.283 159.066Z" fill="black"/>
<path d="M561.225 169.508C561.225 177.001 566.384 185.968 572.895 189.777C579.406 193.462 584.688 190.514 584.688 183.02C584.688 175.527 579.528 166.559 573.018 162.751C566.507 159.066 561.225 162.014 561.225 169.508ZM572.895 185.723C568.35 183.143 564.665 176.755 564.665 171.596C564.665 166.437 568.35 164.348 572.895 166.928C577.44 169.508 581.125 175.895 581.125 181.055C581.125 186.214 577.44 188.302 572.895 185.723Z" fill="black"/>
<path d="M564.665 171.473C564.665 176.633 568.35 183.02 572.895 185.6C577.44 188.18 581.125 186.091 581.125 180.932C581.125 175.773 577.44 169.385 572.895 166.805C568.35 164.226 564.665 166.314 564.665 171.473Z" fill="#CCCCCC"/>
<path d="M578.053 182.037C578.422 181.423 578.667 180.563 578.667 179.58C578.667 176.018 576.088 171.596 573.017 169.753C572.157 169.262 571.297 169.016 570.56 169.016C568.717 169.016 567.366 170.49 567.366 173.07C567.366 176.632 569.946 181.055 573.017 182.897C575.105 184.003 577.07 183.634 578.053 182.037Z" fill="white"/>
<path d="M579.283 159.066C575.966 157.224 573.018 156.978 570.93 158.206L564.542 161.892C566.63 160.663 569.578 160.786 572.895 162.752C579.406 166.437 584.565 175.527 584.565 183.021C584.565 186.706 583.214 189.285 581.125 190.514L587.513 186.829C589.602 185.6 590.953 183.021 590.953 179.335C590.953 171.842 585.794 162.752 579.283 159.066Z" fill="black"/>
<path d="M578.053 182.037C578.421 181.423 578.667 180.563 578.667 179.58C578.667 176.018 576.087 171.596 573.016 169.753C572.156 169.262 571.297 169.016 570.56 169.016C570.191 169.63 569.945 170.49 569.945 171.473C569.945 175.035 572.525 179.458 575.596 181.3C576.456 181.792 577.193 182.037 578.053 182.037Z" fill="#B3B3B3"/>
<path d="M558.03 161.154C557.907 161.154 557.907 161.154 558.03 161.154C558.521 160.662 559.013 160.171 559.627 159.68C559.995 159.311 560.364 159.065 560.855 158.82C560.732 158.82 560.732 158.943 560.61 158.943L568.594 154.275C568.963 154.029 569.454 153.906 569.823 153.783C570.437 153.537 571.174 153.415 571.788 153.169C573.631 152.678 576.088 153.046 578.545 154.52L585.301 158.451C591.32 161.891 596.234 170.367 596.357 176.878L594.883 178.597L586.898 183.265L584.687 183.634L584.564 183.511C582.967 182.651 581.616 180.686 581.001 178.72C579.773 174.666 576.948 170.735 573.631 168.77L566.875 164.839C566.26 164.47 565.646 164.225 565.155 164.102L560.732 166.682C560.732 166.682 560.855 166.682 560.855 166.559C560.364 166.927 559.504 167.05 558.153 167.419C558.153 167.419 558.276 167.419 558.276 167.296C557.539 167.541 556.679 167.419 555.819 166.927L555.696 166.804C555.819 164.348 556.679 162.382 558.03 161.154Z" fill="black"/>
<path d="M566.875 161.277C560.856 157.837 555.819 160.54 555.696 166.928L555.819 167.05C557.416 167.91 558.767 167.665 559.382 166.436C560.61 163.856 563.435 163.119 566.752 164.962L573.509 168.893C576.825 170.858 579.651 174.789 580.879 178.843C581.493 180.809 582.845 182.774 584.442 183.634L584.564 183.757C584.442 177.246 579.528 168.77 573.509 165.331L566.875 161.277Z" fill="#333333"/>
<path d="M559.504 159.68C561.592 157.714 564.909 157.591 568.717 159.68L575.473 163.611C581.738 167.173 586.775 175.895 586.898 183.143L584.687 183.511C584.564 177 579.65 168.524 573.631 165.085L566.874 161.154C563.189 159.065 559.872 159.188 557.907 161.031C558.521 160.785 559.013 160.171 559.504 159.68Z" fill="#666666"/>
<path d="M530.144 150.098L546.85 151.941L601.392 183.634L605.814 204.272V209.308L581.983 223.066L546.482 220.487L491.94 188.793L488.746 179.089V174.052L530.144 150.098ZM578.912 212.625L595.741 202.92L593.162 191.005L558.397 211.028L578.912 212.625Z" fill="black"/>
<path d="M581.983 217.907V223.067L605.814 209.308V204.272L581.983 217.907Z" fill="#373737"/>
<path d="M488.746 173.93L491.94 183.634L546.482 215.328L581.983 217.907L605.814 204.272L601.392 183.757L546.85 152.064L530.144 150.221L488.746 173.93ZM578.912 212.625L550.658 210.537L593.162 185.968L596.601 202.429L578.912 212.625Z" fill="#585858"/>
<path d="M542.924 129.461L574.126 147.519C573.021 146.905 571.547 147.027 569.827 147.887L538.502 129.829C540.222 128.847 541.819 128.847 542.924 129.461Z" fill="#2D6597"/>
<path d="M533.833 200.832L502.631 182.652L502.509 157.715L533.711 175.773L533.833 200.832Z" fill="#194B73"/>
<path d="M539.731 165.331L508.529 147.15L538.502 129.829L569.704 148.01L539.731 165.331Z" fill="#2D6597"/>
<path d="M560.245 148.01L538.502 135.357L518.11 147.15L539.731 159.803L560.245 148.01Z" fill="#194B73"/>
<path d="M533.711 175.772L502.509 157.592C502.509 153.784 505.211 148.993 508.528 147.15L539.73 165.331C536.413 167.173 533.711 171.964 533.711 175.772Z" fill="#194B73"/>
<path d="M569.705 148.01C573.022 146.045 575.847 147.641 575.847 151.45L575.97 176.387L533.835 200.709L533.712 175.772C533.712 171.964 536.415 167.173 539.732 165.331L569.705 148.01Z" fill="#194B73"/>
<path d="M544.397 180.44C544.397 180.072 544.151 179.949 543.905 180.072L540.097 182.283C539.852 182.406 539.606 182.774 539.606 183.143C539.606 183.511 539.852 183.634 540.097 183.511L543.905 181.3C544.274 181.177 544.397 180.809 544.397 180.44Z" fill="#1A1A1A"/>
<path d="M544.397 178.72C544.397 178.352 544.151 178.229 543.905 178.352L540.097 180.563C539.852 180.686 539.606 181.054 539.606 181.423C539.606 181.791 539.852 181.914 540.097 181.791L543.905 179.58C544.274 179.457 544.397 179.089 544.397 178.72Z" fill="#1A1A1A"/>
<path d="M544.397 177.001C544.397 176.632 544.151 176.509 543.905 176.632L540.097 178.843C539.852 178.966 539.606 179.335 539.606 179.703C539.606 180.072 539.852 180.195 540.097 180.072L543.905 177.861C544.274 177.738 544.397 177.369 544.397 177.001Z" fill="#1A1A1A"/>
<path d="M544.397 175.281C544.397 174.912 544.151 174.79 543.905 174.912L540.097 177.124C539.852 177.246 539.606 177.615 539.606 177.983C539.606 178.352 539.852 178.475 540.097 178.352L543.905 176.141C544.274 176.018 544.397 175.649 544.397 175.281Z" fill="#1A1A1A"/>
<path d="M544.397 173.561C544.397 173.192 544.151 173.069 543.905 173.192L540.097 175.403C539.852 175.526 539.606 175.895 539.606 176.263C539.606 176.632 539.852 176.755 540.097 176.632L543.905 174.421C544.274 174.298 544.397 173.929 544.397 173.561Z" fill="#1A1A1A"/>
<path d="M544.397 171.841C544.397 171.473 544.151 171.35 543.905 171.473L540.097 173.684C539.852 173.807 539.606 174.175 539.606 174.544C539.606 174.912 539.852 175.035 540.097 174.912L543.905 172.701C544.274 172.578 544.397 172.21 544.397 171.841Z" fill="#1A1A1A"/>
<path d="M544.397 170.121C544.397 169.753 544.151 169.63 543.905 169.753L540.097 171.964C539.852 172.087 539.606 172.455 539.606 172.824C539.606 173.192 539.852 173.315 540.097 173.192L543.905 170.981C544.274 170.858 544.397 170.49 544.397 170.121Z" fill="#1A1A1A"/>
<path d="M544.397 168.402C544.397 168.033 544.151 167.91 543.905 168.033L540.097 170.244C539.852 170.367 539.606 170.736 539.606 171.104C539.606 171.473 539.852 171.596 540.097 171.473L543.905 169.262C544.274 169.016 544.397 168.647 544.397 168.402Z" fill="#1A1A1A"/>
<path d="M572.036 162.874C572.036 162.505 571.791 162.382 571.545 162.505L567.737 164.716C567.491 164.839 567.245 165.208 567.245 165.576C567.245 165.945 567.491 166.067 567.737 165.945L571.545 163.733C571.913 163.488 572.036 163.119 572.036 162.874Z" fill="#1A1A1A"/>
<path d="M572.036 161.154C572.036 160.785 571.791 160.663 571.545 160.785L567.737 162.997C567.491 163.119 567.245 163.488 567.245 163.857C567.245 164.225 567.491 164.348 567.737 164.225L571.545 162.014C571.913 161.768 572.036 161.4 572.036 161.154Z" fill="#1A1A1A"/>
<path d="M572.036 159.434C572.036 159.066 571.791 158.943 571.545 159.066L567.737 161.277C567.491 161.4 567.245 161.768 567.245 162.137C567.245 162.506 567.491 162.628 567.737 162.506L571.545 160.294C571.913 160.049 572.036 159.68 572.036 159.434Z" fill="#1A1A1A"/>
<path d="M572.036 157.592C572.036 157.223 571.791 157.1 571.545 157.223L567.737 159.434C567.491 159.557 567.245 159.926 567.245 160.294C567.245 160.663 567.491 160.786 567.737 160.663L571.545 158.452C571.913 158.329 572.036 157.96 572.036 157.592Z" fill="#1A1A1A"/>
<path d="M572.036 155.872C572.036 155.503 571.791 155.38 571.545 155.503L567.737 157.714C567.491 157.837 567.245 158.206 567.245 158.574C567.245 158.943 567.491 159.066 567.737 158.943L571.545 156.732C571.913 156.609 572.036 156.24 572.036 155.872Z" fill="#1A1A1A"/>
<path d="M572.036 154.152C572.036 153.784 571.791 153.661 571.545 153.784L567.737 155.995C567.491 156.118 567.245 156.486 567.245 156.855C567.245 157.223 567.491 157.346 567.737 157.223L571.545 155.012C571.913 154.889 572.036 154.521 572.036 154.152Z" fill="#1A1A1A"/>
<path d="M572.036 152.432C572.036 152.064 571.791 151.941 571.545 152.064L567.737 154.275C567.491 154.398 567.245 154.766 567.245 155.135C567.245 155.503 567.491 155.626 567.737 155.503L571.545 153.292C571.913 153.169 572.036 152.801 572.036 152.432Z" fill="#1A1A1A"/>
<path d="M572.036 150.712C572.036 150.344 571.791 150.221 571.545 150.344L567.737 152.555C567.491 152.678 567.246 153.046 567.246 153.415C567.246 153.784 567.491 153.906 567.737 153.784L571.545 151.572C571.914 151.449 572.036 151.081 572.036 150.712Z" fill="#1A1A1A"/>
<path d="M566.262 177.983L555.329 184.248C555.697 184.003 555.943 183.511 555.943 182.897L566.876 176.632C566.999 177.246 566.753 177.738 566.262 177.983Z" fill="#2D6597"/>
<path d="M550.784 165.331L561.717 159.066L564.788 160.785L553.978 167.05L550.784 165.331Z" fill="#2D6597"/>
<path d="M556.065 170.736L566.998 164.471V176.509L556.065 182.774V170.736Z" fill="#2D6597"/>
<path d="M558.153 171.964L564.786 168.156V172.333L558.153 176.141V171.964Z" fill="white"/>
<path d="M553.976 167.05L564.909 160.785C566.015 161.399 566.998 163.119 566.998 164.47L556.065 170.735C556.065 169.384 555.082 167.787 553.976 167.05Z" fill="#2D6597"/>
<path d="M556.066 182.774C556.066 184.126 555.083 184.617 553.977 184.003L550.784 182.283V165.331L553.977 167.05C555.083 167.665 556.066 169.384 556.066 170.736V182.774Z" fill="#194B73"/>
<path d="M507.297 172.456C507.297 173.316 506.56 173.684 505.7 173.193C504.84 172.701 504.103 171.473 504.103 170.613C504.103 169.753 504.84 169.385 505.7 169.876C506.56 170.367 507.297 171.473 507.297 172.456Z" fill="white"/>
<path d="M507.297 178.229C507.297 179.089 506.56 179.458 505.7 178.966C504.84 178.475 504.103 177.246 504.103 176.387C504.103 175.527 504.84 175.158 505.7 175.649C506.56 176.141 507.297 177.369 507.297 178.229Z" fill="white"/>
<path d="M510.983 174.667V180.441C510.983 181.055 511.352 181.792 511.966 182.038L514.668 183.635L515.283 185.969L517.248 184.863C517.371 184.74 517.494 184.494 517.494 184.249V175.281C517.494 174.667 517.125 173.93 516.511 173.684L511.966 171.105C511.72 170.982 511.475 170.982 511.352 170.982L509.386 172.087L510.983 174.667Z" fill="#194B73"/>
<path d="M514.423 185.846L509.878 183.266C509.386 183.021 508.895 182.284 508.895 181.669V172.702C508.895 172.088 509.263 171.842 509.878 172.211L514.423 174.79C514.914 175.036 515.406 175.773 515.406 176.387V185.355C515.406 185.846 515.037 186.092 514.423 185.846Z" fill="#CCCCCC"/>
<path d="M514.423 177.369L510.001 174.79V173.07L514.423 175.773V177.369Z" fill="#00A9D4"/>
<path d="M510.247 175.65L510.984 176.141C511.107 176.264 511.23 176.387 511.23 176.51V177.247C511.23 177.37 511.107 177.492 510.984 177.37L510.247 176.878C510.124 176.755 510.002 176.633 510.002 176.51V175.773C510.002 175.65 510.124 175.65 510.247 175.65Z" fill="#6998AB"/>
<path d="M511.844 176.632L512.581 177.124C512.703 177.247 512.826 177.369 512.826 177.492V178.229C512.826 178.352 512.703 178.475 512.581 178.352L511.844 177.861C511.721 177.738 511.598 177.615 511.598 177.492V176.755C511.598 176.632 511.721 176.51 511.844 176.632Z" fill="#4D4D4D"/>
<path d="M513.441 177.492L514.178 177.984C514.301 178.107 514.423 178.23 514.423 178.352V179.089C514.423 179.212 514.301 179.335 514.178 179.212L513.441 178.721C513.318 178.598 513.195 178.475 513.195 178.352V177.615C513.195 177.493 513.318 177.492 513.441 177.492Z" fill="white"/>
<path d="M510.247 177.492L510.984 177.984C511.107 178.107 511.23 178.229 511.23 178.352V179.089C511.23 179.212 511.107 179.335 510.984 179.212L510.247 178.721C510.124 178.598 510.002 178.475 510.002 178.352V177.615C510.002 177.492 510.124 177.369 510.247 177.492Z" fill="#4D4D4D"/>
<path d="M511.844 178.352L512.581 178.843C512.703 178.966 512.826 179.089 512.826 179.212V179.949C512.826 180.072 512.703 180.195 512.581 180.072L511.844 179.581C511.721 179.458 511.598 179.335 511.598 179.212V178.475C511.598 178.352 511.721 178.352 511.844 178.352Z" fill="#4D4D4D"/>
<path d="M513.441 179.335L514.178 179.827C514.301 179.949 514.423 180.072 514.423 180.195V180.932C514.423 181.055 514.301 181.178 514.178 181.055L513.441 180.564C513.318 180.441 513.195 180.318 513.195 180.195V179.458C513.195 179.335 513.318 179.212 513.441 179.335Z" fill="#4D4D4D"/>
<path d="M510.247 179.212L510.984 179.704C511.107 179.827 511.23 179.949 511.23 180.072V180.809C511.23 180.932 511.107 181.055 510.984 180.932L510.247 180.441C510.124 180.318 510.002 180.195 510.002 180.072V179.335C510.002 179.212 510.124 179.09 510.247 179.212Z" fill="#4D4D4D"/>
<path d="M511.844 180.195L512.581 180.686C512.703 180.809 512.826 180.932 512.826 181.055V181.792C512.826 181.915 512.703 182.038 512.581 181.915L511.844 181.423C511.721 181.301 511.598 181.178 511.598 181.055V180.318C511.598 180.072 511.721 180.072 511.844 180.195Z" fill="#4D4D4D"/>
<path d="M513.441 181.055L514.178 181.546C514.301 181.669 514.423 181.792 514.423 181.915V182.652C514.423 182.775 514.301 182.898 514.178 182.775L513.441 182.283C513.318 182.16 513.195 182.038 513.195 181.915V181.178C513.195 181.055 513.318 180.932 513.441 181.055Z" fill="#4D4D4D"/>
<path d="M510.247 180.932L510.984 181.423C511.107 181.546 511.23 181.669 511.23 181.792V182.529C511.23 182.652 511.107 182.775 510.984 182.652L510.247 182.161C510.124 182.038 510.002 181.915 510.002 181.792V181.055C510.002 180.932 510.124 180.932 510.247 180.932Z" fill="#4D4D4D"/>
<path d="M511.844 181.915L512.581 182.406C512.703 182.529 512.826 182.652 512.826 182.775V183.512C512.826 183.635 512.703 183.757 512.581 183.635L511.844 183.143C511.721 183.02 511.598 182.897 511.598 182.775V182.038C511.598 181.915 511.721 181.792 511.844 181.915Z" fill="#4D4D4D"/>
<path d="M513.441 182.775L514.178 183.266C514.301 183.389 514.423 183.512 514.423 183.634V184.372C514.423 184.494 514.301 184.617 514.178 184.494L513.441 184.003C513.318 183.88 513.195 183.757 513.195 183.634V182.897C513.195 182.775 513.318 182.775 513.441 182.775Z" fill="#4D4D4D"/>
<path d="M527.813 193.462L521.917 190.022C521.18 189.653 520.688 188.671 520.688 187.811V176.018C520.688 175.281 521.302 174.912 521.917 175.281L527.813 178.721C528.55 179.089 529.042 180.072 529.042 180.932V192.725C529.042 193.584 528.427 193.83 527.813 193.462Z" fill="#F2F2F2"/>
<path d="M526.584 190.268C527.075 190.513 527.444 190.39 527.444 189.899V182.406C527.444 181.914 527.075 181.3 526.584 181.054C526.093 180.809 525.724 180.932 525.724 181.423V188.916C525.724 189.408 526.093 189.899 526.584 190.268Z" fill="#1A1A1A"/>
<path d="M522.9 188.179C523.391 188.425 523.759 188.302 523.759 187.811V180.317C523.759 179.826 523.391 179.212 522.9 178.966C522.408 178.72 522.04 178.843 522.04 179.335V186.828C522.162 187.319 522.531 187.934 522.9 188.179Z" fill="#1A1A1A"/>
<path d="M523.544 178.473L528.25 183.658L527.522 184.319L522.816 179.134L523.544 178.473Z" fill="#CCCCCC"/>
<path d="M521.917 178.843C521.917 179.58 522.531 180.194 523.268 180.194C524.005 180.194 524.619 179.58 524.619 178.843C524.619 178.106 524.005 177.492 523.268 177.492C522.531 177.492 521.917 178.106 521.917 178.843Z" fill="#6998AB"/>
<path opacity="0.5" d="M522.284 178.72C522.406 178.843 522.652 178.72 522.775 178.475C522.898 178.229 522.898 177.983 522.652 177.983C522.529 177.861 522.284 177.983 522.161 178.229C522.038 178.475 522.038 178.72 522.284 178.72Z" fill="#F2F2F2"/>
<path d="M524.159 183.745L524.913 184.375L520.582 189.56L519.828 188.93L524.159 183.745Z" fill="#CCCCCC"/>
<path d="M520.197 190.513C519.45 190.513 518.845 189.908 518.845 189.162C518.845 188.415 519.45 187.81 520.197 187.81C520.943 187.81 521.548 188.415 521.548 189.162C521.548 189.908 520.943 190.513 520.197 190.513Z" fill="#6998AB"/>
<path opacity="0.5" d="M519.214 189.162C519.337 189.285 519.583 189.162 519.706 188.916C519.828 188.67 519.828 188.425 519.583 188.425C519.46 188.302 519.214 188.425 519.091 188.67C519.091 188.916 519.091 189.162 519.214 189.162Z" fill="#F2F2F2"/>
<path d="M587.76 157.591L584.443 155.626V181.914L587.883 183.88L587.76 157.591Z" fill="#585858"/>
<path d="M591.2 154.029L587.883 152.063C585.058 150.466 583.584 149.606 580.759 148.009L584.075 149.975C586.778 151.572 588.375 152.432 591.2 154.029Z" fill="#2E2E2E"/>
<path d="M541.815 182.528L538.376 180.563L538.499 208.448L541.938 210.413L541.815 182.528Z" fill="#808080"/>
<path d="M548.818 170.244L545.501 168.279C542.798 173.069 541.201 175.772 538.499 180.563L541.816 182.528C544.518 177.737 546.115 175.035 548.818 170.244Z" fill="#808080"/>
<path d="M584.073 149.975L580.634 148.009L545.501 168.278L548.817 170.244L584.073 149.975Z" fill="#585858"/>
<path d="M548.818 170.244C546.115 175.035 544.519 177.738 541.816 182.528L541.939 210.414L545.378 208.448L545.256 182.16L550.292 173.315L582.6 154.643L587.759 157.591L587.882 183.88L591.321 181.914L591.199 154.029C588.373 152.432 586.899 151.572 584.074 149.975L548.818 170.244Z" fill="black"/>
<path d="M617.24 210.905L638 222.943V229.454L623.259 250.091L612.203 243.704V208.079L617.24 210.905Z" fill="#194B73"/>
<path d="M617.24 210.905L638 222.943V229.454L623.259 250.091L612.203 243.704V208.079L617.24 210.905Z" fill="#11324E"/>
<path d="M611.467 197.884C610.484 197.27 608.764 197.27 607.782 197.884C607.29 198.13 607.044 198.621 607.044 198.99V239.405C607.044 239.773 607.29 240.142 607.782 240.51C608.764 241.125 610.484 241.125 611.467 240.51C611.958 240.265 612.204 239.773 612.204 239.405V198.99C612.204 198.621 611.958 198.253 611.467 197.884Z" fill="#B3B3B3"/>
<path d="M594.145 207.465C593.162 206.851 591.442 206.851 590.46 207.465C589.968 207.711 589.723 208.203 589.723 208.571V248.986C589.723 249.355 589.968 249.723 590.46 250.092C591.442 250.706 593.162 250.706 594.145 250.092C594.636 249.846 594.882 249.355 594.882 248.986V208.571C594.882 208.203 594.636 207.834 594.145 207.465Z" fill="#B3B3B3"/>
<path d="M596.724 204.394H596.233L597.707 204.64L596.724 204.394L613.922 204.886V209.185C613.922 209.677 613.554 210.168 612.94 210.536L594.513 221.224C592.671 222.207 589.6 221.838 588.862 220.487L579.649 204.517C579.526 204.272 579.526 204.149 579.526 203.903V199.604L596.724 204.394Z" fill="black"/>
<path d="M594.514 216.924L612.94 206.237C614.783 205.254 614.046 203.412 611.589 202.92L583.95 197.638C581.247 197.147 578.79 198.621 579.65 200.095L588.863 216.064C589.6 217.539 592.671 217.907 594.514 216.924Z" fill="#666666"/>
<path d="M585.301 29.4668C584.318 28.8526 582.598 28.8526 581.615 29.4668C581.124 29.7125 580.878 30.2039 580.878 30.5724V199.604C580.878 199.972 581.124 200.341 581.615 200.709C582.598 201.323 584.318 201.323 585.301 200.709C585.792 200.463 586.038 199.972 586.038 199.604V30.4496C586.161 30.081 585.915 29.7125 585.301 29.4668Z" fill="#B3B3B3"/>
<path d="M592.672 120.739C593.532 120.739 594.269 120.493 594.883 120.248L607.044 113.246C608.027 112.754 608.395 111.771 608.273 110.912C608.15 109.806 607.167 109.069 605.693 108.823L587.389 105.261C585.792 104.892 584.073 105.506 583.336 106.489C582.844 107.226 582.844 107.963 583.213 108.7L589.355 119.265C590.092 120.248 591.32 120.739 592.672 120.739ZM605.57 111.157L593.654 118.036C592.917 118.405 591.812 118.159 591.566 117.914L585.67 107.718C585.915 107.595 586.407 107.472 587.021 107.595L605.324 111.157C605.447 111.157 605.447 111.157 605.57 111.157Z" fill="black"/>
<path d="M592.672 81.1839C593.532 81.1839 594.269 80.9382 594.883 80.6925L607.044 73.6905C608.027 73.1991 608.395 72.2164 608.273 71.3565C608.15 70.2509 607.167 69.5139 605.693 69.2682L587.389 65.7058C585.792 65.3372 584.073 65.9514 583.336 66.9342C582.844 67.6712 582.844 68.4083 583.213 69.1453L589.355 79.7098C590.092 80.6925 591.32 81.1839 592.672 81.1839ZM605.57 71.725L593.654 78.6042C592.917 78.9727 591.812 78.727 591.566 78.4814L585.67 68.2854C585.915 68.1626 586.407 68.0398 587.021 68.1626L605.324 71.6022C605.447 71.6022 605.447 71.6022 605.57 71.725Z" fill="black"/>
<path d="M592.672 154.766C593.532 154.766 594.269 154.521 594.883 154.275L607.044 147.273C608.027 146.782 608.395 145.922 608.273 144.939C608.15 143.833 607.167 143.096 605.693 142.851L587.389 139.288C585.792 138.92 584.073 139.534 583.336 140.517C582.844 141.254 582.844 141.991 583.213 142.728L589.355 153.292C590.092 154.275 591.32 154.766 592.672 154.766ZM605.57 145.185L593.654 152.064C592.917 152.432 591.812 152.187 591.566 151.941L585.67 141.745C585.915 141.622 586.407 141.499 587.021 141.622L605.324 145.185C605.447 145.185 605.447 145.185 605.57 145.185Z" fill="black"/>
<path d="M592.672 188.794C593.532 188.794 594.269 188.548 594.883 188.302L607.044 181.3C608.027 180.809 608.395 179.949 608.273 178.966C608.15 177.861 607.167 177.123 605.693 176.878L587.389 173.315C585.792 172.947 584.073 173.561 583.336 174.544C582.844 175.281 582.844 176.018 583.213 176.755L589.355 187.319C590.092 188.302 591.32 188.794 592.672 188.794ZM605.57 179.212L593.654 186.091C592.917 186.46 591.812 186.214 591.566 185.968L585.67 175.772C585.915 175.649 586.407 175.527 587.021 175.649L605.324 179.212C605.447 179.089 605.447 179.212 605.57 179.212Z" fill="black"/>
<path d="M611.467 34.5038C610.484 33.8896 608.764 33.8896 607.782 34.5038C607.29 34.7495 607.044 35.2409 607.044 35.6094V204.641C607.044 205.009 607.29 205.378 607.782 205.746C608.764 206.36 610.484 206.36 611.467 205.746C611.958 205.5 612.204 205.009 612.204 204.641V35.6094C612.204 35.2409 611.958 34.7495 611.467 34.5038Z" fill="#B3B3B3"/>
<path d="M594.145 44.0852C593.162 43.471 591.442 43.471 590.46 44.0852C589.968 44.3309 589.723 44.8223 589.723 45.1908V214.222C589.723 214.59 589.968 214.959 590.46 215.328C591.442 215.942 593.162 215.942 594.145 215.328C594.636 215.082 594.882 214.59 594.882 214.222V45.1908C594.882 44.8223 594.636 44.4538 594.145 44.0852Z" fill="#B3B3B3"/>
<path d="M596.724 31.8008H596.233L597.707 32.0465L596.724 31.8008L613.922 32.2922V36.5917C613.922 37.083 613.554 37.5744 612.94 37.9429L594.513 48.6302C592.671 49.6129 589.6 49.2444 588.862 47.8932L579.649 31.9236C579.526 31.678 579.526 31.5551 579.526 31.3094V27.0099L596.724 31.8008Z" fill="black"/>
<path d="M594.514 44.3308L612.94 33.6435C614.783 32.6607 614.046 30.8181 611.589 30.3267L583.95 25.0445C581.247 24.5531 578.79 26.0272 579.65 27.5014L588.863 43.4709C589.6 44.945 592.671 45.3135 594.514 44.3308Z" fill="#666666"/>
<path d="M595.866 140.762V163.119L592.549 161.277L592.672 138.796L595.866 140.762Z" fill="#606060"/>
<path d="M620.436 138.551L620.313 161.031L606.063 169.262V146.904L620.436 138.551Z" fill="black"/>
<path d="M601.027 146.904L600.904 169.261L593.043 164.716L593.165 142.359L601.027 146.904Z" fill="#3B3B3B"/>
<path d="M606.061 146.904L605.939 169.384C603.973 169.384 602.868 169.384 600.779 169.384L600.902 146.904C602.99 146.904 604.096 146.904 606.061 146.904Z" fill="#808080"/>
<path d="M620.436 135.603C620.436 136.708 620.436 137.445 620.436 138.551L606.186 146.904C604.22 146.904 603.115 146.904 601.027 146.904L593.165 142.359L595.867 140.762L592.55 138.919L606.432 130.812L609.748 132.654L612.451 131.057L620.436 135.603Z" fill="#CCCCCC"/>
<path d="M601.025 146.904L600.902 169.261L593.04 164.716L593.163 142.359L601.025 146.904Z" fill="black"/>
<path d="M620.435 135.603C620.435 136.708 620.435 137.445 620.435 138.551L606.185 146.904C604.22 146.904 603.114 146.904 601.026 146.904L593.164 142.359L595.866 140.762L592.55 138.919L606.431 130.812L609.747 132.654L612.45 131.057L620.435 135.603Z" fill="#666666"/>
<path d="M594.883 112.385V141.376L593.163 142.359L593.04 164.839L589.601 167.419V114.597C591.321 113.737 593.04 113 594.883 112.385Z" fill="#B3B3B3"/>
<path d="M619.944 152.555C619.453 152.309 618.716 152.309 618.225 152.555C617.979 152.678 617.856 152.924 617.856 153.046V259.919C617.856 260.042 617.979 260.288 618.225 260.411C618.716 260.656 619.453 260.656 619.944 260.411C620.19 260.288 620.313 260.042 620.313 259.919V153.046C620.313 152.801 620.19 152.678 619.944 152.555Z" fill="#1A1A1A"/>
<path d="M619.083 260.656C619.206 260.656 619.329 260.656 619.329 260.656C617.855 259.305 617.855 257.954 617.855 257.954V253.777C616.749 254.146 616.012 254.514 615.643 255.128C613.924 257.217 616.749 260.656 619.083 260.656Z" fill="#808080"/>
<path d="M615.644 255.128L617.855 256.848V253.777C616.749 254.023 616.012 254.514 615.644 255.128Z" fill="#4D4D4D"/>
<path d="M620.312 253.04C620.312 253.04 622.155 252.672 623.383 253.409C624.611 254.146 623.014 254.883 623.014 254.883C623.014 254.883 620.312 255.866 616.872 253.9C613.433 251.935 614.293 249.109 614.293 249.109C614.293 249.109 614.784 246.653 617.855 245.793V249.969C617.855 249.969 617.855 251.689 620.312 253.286V253.04Z" fill="#808080"/>
<path d="M617.855 245.67V248.741L615.521 246.898C616.012 246.53 616.749 246.038 617.855 245.67Z" fill="#4D4D4D"/>
<path d="M620.312 244.932C620.312 244.932 622.155 244.564 623.383 245.301C624.611 246.038 623.014 246.775 623.014 246.775C623.014 246.775 620.312 247.758 616.872 245.792C613.433 243.827 614.293 241.001 614.293 241.001C614.293 241.001 614.784 238.545 617.855 237.685V241.861C617.855 241.861 617.855 243.581 620.312 245.178V244.932Z" fill="#808080"/>
<path d="M617.855 237.562V240.633L615.521 238.79C616.012 238.422 616.749 237.931 617.855 237.562Z" fill="#4D4D4D"/>
<path d="M620.312 236.825C620.312 236.825 622.155 236.457 623.383 237.194C624.611 237.931 623.014 238.668 623.014 238.668C623.014 238.668 620.312 239.651 616.872 237.685C613.433 235.72 614.293 232.894 614.293 232.894C614.293 232.894 614.784 230.437 617.855 229.578V233.754C617.855 233.754 617.855 235.474 620.312 237.071V236.825Z" fill="#808080"/>
<path d="M617.855 229.578V232.649L615.521 230.806C616.012 230.315 616.749 229.823 617.855 229.578Z" fill="#4D4D4D"/>
<path d="M620.312 228.717C620.312 228.717 622.155 228.349 623.383 229.086C624.611 229.823 623.014 230.56 623.014 230.56C623.014 230.56 620.312 231.543 616.872 229.577C613.433 227.612 614.293 224.786 614.293 224.786C614.293 224.786 614.784 222.329 617.855 221.469V225.646C617.855 225.646 617.855 227.366 620.312 228.963V228.717Z" fill="#808080"/>
<path d="M617.855 221.469V224.541L615.521 222.698C616.012 222.207 616.749 221.715 617.855 221.469Z" fill="#4D4D4D"/>
<path d="M620.312 220.733C620.312 220.733 622.155 220.364 623.383 221.101C624.611 221.838 623.014 222.575 623.014 222.575C623.014 222.575 620.312 223.558 616.872 221.593C613.433 219.627 614.293 216.802 614.293 216.802C614.293 216.802 614.784 214.345 617.855 213.485V217.662C617.855 217.662 617.855 219.381 620.312 220.978V220.733Z" fill="#808080"/>
<path d="M617.855 213.362V216.433L615.521 214.59C616.012 214.099 616.749 213.608 617.855 213.362Z" fill="#4D4D4D"/>
<path d="M620.312 212.625C620.312 212.625 622.155 212.256 623.383 212.993C624.611 213.73 623.014 214.467 623.014 214.467C623.014 214.467 620.312 215.45 616.872 213.485C613.433 211.519 614.293 208.694 614.293 208.694C614.293 208.694 614.784 206.237 617.855 205.377V209.554C617.855 209.554 617.855 211.274 620.312 212.871V212.625Z" fill="#808080"/>
<path d="M617.855 205.254V208.325L615.521 206.483C616.012 206.114 616.749 205.623 617.855 205.254Z" fill="#4D4D4D"/>
<path d="M620.312 204.518C620.312 204.518 622.155 204.149 623.383 204.886C624.611 205.623 623.014 206.36 623.014 206.36C623.014 206.36 620.312 207.343 616.872 205.377C613.433 203.412 614.293 200.587 614.293 200.587C614.293 200.587 614.784 198.13 617.855 197.27V201.447C617.855 201.447 617.855 203.166 620.312 204.763V204.518Z" fill="#808080"/>
<path d="M617.855 197.147V200.218L615.521 198.375C616.012 198.007 616.749 197.515 617.855 197.147Z" fill="#4D4D4D"/>
<path d="M620.312 196.41C620.312 196.41 622.155 196.041 623.383 196.778C624.611 197.515 623.014 198.252 623.014 198.252C623.014 198.252 620.312 199.235 616.872 197.27C613.433 195.304 614.293 192.479 614.293 192.479C614.293 192.479 614.784 190.022 617.855 189.162V193.339C617.855 193.339 617.855 195.058 620.312 196.655V196.41Z" fill="#808080"/>
<path d="M617.855 189.162V192.233L615.521 190.39C616.012 189.899 616.749 189.408 617.855 189.162Z" fill="#4D4D4D"/>
<path d="M593.777 249.969L612.204 239.282V211.028L593.777 221.593V249.969Z" fill="#11324E"/>
<path d="M596.355 223.067L617.115 234.982V241.616L602.374 262.13L591.318 255.743V220.118L596.355 223.067Z" fill="#2D6597"/>
<path d="M614.29 240.633V236.702L594.144 225.155V254.146L601.637 258.445L614.29 240.633Z" fill="#194B73"/>
<path d="M532.48 241.985V243.459C532.48 244.442 533.094 245.424 534.445 246.161C537.025 247.636 541.324 247.636 544.027 246.161C545.378 245.424 545.992 244.442 545.992 243.459V241.985H532.48Z" fill="black"/>
<path d="M539.114 245.915C535.382 245.915 532.357 244.156 532.357 241.985C532.357 239.814 535.382 238.054 539.114 238.054C542.845 238.054 545.87 239.814 545.87 241.985C545.87 244.156 542.845 245.915 539.114 245.915Z" fill="#585858"/>
<path d="M535.427 241.738L539.113 243.95V203.043L535.427 200.832V241.738Z" fill="#999999"/>
<path d="M538.007 203.657L536.532 202.797V241.124L538.007 241.984V203.657Z" fill="#333333"/>
<path d="M535.428 200.832L539.113 203.043L542.921 200.832L539.113 198.621L535.428 200.832Z" fill="#585858"/>
<path d="M542.921 241.738L539.113 243.95V203.043L542.921 200.832V241.738Z" fill="#333333"/>
<path d="M487.396 215.942V217.416C487.396 218.399 488.01 219.381 489.362 220.118C491.941 221.593 496.241 221.593 498.943 220.118C500.295 219.381 500.909 218.399 500.909 217.416V215.942H487.396Z" fill="black"/>
<path d="M494.153 219.873C490.421 219.873 487.396 218.113 487.396 215.942C487.396 213.771 490.421 212.011 494.153 212.011C497.884 212.011 500.909 213.771 500.909 215.942C500.909 218.113 497.884 219.873 494.153 219.873Z" fill="#585858"/>
<path d="M490.344 215.696L494.152 217.907V177.001L490.344 174.79V215.696Z" fill="#999999"/>
<path d="M492.925 177.615L491.451 176.755V215.082L492.925 215.942V177.615Z" fill="#333333"/>
<path d="M490.344 174.79L494.152 177.001L497.838 174.79L494.152 172.701L490.344 174.79Z" fill="#585858"/>
<path d="M497.838 215.696L494.152 217.907V177.001L497.838 174.79V215.696Z" fill="#333333"/>
<path d="M513.927 196.779C510.61 194.936 507.662 194.69 505.573 195.919L499.186 199.604C497.097 200.832 495.746 203.412 495.746 207.097C495.746 214.591 500.905 223.558 507.416 227.366C510.856 229.332 514.05 229.455 516.138 227.858C516.015 227.981 515.892 228.103 515.769 228.103L522.157 224.418C524.246 223.19 525.597 220.61 525.597 216.925C525.597 209.554 520.437 200.587 513.927 196.779Z" fill="black"/>
<path d="M495.749 207.22C495.749 214.714 500.908 223.681 507.419 227.489C513.93 231.175 519.212 228.226 519.212 220.733C519.212 213.24 514.052 204.272 507.542 200.464C501.031 196.779 495.872 199.727 495.749 207.22ZM507.542 223.435C502.997 220.856 499.311 214.468 499.311 209.309C499.311 204.149 502.997 202.061 507.542 204.641C512.087 207.22 515.772 213.608 515.772 218.767C515.772 223.927 512.087 226.015 507.542 223.435Z" fill="black"/>
<path d="M499.311 209.186C499.311 214.345 502.997 220.733 507.542 223.313C512.087 225.893 515.772 223.804 515.772 218.645C515.772 213.486 512.087 207.098 507.542 204.518C502.997 201.938 499.311 204.027 499.311 209.186Z" fill="#CCCCCC"/>
<path d="M512.577 219.75C512.946 219.136 513.191 218.276 513.191 217.294C513.191 213.731 510.612 209.309 507.541 207.466C506.681 206.975 505.821 206.729 505.084 206.729C503.241 206.729 501.89 208.203 501.89 210.783C501.89 214.345 504.47 218.768 507.541 220.61C509.752 221.839 511.717 221.47 512.577 219.75Z" fill="white"/>
<path d="M513.927 196.779C510.61 194.936 507.662 194.69 505.573 195.919L499.186 199.604C501.274 198.376 504.222 198.498 507.539 200.464C514.05 204.149 519.209 213.24 519.209 220.733C519.209 224.418 517.858 226.998 515.769 228.226L522.157 224.541C524.246 223.313 525.597 220.733 525.597 217.048C525.597 209.554 520.437 200.587 513.927 196.779Z" fill="black"/>
<path d="M512.579 219.75C512.947 219.136 513.193 218.276 513.193 217.293C513.193 213.731 510.613 209.309 507.542 207.466C506.682 206.975 505.822 206.729 505.085 206.729C504.717 207.343 504.471 208.203 504.471 209.186C504.471 212.748 507.051 217.17 510.122 219.013C510.982 219.504 511.841 219.75 512.579 219.75Z" fill="#B3B3B3"/>
<path d="M492.678 198.867C492.555 198.989 492.555 198.989 492.678 198.867C493.17 198.375 493.661 197.884 494.275 197.393C494.644 197.024 495.012 196.778 495.504 196.533C495.381 196.533 495.381 196.655 495.258 196.655L503.243 191.987C503.611 191.742 504.103 191.619 504.471 191.496C505.085 191.25 505.822 191.128 506.437 190.882C508.279 190.391 510.736 190.759 513.193 192.233L519.949 196.164C525.969 199.604 530.882 208.08 531.005 214.59L529.531 216.31L521.546 220.978L519.335 221.347L519.212 221.224C517.615 220.364 516.264 218.399 515.65 216.433C514.421 212.379 511.596 208.448 508.279 206.483L501.523 202.552C500.909 202.183 500.295 201.938 499.803 201.815L495.381 204.395C495.381 204.395 495.504 204.395 495.504 204.272C495.012 204.64 494.152 204.763 492.801 205.132C492.801 205.132 492.924 205.132 492.924 205.009C492.187 205.254 491.327 205.132 490.467 204.64L490.344 204.517C490.467 202.061 491.327 200.095 492.678 198.867Z" fill="black"/>
<path d="M501.524 198.989C495.505 195.55 490.468 198.252 490.346 204.64L490.468 204.763C492.065 205.623 493.417 205.377 494.031 204.149C495.259 201.569 498.085 200.832 501.401 202.675L508.158 206.606C511.474 208.571 514.3 212.502 515.528 216.556C516.143 218.521 517.494 220.487 519.091 221.347L519.214 221.47C519.091 214.959 514.177 206.483 508.158 203.043L501.524 198.989Z" fill="#333333"/>
<path d="M494.152 197.515C496.241 195.55 499.557 195.427 503.365 197.515L510.122 201.446C516.387 205.009 521.423 213.731 521.546 220.978L519.335 221.347C519.212 214.836 514.298 206.36 508.279 202.92L501.523 198.99C497.838 196.901 494.521 197.024 492.555 198.867C493.047 198.498 493.661 198.007 494.152 197.515Z" fill="#666666"/>
<path d="M621.417 173.315V174.667C621.417 175.035 621.171 175.404 620.679 175.649C619.697 176.141 618.223 176.141 617.24 175.649C616.749 175.404 616.503 175.035 616.503 174.667V173.315H621.417Z" fill="#4D4D4D"/>
<path d="M618.96 174.666C617.603 174.666 616.503 174.061 616.503 173.315C616.503 172.569 617.603 171.964 618.96 171.964C620.317 171.964 621.417 172.569 621.417 173.315C621.417 174.061 620.317 174.666 618.96 174.666Z" fill="#CCCCCC"/>
<path d="M616.749 169.262C618.101 168.893 619.82 168.893 621.172 169.262H623.874V171.841C623.874 172.578 623.383 173.315 622.4 173.93C620.435 175.035 617.364 175.035 615.398 173.93C614.415 173.315 613.924 172.578 613.924 171.841V169.262H616.749Z" fill="#1A1A1A"/>
<path d="M609.502 164.593L614.416 170.49C614.661 170.736 615.03 170.981 615.398 171.227C615.644 171.35 615.89 171.473 616.258 171.595C616.75 171.841 617.364 171.964 617.855 171.964C618.101 171.964 618.224 171.964 618.469 171.964C618.715 171.964 618.961 171.964 619.084 171.964C620.312 171.964 621.54 171.718 622.4 171.104C622.769 170.858 623.137 170.613 623.383 170.367L628.297 164.471H609.502V164.593Z" fill="#808080"/>
<path d="M609.502 144.816V163.488C609.502 164.102 609.625 164.716 610.116 165.33C610.239 165.453 610.362 165.699 610.485 165.822C610.853 166.19 611.222 166.559 611.713 166.927C611.959 167.05 612.082 167.173 612.327 167.296C612.45 167.419 612.696 167.419 612.819 167.542C613.187 167.787 613.556 167.91 614.047 168.033C614.416 168.156 614.784 168.279 615.153 168.402C615.521 168.524 615.89 168.647 616.381 168.647C616.75 168.77 617.118 168.77 617.487 168.77C617.855 168.77 618.224 168.893 618.715 168.893C618.838 168.893 619.084 168.893 619.207 168.893C619.452 168.893 619.575 168.893 619.821 168.893C620.189 168.893 620.558 168.893 621.049 168.77C621.418 168.77 621.786 168.647 622.155 168.647C622.523 168.524 622.892 168.524 623.383 168.402C623.752 168.279 624.12 168.156 624.489 168.033C624.489 168.033 624.489 168.033 624.612 168.033C624.857 167.91 625.103 167.91 625.226 167.787H625.349C625.472 167.787 625.594 167.664 625.717 167.664C625.84 167.542 625.963 167.542 626.086 167.419C626.331 167.296 626.577 167.173 626.7 167.05C627.191 166.682 627.56 166.313 627.928 165.945C628.543 165.208 628.911 164.348 628.911 163.611V144.939C628.911 143.342 628.543 141.745 627.806 140.393C627.56 139.902 627.191 139.411 626.823 138.919C626.209 138.182 625.594 137.568 624.857 137.077C624.366 136.708 623.875 136.462 623.26 136.217C622.155 135.725 620.926 135.48 619.575 135.48C619.452 135.48 619.452 135.48 619.329 135.48C613.679 135.48 609.502 139.656 609.502 144.816Z" fill="#1A1A1A"/>
<path d="M626.331 142.113V166.805C626.822 166.436 627.191 166.068 627.559 165.699V141.99H626.331V142.113Z" fill="#4D4D4D"/>
<path d="M624.12 142.113V168.033C624.12 168.033 624.12 168.033 624.242 168.033C624.488 167.91 624.734 167.91 624.857 167.787H624.979C625.102 167.787 625.225 167.665 625.348 167.665V142.236H624.12V142.113Z" fill="#4D4D4D"/>
<path d="M621.785 142.113V168.647C622.154 168.525 622.522 168.525 623.014 168.402V142.113H621.785Z" fill="#4D4D4D"/>
<path d="M619.575 142.113V168.893C619.943 168.893 620.312 168.893 620.803 168.77V142.113H619.575V142.113Z" fill="#4D4D4D"/>
<path d="M617.24 142.113V168.77C617.608 168.77 617.977 168.893 618.468 168.893V142.113H617.24V142.113Z" fill="#4D4D4D"/>
<path d="M615.029 142.113V168.402C615.397 168.525 615.766 168.647 616.257 168.647V142.113H615.029Z" fill="#4D4D4D"/>
<path d="M612.818 142.113V167.542C613.187 167.787 613.555 167.91 614.047 168.033V142.113H612.818Z" fill="#4D4D4D"/>
<path d="M610.483 142.113V165.822C610.852 166.191 611.22 166.559 611.712 166.928V142.113H610.483V142.113Z" fill="#4D4D4D"/>
<path d="M609.133 145.798C609.133 147.395 610.238 148.869 612.081 150.098C613.923 151.203 616.38 151.695 618.96 151.695C621.54 151.695 623.996 151.081 625.839 150.098C627.805 148.992 628.787 147.518 628.787 145.798C628.787 145.184 628.664 144.57 628.296 144.078V145.798C628.296 148.992 623.628 151.203 618.837 151.203C616.994 151.203 615.029 150.958 613.309 150.221C611.958 149.729 610.484 148.747 609.87 147.518C609.624 147.027 609.378 146.412 609.378 145.798V144.078C609.255 144.57 609.133 145.184 609.133 145.798Z" fill="#4D4D4D"/>
<path d="M610.115 165.576C610.115 165.33 610.115 165.208 610.238 164.962C610.484 165.453 610.975 165.822 611.344 166.19C611.344 166.436 611.466 166.682 611.589 166.927C611.958 167.542 612.572 168.156 613.432 168.77C616.503 170.613 621.539 170.613 624.611 168.77C625.47 168.279 626.207 167.664 626.453 166.927C626.576 166.682 626.699 166.436 626.699 166.19C627.19 165.822 627.559 165.453 627.804 164.962C627.804 165.208 627.927 165.33 627.927 165.576C627.927 165.699 627.927 165.699 627.927 165.822C627.927 167.296 626.945 168.77 625.225 169.753C623.505 170.735 621.294 171.227 619.083 171.227C616.871 171.227 614.537 170.735 612.941 169.753C611.221 168.77 610.238 167.296 610.238 165.822C609.992 165.699 609.992 165.576 610.115 165.576Z" fill="#1A1A1A"/>
<path d="M609.133 162.996C609.133 163.856 609.501 164.716 610.116 165.576C610.484 166.067 610.975 166.436 611.59 166.927C611.713 167.05 611.958 167.173 612.204 167.296C614.047 168.401 616.503 168.893 619.083 168.893C621.663 168.893 624.12 168.278 625.962 167.296C626.208 167.173 626.331 167.05 626.576 166.927C627.191 166.559 627.682 166.067 628.051 165.576C628.665 164.839 629.033 163.979 629.033 162.996C629.033 162.382 628.91 161.768 628.542 161.276V162.996C628.542 163.733 628.296 164.347 627.928 164.962C627.682 165.453 627.314 165.822 626.822 166.19C624.98 167.664 622.031 168.524 619.083 168.524C617.24 168.524 615.275 168.278 613.555 167.541C612.818 167.173 611.958 166.804 611.344 166.19C610.853 165.822 610.484 165.453 610.238 164.962C610.238 164.839 610.116 164.839 610.116 164.716C609.87 164.225 609.624 163.61 609.624 162.996V161.276C609.256 161.768 609.133 162.382 609.133 162.996Z" fill="#4D4D4D"/>
<path d="M628.418 145.799C628.418 148.993 623.75 151.204 618.96 151.204C617.117 151.204 615.151 150.958 613.432 150.221C612.08 149.73 610.606 148.747 609.992 147.518C609.746 147.027 609.501 146.413 609.501 145.799V144.816C609.501 139.657 613.554 135.603 618.714 135.48C618.837 135.48 618.837 135.48 618.96 135.48C620.311 135.48 621.539 135.726 622.645 136.217C623.259 136.463 623.75 136.708 624.242 137.077C624.979 137.568 625.716 138.182 626.207 138.92C626.576 139.411 626.944 139.902 627.19 140.394C627.927 141.745 628.296 143.219 628.296 144.816V145.799H628.418Z" fill="#808080"/>
<path d="M623.998 135.971V137.076C623.998 137.813 623.507 138.55 622.524 139.164C620.559 140.27 617.487 140.27 615.522 139.164C614.539 138.55 614.048 137.813 614.048 137.076V135.971H623.998Z" fill="black"/>
<path d="M615.522 134.005C613.557 135.111 613.557 136.953 615.522 138.059C617.488 139.165 620.559 139.165 622.524 138.059C624.49 136.953 624.49 135.111 622.524 134.005C620.559 132.9 617.365 132.9 615.522 134.005Z" fill="#CCCCCC"/>
<path d="M622.524 133.882V135.848C622.524 136.339 622.156 136.83 621.542 137.322C620.19 138.059 617.979 138.059 616.628 137.322C615.891 136.953 615.645 136.462 615.645 135.848V133.882H622.524Z" fill="black"/>
<path d="M618.962 135.97C616.995 135.97 615.4 135.035 615.4 133.882C615.4 132.729 616.995 131.794 618.962 131.794C620.929 131.794 622.524 132.729 622.524 133.882C622.524 135.035 620.929 135.97 618.962 135.97Z" fill="#CCCCCC"/>
<path d="M570.56 200.832C572.649 200.832 574.614 200.463 576.457 199.604C587.39 194.813 589.478 177.369 591.689 158.943C593.777 140.885 596.111 122.213 607.167 121.476C610.238 121.23 612.572 121.967 614.046 123.441C616.012 125.407 616.872 128.969 616.626 133.76C616.995 135.603 621.54 135.357 621.417 134.006C621.785 127.741 620.434 122.95 617.486 120.002C614.906 117.422 611.344 116.316 606.799 116.685C591.812 117.79 589.355 138.428 587.021 158.328C585.056 174.667 583.09 191.496 574.614 195.181C569.332 197.515 561.224 194.69 550.414 186.705C548.449 185.477 545.992 189.53 547.589 190.513C556.679 197.515 564.418 200.832 570.56 200.832Z" fill="#333333"/>
</svg>
