<svg width="578" height="280" viewBox="0 0 578 280" fill="none" xmlns="http://www.w3.org/2000/svg">
<path d="M447.644 223.66L440.581 229.892C440.581 229.892 432.272 233.631 431.441 237.162C430.818 240.693 436.427 243.186 440.581 242.355C444.736 241.524 448.89 235.708 452.006 234.254C455.122 232.8 458.861 232.385 459.484 230.307C460.107 228.23 457.407 221.998 457.407 221.998L447.644 223.66Z" fill="#694C2F"/>
<path d="M447.644 221.376L440.581 227.607C440.581 227.607 432.272 231.346 431.441 234.878C430.818 238.409 436.427 240.902 440.581 240.071C444.736 239.24 448.89 233.424 452.006 231.969C455.122 230.515 458.861 230.1 459.484 228.023C460.107 225.946 457.407 219.714 457.407 219.714L447.644 221.376Z" fill="black"/>
<path d="M444.32 124.161C444.32 124.161 444.943 117.722 440.788 128.523C436.634 139.325 429.987 175.053 432.064 177.131C434.141 179.208 444.112 212.443 445.358 216.39C446.812 220.337 446.812 221.999 446.812 221.999C446.812 221.999 452.836 225.945 456.16 223.037C459.483 220.129 459.483 217.429 459.483 216.806C459.483 216.182 459.483 194.787 456.16 188.555C452.836 182.531 450.136 177.338 450.136 177.338C450.136 177.338 459.483 136.417 461.353 133.717C463.222 131.016 444.32 124.161 444.32 124.161Z" fill="#004759"/>
<path d="M463.637 230.723C463.637 230.723 462.391 240.071 460.937 240.486C459.483 241.109 455.951 248.795 457.821 251.08C459.69 253.365 463.014 253.988 466.545 252.742C470.077 251.288 473.4 244.848 473.608 240.486C473.815 236.124 474.646 231.554 473.816 229.684C472.985 227.815 468.83 226.361 469.246 226.153C469.453 225.53 463.637 230.723 463.637 230.723Z" fill="#694C2F"/>
<path d="M463.637 228.854C463.637 228.854 462.391 238.201 460.937 238.617C459.483 239.24 455.951 246.926 457.821 249.211C459.69 251.495 463.014 252.119 466.545 250.872C470.077 249.418 473.4 242.979 473.608 238.617C473.815 234.255 474.646 229.685 473.816 227.815C472.985 225.946 468.83 224.492 469.246 224.284C469.453 223.661 463.637 228.854 463.637 228.854Z" fill="black"/>
<path d="M452.212 133.094C452.212 133.094 454.912 187.309 456.782 190.217C458.651 193.125 462.598 209.743 463.014 217.221C463.429 224.699 461.767 231.139 466.129 232.593C470.492 234.047 471.738 232.593 473.607 229.685C475.477 226.776 479.424 206.835 478.593 202.265C477.762 197.695 474.646 192.087 474.854 189.386C475.062 186.686 481.085 144.311 478.8 138.91C476.308 133.509 454.705 124.785 452.212 133.094Z" fill="#004759"/>
<path d="M450.967 79.9163L452.213 77.8391C452.213 77.8391 444.943 76.5928 442.658 83.2399C440.373 89.887 439.957 95.2878 439.334 97.7805C438.711 100.273 436.011 106.92 436.011 106.92C436.011 106.92 433.518 108.167 430.817 111.698C428.117 115.437 422.509 125.408 422.509 125.408L427.078 128.108C427.286 128.316 425.417 131.016 429.779 129.977C434.141 128.731 443.281 123.123 446.397 112.736C449.305 102.143 450.967 79.9163 450.967 79.9163Z" fill="#004759"/>
<path d="M481.71 109.205C482.541 104.843 487.942 94.249 483.579 88.8483C481.087 85.5247 475.894 83.032 472.155 81.578C472.362 81.7857 456.575 65.1679 450.344 78.4621C448.267 83.032 440.165 98.4035 440.373 101.727C440.581 105.258 443.073 115.644 443.281 116.683C443.281 117.929 435.388 148.049 435.388 148.049C435.388 148.049 450.344 164.044 461.353 165.082C472.362 165.913 483.579 160.72 483.579 160.72C483.579 160.72 485.033 137.04 485.241 134.132C485.657 131.224 480.879 113.567 481.71 109.205Z" fill="#194B73"/>
<path d="M455.744 89.264C455.744 89.264 450.967 99.6501 449.305 107.959C447.643 116.476 445.981 157.397 445.981 157.397L448.266 159.059C448.266 159.059 447.851 114.191 451.59 105.051C454.29 98.4038 457.198 89.4717 457.198 89.4717H456.367L455.744 89.264Z" fill="#194B73"/>
<path d="M448.682 105.466C447.228 105.051 445.151 104.428 443.697 103.805C442.45 102.351 441.827 101.104 441.204 98.8193C441.412 97.573 442.243 96.5344 442.45 95.0803C444.943 98.1962 447.228 100.066 450.136 101.727C449.721 102.974 448.89 104.22 448.682 105.466Z" fill="#194B73"/>
<path d="M463.846 114.399C462.392 114.399 460.73 113.983 459.276 113.568C457.822 112.321 456.16 110.867 454.706 109.206C454.706 107.751 455.122 106.09 455.537 105.051C458.653 107.751 461.769 109.413 464.677 110.452C464.677 111.906 463.846 113.152 463.846 114.399Z" fill="#194B73"/>
<path d="M454.499 84.9013C454.291 86.3554 456.16 89.2635 456.368 89.4712C458.03 89.4712 461.769 89.2635 464.054 87.6017C466.754 85.7322 468.831 81.7855 469.039 80.3314C468.416 80.1237 468.208 80.1237 468.208 80.1237L460.73 81.1623C460.73 81.1623 459.068 79.5005 456.991 78.4619L456.576 81.37C456.576 81.37 454.499 83.2395 454.499 84.9013Z" fill="#938CA9"/>
<path d="M451.799 84.9013C451.799 84.9013 452.214 85.9399 453.461 87.6017C454.084 88.6403 455.122 89.2635 455.745 89.4712C455.745 89.4712 456.161 89.4712 456.369 89.4712C456.369 89.0558 455.33 84.9013 455.33 83.4473C455.538 81.5778 456.576 81.1623 456.576 81.1623L457.2 76.3847C457.2 76.3847 455.33 74.5152 453.461 77.0079C451.799 79.916 451.799 84.9013 451.799 84.9013Z" fill="#194B73"/>
<path d="M456.367 89.679L455.744 89.4713C456.16 89.679 456.367 89.679 456.367 89.679Z" fill="#B50B02"/>
<path d="M446.813 129.977L449.513 131.016V131.431L446.813 130.393V129.977Z" fill="#13B6C5"/>
<path d="M452.835 76.8005C452.835 76.8005 453.874 81.1626 455.743 84.2785C455.951 84.4862 456.159 84.9016 456.159 85.1094C457.613 87.602 460.729 88.4329 463.429 87.1866C464.883 86.3557 466.753 85.5248 467.376 84.6939C468.207 83.6553 470.076 82.409 470.076 81.9935V80.9549C470.076 80.9549 467.584 77.2159 467.376 77.0082C467.168 77.0082 461.56 73.0615 461.56 73.0615L452.835 76.8005Z" fill="#D69E74"/>
<path d="M454.29 64.545C454.082 64.545 452.212 59.5597 452.212 59.5597C452.212 59.5597 454.705 52.9125 460.729 54.5743C466.753 56.2361 474.023 63.9218 473.816 67.0377C473.608 70.1535 470.7 73.4771 469.661 74.5157C468.623 75.5543 469.453 78.4624 469.453 78.4624C469.453 78.4624 464.676 78.6701 463.014 76.8006C461.352 74.9311 454.29 64.545 454.29 64.545Z" fill="#231210"/>
<path d="M452.212 59.5593C452.005 59.5593 451.174 61.0133 451.174 62.0519V63.506C451.174 63.506 449.097 65.3755 448.681 65.791C448.266 66.2064 446.396 67.245 447.435 68.0759L448.474 68.9068V70.1531C448.474 70.984 449.097 71.1917 449.097 71.1917C449.097 71.1917 448.058 70.984 448.266 71.6072C448.266 72.2303 448.266 72.6458 448.266 72.6458C448.266 72.6458 447.019 73.8921 448.058 75.1385C449.304 76.8002 453.667 77.8389 456.159 78.0466C458.029 78.0466 460.729 76.8002 463.014 75.1385C463.014 75.1385 466.13 75.3462 467.169 74.5153C467.999 73.6844 469.453 71.8149 468.83 70.984C468.207 70.1531 466.13 69.7377 466.13 69.7377C466.13 69.7377 461.56 71.8149 460.729 71.3995C460.106 70.984 465.715 64.5446 462.391 61.6365C459.067 58.9361 452.212 59.5593 452.212 59.5593Z" fill="#E6B991"/>
<path d="M452.835 56.8593C452.835 56.8593 445.357 56.6515 446.811 57.4824C448.058 58.3133 457.198 65.9991 459.69 67.2454C468.83 71.6076 475.062 72.2307 476.723 71.6076C478.385 71.1921 475.893 64.1296 468.622 62.2601C461.56 60.1828 452.835 56.8593 452.835 56.8593Z" fill="#004759"/>
<path d="M471.115 52.2892C471.115 52.2892 465.091 49.1733 460.521 50.212C455.951 51.2506 452.835 56.6514 452.835 56.6514C452.835 56.6514 462.598 62.2599 466.337 64.9603C470.076 67.6607 473.192 68.6993 474.854 67.4529C476.516 66.622 479.424 57.2745 471.115 52.2892Z" fill="#2D6597"/>
<path d="M475.063 94.8725C475.063 94.8725 471.74 101.727 475.063 108.582C478.387 115.229 481.503 126.446 481.503 126.446C481.503 126.446 461.769 134.132 461.354 134.547C461.146 134.963 461.769 137.248 461.561 140.156C461.353 143.064 487.527 139.325 490.85 131.639C494.174 123.954 491.058 93.8338 485.034 89.4717C479.218 85.1095 475.063 94.8725 475.063 94.8725Z" fill="#194B73"/>
<path d="M464.26 144.934L430.817 129.354L398.827 103.805L430.194 118.137L464.26 144.934Z" fill="#766F8C"/>
<path d="M463.638 147.426C462.807 148.257 461.561 148.465 459.691 147.426L427.079 122.084L431.025 118.76L463.222 144.103C464.884 145.141 465.3 145.764 463.638 147.426Z" fill="#958EAB"/>
<path d="M430.194 118.137C433.102 118.137 428.947 121.461 427.078 121.876C425.416 122.499 427.286 118.137 430.194 118.137Z" fill="#8B8297"/>
<path d="M431.649 132.47C430.818 133.301 429.571 133.509 427.702 132.47L395.089 107.128L399.036 104.22L431.233 129.147C432.687 130.185 433.31 130.808 431.649 132.47Z" fill="#958EAB"/>
<path d="M398.829 103.804C399.867 104.012 397.375 106.712 395.713 107.128C393.843 107.543 395.92 103.389 398.829 103.804Z" fill="#8B8297"/>
<path d="M462.807 134.132C460.107 132.055 462.184 133.094 454.706 130.601C454.706 130.601 452.213 130.809 451.59 131.016C450.967 131.224 447.643 129.77 447.02 130.185C446.397 130.601 446.605 131.224 447.228 131.432C447.851 131.847 450.967 134.34 450.967 134.34L452.836 134.755C452.836 134.755 451.798 136.833 451.59 136.833C451.382 136.833 447.643 137.663 447.643 137.663C447.643 137.663 445.774 137.04 445.566 137.663C445.358 138.287 446.397 139.325 446.397 139.325C446.397 139.325 446.397 140.156 447.02 140.572C447.851 140.779 448.059 140.987 448.059 140.987C448.059 140.987 448.059 141.818 448.682 142.233C449.305 142.649 450.136 143.064 450.136 143.064C450.136 143.064 450.344 143.687 453.46 143.895C456.368 144.103 458.029 141.402 459.276 140.572C460.522 139.948 461.353 140.572 462.392 140.572C463.43 140.779 465.092 136.209 462.807 134.132Z" fill="#E6B991"/>
<path d="M414.615 122.292C414.615 122.292 412.746 123.954 415.238 124.992C416.9 125.615 419.6 123.954 419.393 123.954C419.185 123.954 418.977 122.084 416.9 122.084H414.615V122.292Z" fill="#E6B991"/>
<path d="M422.301 127.9C422.301 127.9 420.847 129.354 422.925 130.185C424.171 130.6 426.456 129.354 426.248 129.354C426.04 129.354 426.04 127.9 424.171 127.9H422.301V127.9Z" fill="#E6B991"/>
<path d="M419.601 126.239C419.601 126.239 417.939 127.693 420.224 128.731C421.678 129.354 423.963 127.693 423.963 127.9C423.755 127.9 423.755 126.239 421.678 126.239H419.601Z" fill="#E6B991"/>
<path d="M418.147 125.2C418.147 125.2 416.485 126.654 418.77 127.693C420.224 128.316 422.509 126.654 422.509 126.862C422.301 126.862 422.301 125.2 420.224 125.2H418.147Z" fill="#E6B991"/>
<path d="M464.052 87.8098C461.975 89.2638 458.236 89.6793 455.743 89.6793C456.366 89.887 456.159 89.887 462.806 89.6793C466.337 89.4716 468.206 88.0175 470.491 86.5634C472.984 84.9017 476.1 84.6939 479.008 85.1094C479.216 85.1094 479.216 85.1094 479.216 85.1094C477.762 73.4769 469.037 76.1773 469.037 76.1773C469.037 76.1773 469.245 79.5009 469.245 80.7472C468.83 81.9935 466.752 85.9403 464.052 87.8098Z" fill="#194B73"/>
</svg>
