<svg width="195" height="51" viewBox="0 0 195 51" fill="none" xmlns="http://www.w3.org/2000/svg">
<path d="M74.4938 23.8646H65.4793L59.0917 2.63403H65.341L70.0971 18.4323H70.263L75.4339 2.63403H81.4343L74.4938 23.8646Z" fill="white"/>
<path d="M92.5503 2.30151C101.344 2.30151 103.556 4.49109 103.556 13.2494C103.556 22.0077 101.344 24.1973 92.5503 24.1973C83.7571 24.1973 81.5449 22.0077 81.5449 13.2494C81.5449 4.49109 83.7294 2.30151 92.5503 2.30151ZM87.5177 13.2494C87.5177 18.9312 88.0154 19.5687 92.5503 19.5687C97.0852 19.5687 97.5829 18.9312 97.5829 13.2494C97.5829 7.56759 97.0852 6.93012 92.5503 6.93012C88.0154 6.93012 87.5177 7.56759 87.5177 13.2494Z" fill="white"/>
<path d="M105.713 2.63403H116.663C124.405 2.63403 126.341 4.76818 126.341 13.2493C126.341 21.7305 124.405 23.8646 116.663 23.8646H105.713V2.63403ZM111.409 13.2493L111.436 18.9589H116.082C119.926 18.9589 120.368 18.3768 120.368 13.2493C120.368 8.12184 119.926 7.5398 116.082 7.5398H111.436L111.409 13.2493Z" fill="white"/>
<path d="M150.508 23.8646H143.983L142.849 19.7349H134.692L133.42 23.8646H127.281L134.277 2.63403H143.734L150.508 23.8646ZM141.439 15.1063L138.922 7.26264H138.756L136.185 15.1063H141.439Z" fill="white"/>
<path d="M73.9407 42.5178C73.9407 41.2983 72.8899 40.7717 68.8804 39.9956C61.9675 38.6098 60.2254 37.3071 60.2254 33.3437C60.2254 28.2439 62.244 26.969 69.9865 26.969C77.729 26.969 79.8029 28.5211 79.8029 34.7295H73.8301C73.8301 31.9025 73.4153 31.5976 69.9865 31.5976C66.5577 31.5976 66.1982 31.7916 66.1982 33.3991C66.1982 34.5078 67.0001 34.9235 69.8759 35.5333C77.8119 37.0854 79.9411 38.5544 79.9411 42.8227C79.9411 47.673 77.8949 48.8648 69.9865 48.8648C62.0781 48.8648 59.783 47.3681 59.783 41.4091H65.7558C65.7558 43.959 66.1982 44.2362 69.8206 44.2362C73.443 44.2362 73.9407 44.0699 73.9407 42.5178Z" fill="white"/>
<path d="M99.4632 27.3015V32.2073H87.7942V35.4778H98.3848V40.1064H87.7942V43.6541H99.5186V48.5598H82.0703V27.3015H99.4632Z" fill="white"/>
<path d="M121.142 33.4545C121.142 36.9745 119.843 38.6374 116.884 39.0255C119.704 39.3303 121.142 40.5776 121.142 43.2938V48.5321H115.169V43.6264C115.169 41.2982 114.865 41.0487 111.907 41.0487H107.676V48.5321H101.98V27.3015H114.091C119.732 27.3015 121.142 28.5487 121.142 33.4545ZM112.625 36.6973C115.169 36.6973 115.446 36.4479 115.446 34.286C115.446 32.1241 115.169 31.9578 112.625 31.9578H107.676V36.725H112.625V36.6973Z" fill="white"/>
<path d="M137.761 48.5599H128.746L122.359 27.3293H128.608L133.364 43.1276H133.53L138.701 27.3293H144.701L137.761 48.5599Z" fill="white"/>
<path d="M145.918 27.3015H151.614V48.5321H145.918V27.3015Z" fill="white"/>
<path d="M164.638 48.8648C155.983 48.8648 153.799 46.6752 153.799 37.9169C153.799 29.1586 155.983 26.969 164.638 26.969C173.293 26.969 175.45 28.826 175.395 36.2539H169.422C169.477 32.0688 168.98 31.5976 164.638 31.5976C160.297 31.5976 159.772 32.2351 159.772 37.9169C159.772 43.5987 160.269 44.2362 164.638 44.2362C169.007 44.2362 169.477 43.765 169.422 39.5244H175.395C175.45 47.0078 173.293 48.8648 164.638 48.8648Z" fill="white"/>
<path d="M194.945 27.3015V32.2073H183.276V35.4778H193.866V40.1064H183.276V43.6541H195V48.5598H177.579V27.3015H194.945Z" fill="white"/>
<path d="M49.9114 0.5V10.5055H5.00496L14.9872 30.5166H0V0.5H49.9114Z" fill="white"/>
<path d="M49.9114 20.511V50.4999H0V40.4944H29.9468L39.9291 20.511H49.9114Z" fill="white"/>
</svg>
