<svg width="581" height="149" viewBox="0 0 581 149" fill="none" xmlns="http://www.w3.org/2000/svg">
<path d="M221.953 69.6269H195.095L176.063 6.35974H194.683L208.853 53.4384H209.348L224.754 6.35974H242.633L221.953 69.6269Z" fill="#1A374D"/>
<path d="M275.753 5.36865C301.952 5.36865 308.543 11.8936 308.543 37.9934C308.543 64.0932 301.952 70.6181 275.753 70.6181C249.553 70.6181 242.962 64.0932 242.962 37.9934C242.962 11.8936 249.471 5.36865 275.753 5.36865ZM260.758 37.9934C260.758 54.9252 262.241 56.8249 275.753 56.8249C289.264 56.8249 290.747 54.9252 290.747 37.9934C290.747 21.0616 289.264 19.1619 275.753 19.1619C262.241 19.1619 260.758 21.0616 260.758 37.9934Z" fill="#1A374D"/>
<path d="M314.969 6.35974H347.595C370.664 6.35974 376.431 12.7195 376.431 37.9933C376.431 63.2672 370.664 69.6269 347.595 69.6269H314.969V6.35974ZM331.941 37.9933L332.024 55.0077H345.865C357.317 55.0077 358.635 53.2733 358.635 37.9933C358.635 22.7134 357.317 20.9789 345.865 20.9789H332.024L331.941 37.9933Z" fill="#1A374D"/>
<path d="M448.438 69.6269H428.994L425.616 57.3204H401.312L397.522 69.6269H379.232L400.076 6.35974H428.253L448.438 69.6269ZM421.414 43.5271L413.917 20.153H413.423L405.761 43.5271H421.414Z" fill="#1A374D"/>
<path d="M220.305 125.213C220.305 121.579 217.175 120.009 205.228 117.697C184.631 113.567 179.441 109.685 179.441 97.8742C179.441 82.6769 185.455 78.8776 208.524 78.8776C231.593 78.8776 237.772 83.5028 237.772 102.004H219.976C219.976 93.5793 218.74 92.6708 208.524 92.6708C198.308 92.6708 197.237 93.249 197.237 98.0394C197.237 101.343 199.626 102.582 208.194 104.399C231.84 109.024 238.184 113.402 238.184 126.121C238.184 140.575 232.087 144.127 208.524 144.127C184.961 144.127 178.123 139.667 178.123 121.909H195.919C195.919 129.508 197.237 130.334 208.03 130.334C218.822 130.334 220.305 129.838 220.305 125.213Z" fill="#1A374D"/>
<path d="M296.35 79.8687V94.4878H261.582V104.234H293.136V118.027H261.582V128.599H296.514V143.218H244.528V79.8687H296.35Z" fill="#1A374D"/>
<path d="M360.942 98.2046C360.942 108.694 357.069 113.65 348.254 114.806C356.658 115.715 360.942 119.431 360.942 127.526V143.136H343.146V128.517C343.146 121.579 342.24 120.835 333.424 120.835H320.819V143.136H303.847V79.8687H339.933C356.74 79.8687 360.942 83.5854 360.942 98.2046ZM335.566 107.868C343.146 107.868 343.97 107.125 343.97 100.682C343.97 94.2401 343.146 93.7445 335.566 93.7445H320.819V107.951H335.566V107.868Z" fill="#1A374D"/>
<path d="M410.457 143.218H383.598L364.567 79.9513H383.186L397.357 127.03H397.852L413.258 79.9513H431.136L410.457 143.218Z" fill="#1A374D"/>
<path d="M434.761 79.8687H451.733V143.136H434.761V79.8687Z" fill="#1A374D"/>
<path d="M490.538 144.127C464.751 144.127 458.242 137.602 458.242 111.502C458.242 85.4025 464.751 78.8776 490.538 78.8776C516.325 78.8776 522.752 84.4114 522.587 106.547H504.791C504.956 94.0749 503.473 92.6708 490.538 92.6708C477.603 92.6708 476.038 94.5705 476.038 111.502C476.038 128.434 477.521 130.334 490.538 130.334C503.555 130.334 504.956 128.93 504.791 116.293H522.587C522.752 138.593 516.325 144.127 490.538 144.127Z" fill="#1A374D"/>
<path d="M580.835 79.8687V94.4878H546.067V104.234H577.622V118.027H546.067V128.599H581V143.218H529.096V79.8687H580.835Z" fill="#1A374D"/>
<path d="M148.71 0V29.8165H14.9122L44.6543 89.4496H0V0H148.71Z" fill="#1A374D"/>
<path d="M148.71 59.6331V149H0V119.184H89.2262L118.968 59.6331H148.71Z" fill="#1A374D"/>
</svg>
