<svg width="1980" height="685" viewBox="0 0 1980 685" fill="none" xmlns="http://www.w3.org/2000/svg">
<g clip-path="url(#clip0_411_18718)">
<path d="M0 38.6546H66.0265L66.0265 335.683L198.08 269.656V368.787H0L0 38.6546Z" fill="#F3F7FA"/>
<path d="M0 698.006H66.0265L66.0265 400.978L198.08 467.004V367.873H0L0 698.006Z" fill="#F3F7FA"/>
<path d="M0 39.5693H66.0265L66.0265 -257.459L198.08 -191.432V-290.563H0L0 39.5693Z" fill="#F3F7FA"/>
<path d="M132.054 38.6546H329.95V368.787H263.924V170.708L132.054 104.681V38.6546Z" fill="#F3F7FA"/>
<path d="M132.054 698.006H329.95V367.873H263.924V565.953L132.054 631.979V698.006Z" fill="#F3F7FA"/>
<path d="M132.054 39.5693H329.95V-290.563H263.924V-92.4838L132.054 -26.4573V39.5693Z" fill="#F3F7FA"/>
<path d="M330 38.6546H396.027V335.683L528.08 269.656V368.787H330V38.6546Z" fill="#F3F7FA"/>
<path d="M330 698.006H396.027V400.978L528.08 467.004V367.873H330V698.006Z" fill="#F3F7FA"/>
<path d="M330 39.5693H396.027V-257.459L528.08 -191.432V-290.563H330V39.5693Z" fill="#F3F7FA"/>
<path d="M462.054 38.6546H659.95V368.787H593.924V170.708L462.054 104.681V38.6546Z" fill="#F3F7FA"/>
<path d="M462.054 698.006H659.95V367.873H593.924V565.953L462.054 631.979V698.006Z" fill="#F3F7FA"/>
<path d="M462.054 39.5693H659.95V-290.563H593.924V-92.4838L462.054 -26.4573V39.5693Z" fill="#F3F7FA"/>
<path d="M660 38.6546H726.027V335.683L858.08 269.656V368.787H660V38.6546Z" fill="#F3F7FA"/>
<path d="M660 698.006H726.027V400.978L858.08 467.004V367.873H660V698.006Z" fill="#F3F7FA"/>
<path d="M660 39.5693H726.027V-257.459L858.08 -191.432V-290.563H660V39.5693Z" fill="#F3F7FA"/>
<path d="M792.054 38.6546H989.95V368.787H923.924V170.708L792.054 104.681V38.6546Z" fill="#F3F7FA"/>
<path d="M792.054 698.006H989.95V367.873H923.924V565.953L792.054 631.979V698.006Z" fill="#F3F7FA"/>
<path d="M792.054 39.5693H989.95V-290.563H923.924V-92.4838L792.054 -26.4573V39.5693Z" fill="#F3F7FA"/>
<path d="M990 38.6546H1056.03V335.683L1188.08 269.656V368.787H990V38.6546Z" fill="#F3F7FA"/>
<path d="M990 698.006H1056.03V400.978L1188.08 467.004V367.873H990V698.006Z" fill="#F3F7FA"/>
<path d="M990 39.5693H1056.03V-257.459L1188.08 -191.432V-290.563H990V39.5693Z" fill="#F3F7FA"/>
<path d="M1122.05 38.6546H1319.95V368.787H1253.92V170.708L1122.05 104.681V38.6546Z" fill="#F3F7FA"/>
<path d="M1122.05 698.006H1319.95V367.873H1253.92V565.953L1122.05 631.979V698.006Z" fill="#F3F7FA"/>
<path d="M1122.05 39.5693H1319.95V-290.563H1253.92V-92.4838L1122.05 -26.4573V39.5693Z" fill="#F3F7FA"/>
<path d="M1320 38.6546H1386.03V335.683L1518.08 269.656V368.787H1320V38.6546Z" fill="#F3F7FA"/>
<path d="M1320 698.006H1386.03V400.978L1518.08 467.004V367.873H1320V698.006Z" fill="#F3F7FA"/>
<path d="M1320 39.5693H1386.03V-257.459L1518.08 -191.432V-290.563H1320V39.5693Z" fill="#F3F7FA"/>
<path d="M1452.05 38.6546H1649.95V368.787H1583.92V170.708L1452.05 104.681V38.6546Z" fill="#F3F7FA"/>
<path d="M1452.05 698.006H1649.95V367.873H1583.92V565.953L1452.05 631.979V698.006Z" fill="#F3F7FA"/>
<path d="M1452.05 39.5693H1649.95V-290.563H1583.92V-92.4838L1452.05 -26.4573V39.5693Z" fill="#F3F7FA"/>
<path d="M1650 38.6546H1716.03V335.683L1848.08 269.656V368.787H1650V38.6546Z" fill="#F3F7FA"/>
<path d="M1650 698.006H1716.03V400.978L1848.08 467.004V367.873H1650V698.006Z" fill="#F3F7FA"/>
<path d="M1650 39.5693H1716.03V-257.459L1848.08 -191.432V-290.563H1650V39.5693Z" fill="#F3F7FA"/>
<path d="M1782.05 38.6546H1979.95V368.787H1913.92V170.708L1782.05 104.681V38.6546Z" fill="#F3F7FA"/>
<path d="M1782.05 698.006H1979.95V367.873H1913.92V565.953L1782.05 631.979V698.006Z" fill="#F3F7FA"/>
<path d="M1782.05 39.5693H1979.95V-290.563H1913.92V-92.4838L1782.05 -26.4573V39.5693Z" fill="#F3F7FA"/>
</g>
<defs>
<clipPath id="clip0_411_18718">
<rect width="1980" height="685" fill="white"/>
</clipPath>
</defs>
</svg>
