<svg width="28" height="6" viewBox="0 0 28 6" fill="none" xmlns="http://www.w3.org/2000/svg">
<path d="M5.03554 4.49746C4.53485 4.99814 3.92217 5.24849 3.19749 5.24849C2.47281 5.24849 1.86012 4.99814 1.35943 4.49746C0.858743 3.99677 0.608398 3.38408 0.608398 2.6594C0.608398 1.93472 0.858743 1.32203 1.35943 0.821346C1.86012 0.320657 2.47281 0.0703125 3.19749 0.0703125C3.92217 0.0703125 4.53485 0.320657 5.03554 0.821346C5.53623 1.32203 5.78657 1.93472 5.78657 2.6594C5.78657 3.38408 5.53623 3.99677 5.03554 4.49746Z" fill="black"/>
<path d="M15.6686 4.49746C15.1679 4.99814 14.5552 5.24849 13.8305 5.24849C13.1059 5.24849 12.4932 4.99814 11.9925 4.49746C11.4918 3.99677 11.2414 3.38408 11.2414 2.6594C11.2414 1.93472 11.4918 1.32203 11.9925 0.821346C12.4932 0.320657 13.1059 0.0703125 13.8305 0.0703125C14.5552 0.0703125 15.1679 0.320657 15.6686 0.821346C16.1693 1.32203 16.4196 1.93472 16.4196 2.6594C16.4196 3.38408 16.1693 3.99677 15.6686 4.49746Z" fill="black"/>
<path d="M26.3016 4.49746C25.801 4.99814 25.1883 5.24849 24.4636 5.24849C23.7389 5.24849 23.1262 4.99814 22.6255 4.49746C22.1248 3.99677 21.8745 3.38408 21.8745 2.6594C21.8745 1.93472 22.1248 1.32203 22.6255 0.821346C23.1262 0.320657 23.7389 0.0703125 24.4636 0.0703125C25.1883 0.0703125 25.801 0.320657 26.3016 0.821346C26.8023 1.32203 27.0527 1.93472 27.0527 2.6594C27.0527 3.38408 26.8023 3.99677 26.3016 4.49746Z" fill="black"/>
</svg>
