<svg width="27" height="27" viewBox="0 0 27 27" fill="none" xmlns="http://www.w3.org/2000/svg">
<path d="M12.5183 25.5C12.5183 26.0523 12.966 26.5 13.5183 26.5C14.0706 26.5 14.5183 26.0523 14.5183 25.5L12.5183 25.5ZM14.5183 25.5C14.5183 25.4973 14.5183 25.4945 14.5183 25.4916C14.5183 25.4888 14.5183 25.4859 14.5183 25.4829C14.5183 25.48 14.5183 25.477 14.5183 25.4739C14.5183 25.4708 14.5183 25.4677 14.5183 25.4646C14.5183 25.4614 14.5183 25.4582 14.5183 25.4549C14.5183 25.4516 14.5183 25.4483 14.5183 25.4449C14.5183 25.4415 14.5183 25.438 14.5183 25.4345C14.5183 25.431 14.5183 25.4275 14.5183 25.4239C14.5183 25.4203 14.5183 25.4166 14.5183 25.4129C14.5183 25.4092 14.5183 25.4054 14.5183 25.4016C14.5183 25.3978 14.5183 25.3939 14.5183 25.39C14.5183 25.3861 14.5183 25.3821 14.5183 25.378C14.5183 25.374 14.5183 25.3699 14.5183 25.3658C14.5183 25.3616 14.5183 25.3575 14.5183 25.3532C14.5183 25.349 14.5183 25.3447 14.5183 25.3403C14.5183 25.336 14.5183 25.3316 14.5183 25.3271C14.5183 25.3226 14.5183 25.3181 14.5183 25.3136C14.5183 25.309 14.5183 25.3044 14.5183 25.2997C14.5183 25.2951 14.5183 25.2904 14.5183 25.2856C14.5183 25.2808 14.5183 25.276 14.5183 25.2711C14.5183 25.2663 14.5183 25.2613 14.5183 25.2564C14.5183 25.2514 14.5183 25.2464 14.5183 25.2413C14.5183 25.2362 14.5183 25.2311 14.5183 25.2259C14.5183 25.2207 14.5183 25.2155 14.5183 25.2102C14.5183 25.2049 14.5183 25.1996 14.5183 25.1942C14.5183 25.1888 14.5183 25.1834 14.5183 25.1779C14.5183 25.1724 14.5183 25.1669 14.5183 25.1613C14.5183 25.1557 14.5183 25.15 14.5183 25.1444C14.5183 25.1387 14.5183 25.1329 14.5183 25.1271C14.5183 25.1213 14.5183 25.1155 14.5183 25.1096C14.5183 25.1037 14.5183 25.0978 14.5183 25.0918C14.5183 25.0858 14.5183 25.0798 14.5183 25.0737C14.5183 25.0676 14.5183 25.0614 14.5183 25.0552C14.5183 25.0491 14.5183 25.0428 14.5183 25.0365C14.5183 25.0302 14.5183 25.0239 14.5183 25.0175C14.5183 25.0111 14.5183 25.0047 14.5183 24.9982C14.5183 24.9917 14.5183 24.9852 14.5183 24.9786C14.5183 24.972 14.5183 24.9654 14.5183 24.9587C14.5183 24.952 14.5183 24.9453 14.5183 24.9385C14.5183 24.9317 14.5183 24.9249 14.5183 24.918C14.5183 24.9112 14.5183 24.9042 14.5183 24.8973C14.5183 24.8903 14.5183 24.8833 14.5183 24.8762C14.5183 24.8691 14.5183 24.862 14.5183 24.8549C14.5183 24.8477 14.5183 24.8405 14.5183 24.8332C14.5183 24.826 14.5183 24.8187 14.5183 24.8113C14.5183 24.8039 14.5183 24.7965 14.5183 24.7891C14.5183 24.7816 14.5183 24.7741 14.5183 24.7666C14.5183 24.7591 14.5183 24.7515 14.5183 24.7438C14.5183 24.7362 14.5183 24.7285 14.5183 24.7208C14.5183 24.713 14.5183 24.7053 14.5183 24.6974C14.5183 24.6896 14.5183 24.6817 14.5183 24.6738C14.5183 24.6659 14.5183 24.6579 14.5183 24.6499C14.5183 24.6419 14.5183 24.6338 14.5183 24.6257C14.5183 24.6176 14.5183 24.6095 14.5183 24.6013C14.5183 24.5931 14.5183 24.5848 14.5183 24.5765C14.5183 24.5683 14.5183 24.5599 14.5183 24.5515C14.5183 24.5432 14.5183 24.5347 14.5183 24.5263C14.5183 24.5178 14.5183 24.5093 14.5183 24.5007C14.5183 24.4921 14.5183 24.4835 14.5183 24.4749C14.5183 24.4662 14.5183 24.4575 14.5183 24.4488C14.5183 24.44 14.5183 24.4312 14.5183 24.4224C14.5183 24.4136 14.5183 24.4047 14.5183 24.3958C14.5183 24.3869 14.5183 24.3779 14.5183 24.3689C14.5183 24.3599 14.5183 24.3508 14.5183 24.3417C14.5183 24.3326 14.5183 24.3235 14.5183 24.3143C14.5183 24.3051 14.5183 24.2958 14.5183 24.2866C14.5183 24.2773 14.5183 24.268 14.5183 24.2586C14.5183 24.2492 14.5183 24.2398 14.5183 24.2304C14.5183 24.2209 14.5183 24.2114 14.5183 24.2019C14.5183 24.1923 14.5183 24.1827 14.5183 24.1731C14.5183 24.1635 14.5183 24.1538 14.5183 24.1441C14.5183 24.1344 14.5183 24.1246 14.5183 24.1148C14.5183 24.105 14.5183 24.0952 14.5183 24.0853C14.5183 24.0754 14.5183 24.0655 14.5183 24.0555C14.5183 24.0455 14.5183 24.0355 14.5183 24.0255C14.5183 24.0154 14.5183 24.0053 14.5183 23.9952C14.5183 23.985 14.5183 23.9748 14.5183 23.9646C14.5183 23.9544 14.5183 23.9441 14.5183 23.9338C14.5183 23.9235 14.5183 23.9131 14.5183 23.9027C14.5183 23.8923 14.5183 23.8819 14.5183 23.8714C14.5183 23.8609 14.5183 23.8504 14.5183 23.8399C14.5183 23.8293 14.5183 23.8187 14.5183 23.8081C14.5183 23.7974 14.5183 23.7867 14.5183 23.776C14.5183 23.7653 14.5183 23.7545 14.5183 23.7437C14.5183 23.7329 14.5183 23.722 14.5183 23.7111C14.5183 23.7002 14.5183 23.6893 14.5183 23.6783C14.5183 23.6674 14.5183 23.6564 14.5183 23.6453C14.5183 23.6342 14.5183 23.6232 14.5183 23.612C14.5183 23.6009 14.5183 23.5897 14.5183 23.5785C14.5183 23.5673 14.5183 23.556 14.5183 23.5447C14.5183 23.5334 14.5183 23.5221 14.5183 23.5107C14.5183 23.4993 14.5183 23.4879 14.5183 23.4765C14.5183 23.465 14.5183 23.4535 14.5183 23.442C14.5183 23.4305 14.5183 23.4189 14.5183 23.4073C14.5183 23.3957 14.5183 23.384 14.5183 23.3723C14.5183 23.3606 14.5183 23.3489 14.5183 23.3371C14.5183 23.3254 14.5183 23.3135 14.5183 23.3017C14.5183 23.2898 14.5183 23.278 14.5183 23.266C14.5183 23.2541 14.5183 23.2421 14.5183 23.2301C14.5183 23.2181 14.5183 23.2061 14.5183 23.194C14.5183 23.1819 14.5183 23.1698 14.5183 23.1577C14.5183 23.1455 14.5183 23.1333 14.5183 23.1211C14.5183 23.1089 14.5183 23.0966 14.5183 23.0843C14.5183 23.072 14.5183 23.0596 14.5183 23.0473C14.5183 23.0349 14.5183 23.0225 14.5183 23.01C14.5183 22.9975 14.5183 22.985 14.5183 22.9725C14.5183 22.96 14.5183 22.9474 14.5183 22.9348C14.5183 22.9222 14.5183 22.9095 14.5183 22.8969C14.5183 22.8842 14.5183 22.8715 14.5183 22.8587C14.5183 22.846 14.5183 22.8332 14.5183 22.8203C14.5183 22.8075 14.5183 22.7946 14.5183 22.7817C14.5183 22.7688 14.5183 22.7559 14.5183 22.7429C14.5183 22.73 14.5183 22.7169 14.5183 22.7039C14.5183 22.6908 14.5183 22.6778 14.5183 22.6646C14.5183 22.6515 14.5183 22.6384 14.5183 22.6252C14.5183 22.612 14.5183 22.5988 14.5183 22.5855C14.5183 22.5722 14.5183 22.5589 14.5183 22.5456C14.5183 22.5323 14.5183 22.5189 14.5183 22.5055C14.5183 22.4921 14.5183 22.4787 14.5183 22.4652C14.5183 22.4517 14.5183 22.4382 14.5183 22.4247C14.5183 22.4111 14.5183 22.3975 14.5183 22.3839C14.5183 22.3703 14.5183 22.3567 14.5183 22.343C14.5183 22.3293 14.5183 22.3156 14.5183 22.3018C14.5183 22.2881 14.5183 22.2743 14.5183 22.2605C14.5183 22.2466 14.5183 22.2328 14.5183 22.2189C14.5183 22.205 14.5183 22.1911 14.5183 22.1771C14.5183 22.1632 14.5183 22.1492 14.5183 22.1351C14.5183 22.1211 14.5183 22.1071 14.5183 22.093C14.5183 22.0789 14.5183 22.0647 14.5183 22.0506C14.5183 22.0364 14.5183 22.0222 14.5183 22.008C14.5183 21.9938 14.5183 21.9795 14.5183 21.9652C14.5183 21.9509 14.5183 21.9366 14.5183 21.9222C14.5183 21.9079 14.5183 21.8935 14.5183 21.8791C14.5183 21.8646 14.5183 21.8502 14.5183 21.8357C14.5183 21.8212 14.5183 21.8067 14.5183 21.7921C14.5183 21.7776 14.5183 21.763 14.5183 21.7484C14.5183 21.7337 14.5183 21.7191 14.5183 21.7044C14.5183 21.6897 14.5183 21.675 14.5183 21.6603C14.5183 21.6455 14.5183 21.6307 14.5183 21.6159C14.5183 21.6011 14.5183 21.5863 14.5183 21.5714C14.5183 21.5565 14.5183 21.5416 14.5183 21.5267C14.5183 21.5117 14.5183 21.4968 14.5183 21.4818C14.5183 21.4668 14.5183 21.4517 14.5183 21.4367C14.5183 21.4216 14.5183 21.4065 14.5183 21.3914C14.5183 21.3762 14.5183 21.3611 14.5183 21.3459C14.5183 21.3307 14.5183 21.3155 14.5183 21.3003C14.5183 21.285 14.5183 21.2697 14.5183 21.2544C14.5183 21.2391 14.5183 21.2238 14.5183 21.2084C14.5183 21.193 14.5183 21.1776 14.5183 21.1622C14.5183 21.1468 14.5183 21.1313 14.5183 21.1158C14.5183 21.1003 14.5183 21.0848 14.5183 21.0692C14.5183 21.0537 14.5183 21.0381 14.5183 21.0225C14.5183 21.0069 14.5183 20.9913 14.5183 20.9756C14.5183 20.9599 14.5183 20.9442 14.5183 20.9285C14.5183 20.9128 14.5183 20.897 14.5183 20.8812C14.5183 20.8654 14.5183 20.8496 14.5183 20.8338C14.5183 20.8179 14.5183 20.8021 14.5183 20.7862C14.5183 20.7703 14.5183 20.7543 14.5183 20.7384C14.5183 20.7224 14.5183 20.7064 14.5183 20.6904C14.5183 20.6744 14.5183 20.6583 14.5183 20.6423C14.5183 20.6262 14.5183 20.6101 14.5183 20.594C14.5183 20.5778 14.5183 20.5617 14.5183 20.5455C14.5183 20.5293 14.5183 20.5131 14.5183 20.4969C14.5183 20.4806 14.5183 20.4644 14.5183 20.4481C14.5183 20.4318 14.5183 20.4154 14.5183 20.3991C14.5183 20.3827 14.5183 20.3664 14.5183 20.35C14.5183 20.3335 14.5183 20.3171 14.5183 20.3007C14.5183 20.2842 14.5183 20.2677 14.5183 20.2512C14.5183 20.2347 14.5183 20.2181 14.5183 20.2016C14.5183 20.185 14.5183 20.1684 14.5183 20.1518C14.5183 20.1352 14.5183 20.1185 14.5183 20.1019C14.5183 20.0852 14.5183 20.0685 14.5183 20.0518C14.5183 20.035 14.5183 20.0183 14.5183 20.0015C14.5183 19.9847 14.5183 19.9679 14.5183 19.9511C14.5183 19.9343 14.5183 19.9174 14.5183 19.9005C14.5183 19.8836 14.5183 19.8667 14.5183 19.8498C14.5183 19.8329 14.5183 19.8159 14.5183 19.7989C14.5183 19.7819 14.5183 19.7649 14.5183 19.7479C14.5183 19.7309 14.5183 19.7138 14.5183 19.6967C14.5183 19.6796 14.5183 19.6625 14.5183 19.6454C14.5183 19.6282 14.5183 19.6111 14.5183 19.5939C14.5183 19.5767 14.5183 19.5595 14.5183 19.5423C14.5183 19.525 14.5183 19.5078 14.5183 19.4905C14.5183 19.4732 14.5183 19.4559 14.5183 19.4386C14.5183 19.4212 14.5183 19.4039 14.5183 19.3865C14.5183 19.3691 14.5183 19.3517 14.5183 19.3343C14.5183 19.3169 14.5183 19.2994 14.5183 19.2819C14.5183 19.2645 14.5183 19.247 14.5183 19.2295C14.5183 19.2119 14.5183 19.1944 14.5183 19.1768C14.5183 19.1592 14.5183 19.1417 14.5183 19.124C14.5183 19.1064 14.5183 19.0888 14.5183 19.0711C14.5183 19.0535 14.5183 19.0358 14.5183 19.0181C14.5183 19.0004 14.5183 18.9826 14.5183 18.9649C14.5183 18.9471 14.5183 18.9293 14.5183 18.9115C14.5183 18.8937 14.5183 18.8759 14.5183 18.8581C14.5183 18.8402 14.5183 18.8224 14.5183 18.8045C14.5183 18.7866 14.5183 18.7687 14.5183 18.7508C14.5183 18.7328 14.5183 18.7149 14.5183 18.6969C14.5183 18.6789 14.5183 18.6609 14.5183 18.6429C14.5183 18.6249 14.5183 18.6068 14.5183 18.5888C14.5183 18.5707 14.5183 18.5526 14.5183 18.5345C14.5183 18.5164 14.5183 18.4983 14.5183 18.4801C14.5183 18.462 14.5183 18.4438 14.5183 18.4256C14.5183 18.4074 14.5183 18.3892 14.5183 18.371C14.5183 18.3528 14.5183 18.3345 14.5183 18.3162C14.5183 18.298 14.5183 18.2797 14.5183 18.2614C14.5183 18.243 14.5183 18.2247 14.5183 18.2063C14.5183 18.188 14.5183 18.1696 14.5183 18.1512C14.5183 18.1328 14.5183 18.1144 14.5183 18.096C14.5183 18.0775 14.5183 18.0591 14.5183 18.0406C14.5183 18.0221 14.5183 18.0036 14.5183 17.9851C14.5183 17.9666 14.5183 17.9481 14.5183 17.9295C14.5183 17.9109 14.5183 17.8924 14.5183 17.8738C14.5183 17.8552 14.5183 17.8366 14.5183 17.8179C14.5183 17.7993 14.5183 17.7807 14.5183 17.762C14.5183 17.7433 14.5183 17.7246 14.5183 17.7059C14.5183 17.6872 14.5183 17.6685 14.5183 17.6497C14.5183 17.631 14.5183 17.6122 14.5183 17.5934C14.5183 17.5747 14.5183 17.5559 14.5183 17.537C14.5183 17.5182 14.5183 17.4994 14.5183 17.4805C14.5183 17.4617 14.5183 17.4428 14.5183 17.4239C14.5183 17.405 14.5183 17.3861 14.5183 17.3672C14.5183 17.3482 14.5183 17.3293 14.5183 17.3103C14.5183 17.2914 14.5183 17.2724 14.5183 17.2534C14.5183 17.2344 14.5183 17.2154 14.5183 17.1963C14.5183 17.1773 14.5183 17.1582 14.5183 17.1392C14.5183 17.1201 14.5183 17.101 14.5183 17.0819C14.5183 17.0628 14.5183 17.0437 14.5183 17.0246C14.5183 17.0054 14.5183 16.9863 14.5183 16.9671C14.5183 16.9479 14.5183 16.9287 14.5183 16.9095C14.5183 16.8903 14.5183 16.8711 14.5183 16.8519C14.5183 16.8327 14.5183 16.8134 14.5183 16.7941C14.5183 16.7749 14.5183 16.7556 14.5183 16.7363C14.5183 16.717 14.5183 16.6977 14.5183 16.6783C14.5183 16.659 14.5183 16.6397 14.5183 16.6203C14.5183 16.6009 14.5183 16.5815 14.5183 16.5621C14.5183 16.5428 14.5183 16.5233 14.5183 16.5039C14.5183 16.4845 14.5183 16.4651 14.5183 16.4456C14.5183 16.4261 14.5183 16.4067 14.5183 16.3872C14.5183 16.3677 14.5183 16.3482 14.5183 16.3287C14.5183 16.3092 14.5183 16.2896 14.5183 16.2701C14.5183 16.2505 14.5183 16.231 14.5183 16.2114C14.5183 16.1918 14.5183 16.1722 14.5183 16.1526C14.5183 16.133 14.5183 16.1134 14.5183 16.0938C14.5183 16.0742 14.5183 16.0545 14.5183 16.0349C14.5183 16.0152 14.5183 15.9955 14.5183 15.9758C14.5183 15.9562 14.5183 15.9364 14.5183 15.9167C14.5183 15.897 14.5183 15.8773 14.5183 15.8575C14.5183 15.8378 14.5183 15.8181 14.5183 15.7983C14.5183 15.7785 14.5183 15.7587 14.5183 15.7389C14.5183 15.7191 14.5183 15.6993 14.5183 15.6795C14.5183 15.6597 14.5183 15.6399 14.5183 15.62C14.5183 15.6002 14.5183 15.5803 14.5183 15.5604C14.5183 15.5406 14.5183 15.5207 14.5183 15.5008C14.5183 15.4809 14.5183 15.461 14.5183 15.4411C14.5183 15.4211 14.5183 15.4012 14.5183 15.3813C14.5183 15.3613 14.5183 15.3413 14.5183 15.3214C14.5183 15.3014 14.5183 15.2814 14.5183 15.2614C14.5183 15.2414 14.5183 15.2214 14.5183 15.2014C14.5183 15.1814 14.5183 15.1614 14.5183 15.1413C14.5183 15.1213 14.5183 15.1012 14.5183 15.0812C14.5183 15.0611 14.5183 15.041 14.5183 15.0209C14.5183 15.0009 14.5183 14.9808 14.5183 14.9607C14.5183 14.9405 14.5183 14.9204 14.5183 14.9003C14.5183 14.8802 14.5183 14.86 14.5183 14.8399C14.5183 14.8197 14.5183 14.7996 14.5183 14.7794C14.5183 14.7592 14.5183 14.739 14.5183 14.7188C14.5183 14.6987 14.5183 14.6785 14.5183 14.6582C14.5183 14.638 14.5183 14.6178 14.5183 14.5976C14.5183 14.5773 14.5183 14.5571 14.5183 14.5368C14.5183 14.5166 14.5183 14.4963 14.5183 14.4761C14.5183 14.4558 14.5183 14.4355 14.5183 14.4152C14.5183 14.3949 14.5183 14.3746 14.5183 14.3543C14.5183 14.334 14.5183 14.3137 14.5183 14.2934C14.5183 14.273 14.5183 14.2527 14.5183 14.2323C14.5183 14.212 14.5183 14.1916 14.5183 14.1713C14.5183 14.1509 14.5183 14.1305 14.5183 14.1102C14.5183 14.0898 14.5183 14.0694 14.5183 14.049C14.5183 14.0286 14.5183 14.0082 14.5183 13.9878C14.5183 13.9674 14.5183 13.9469 14.5183 13.9265C14.5183 13.9061 14.5183 13.8856 14.5183 13.8652C14.5183 13.8447 14.5183 13.8243 14.5183 13.8038C14.5183 13.7834 14.5183 13.7629 14.5183 13.7424C14.5183 13.7219 14.5183 13.7015 14.5183 13.681C14.5183 13.6605 14.5183 13.64 14.5183 13.6195C14.5183 13.599 14.5183 13.5784 14.5183 13.5579C14.5183 13.5374 14.5183 13.5169 14.5183 13.4963C14.5183 13.4758 14.5183 13.4553 14.5183 13.4347C14.5183 13.4142 14.5183 13.3936 14.5183 13.373C14.5183 13.3525 14.5183 13.3319 14.5183 13.3113C14.5183 13.2908 14.5183 13.2702 14.5183 13.2496C14.5183 13.229 14.5183 13.2084 14.5183 13.1878C14.5183 13.1672 14.5183 13.1466 14.5183 13.126C14.5183 13.1054 14.5183 13.0847 14.5183 13.0641C14.5183 13.0435 14.5183 13.0229 14.5183 13.0022C14.5183 12.9816 14.5183 12.961 14.5183 12.9403C14.5183 12.9197 14.5183 12.899 14.5183 12.8784C14.5183 12.8577 14.5183 12.837 14.5183 12.8164C14.5183 12.7957 14.5183 12.775 14.5183 12.7544C14.5183 12.7337 14.5183 12.713 14.5183 12.6923C14.5183 12.6716 14.5183 12.6509 14.5183 12.6302C14.5183 12.6095 14.5183 12.5888 14.5183 12.5681C14.5183 12.5474 14.5183 12.5267 14.5183 12.506C14.5183 12.4853 14.5183 12.4646 14.5183 12.4438C14.5183 12.4231 14.5183 12.4024 14.5183 12.3817C14.5183 12.3609 14.5183 12.3402 14.5183 12.3195C14.5183 12.2987 14.5183 12.278 14.5183 12.2572C14.5183 12.2365 14.5183 12.2158 14.5183 12.195C14.5183 12.1743 14.5183 12.1535 14.5183 12.1327C14.5183 12.112 14.5183 12.0912 14.5183 12.0705C14.5183 12.0497 14.5183 12.0289 14.5183 12.0082C14.5183 11.9874 14.5183 11.9666 14.5183 11.9458C14.5183 11.9251 14.5183 11.9043 14.5183 11.8835C14.5183 11.8627 14.5183 11.8419 14.5183 11.8211C14.5183 11.8004 14.5183 11.7796 14.5183 11.7588C14.5183 11.738 14.5183 11.7172 14.5183 11.6964C14.5183 11.6756 14.5183 11.6548 14.5183 11.634C14.5183 11.6132 14.5183 11.5924 14.5183 11.5716C14.5183 11.5508 14.5183 11.53 14.5183 11.5092C14.5183 11.4884 14.5183 11.4676 14.5183 11.4468C14.5183 11.426 14.5183 11.4052 14.5183 11.3843C14.5183 11.3635 14.5183 11.3427 14.5183 11.3219C14.5183 11.3011 14.5183 11.2803 14.5183 11.2595C14.5183 11.2387 14.5183 11.2178 14.5183 11.197C14.5183 11.1762 14.5183 11.1554 14.5183 11.1346C14.5183 11.1138 14.5183 11.0929 14.5183 11.0721C14.5183 11.0513 14.5183 11.0305 14.5183 11.0097C14.5183 10.9888 14.5183 10.968 14.5183 10.9472C14.5183 10.9264 14.5183 10.9056 14.5183 10.8847C14.5183 10.8639 14.5183 10.8431 14.5183 10.8223C14.5183 10.8015 14.5183 10.7806 14.5183 10.7598C14.5183 10.739 14.5183 10.7182 14.5183 10.6974C14.5183 10.6766 14.5183 10.6557 14.5183 10.6349C14.5183 10.6141 14.5183 10.5933 14.5183 10.5725C14.5183 10.5517 14.5183 10.5309 14.5183 10.51C14.5183 10.4892 14.5183 10.4684 14.5183 10.4476C14.5183 10.4268 14.5183 10.406 14.5183 10.3852C14.5183 10.3644 14.5183 10.3436 14.5183 10.3228C14.5183 10.302 14.5183 10.2812 14.5183 10.2604C14.5183 10.2396 14.5183 10.2188 14.5183 10.198C14.5183 10.1772 14.5183 10.1564 14.5183 10.1356C14.5183 10.1148 14.5183 10.094 14.5183 10.0732C14.5183 10.0525 14.5183 10.0317 14.5183 10.0109C14.5183 9.9901 14.5183 9.96932 14.5183 9.94855C14.5183 9.92777 14.5183 9.90699 14.5183 9.88622C14.5183 9.86545 14.5183 9.84468 14.5183 9.82392C14.5183 9.80315 14.5183 9.78239 14.5183 9.76163C14.5183 9.74087 14.5183 9.72012 14.5183 9.69936C14.5183 9.67861 14.5183 9.65786 14.5183 9.63711C14.5183 9.61637 14.5183 9.59563 14.5183 9.57489C14.5183 9.55415 14.5183 9.53341 14.5183 9.51268C14.5183 9.49195 14.5183 9.47122 14.5183 9.4505C14.5183 9.42978 14.5183 9.40906 14.5183 9.38834C14.5183 9.36763 14.5183 9.34692 14.5183 9.32621C14.5183 9.3055 14.5183 9.2848 14.5183 9.2641C14.5183 9.24341 14.5183 9.22271 14.5183 9.20202C14.5183 9.18134 14.5183 9.16065 14.5183 9.13997C14.5183 9.11929 14.5183 9.09862 14.5183 9.07795C14.5183 9.05728 14.5183 9.03662 14.5183 9.01596C14.5183 8.9953 14.5183 8.97465 14.5183 8.954C14.5183 8.93335 14.5183 8.91271 14.5183 8.89207C14.5183 8.87143 14.5183 8.8508 14.5183 8.83017C14.5183 8.80955 14.5183 8.78893 14.5183 8.76831C14.5183 8.7477 14.5183 8.72709 14.5183 8.70649C14.5183 8.68588 14.5183 8.66529 14.5183 8.6447C14.5183 8.62411 14.5183 8.60352 14.5183 8.58294C14.5183 8.56236 14.5183 8.54179 14.5183 8.52123C14.5183 8.50066 14.5183 8.4801 14.5183 8.45955C14.5183 8.439 14.5183 8.41846 14.5183 8.39792C14.5183 8.37738 14.5183 8.35685 14.5183 8.33632C14.5183 8.3158 14.5183 8.29528 14.5183 8.27477C14.5183 8.25426 14.5183 8.23376 14.5183 8.21326C14.5183 8.19277 14.5183 8.17228 14.5183 8.1518C14.5183 8.13132 14.5183 8.11085 14.5183 8.09038C14.5183 8.06992 14.5183 8.04946 14.5183 8.02901C14.5183 8.00856 14.5183 7.98812 14.5183 7.96768C14.5183 7.94725 14.5183 7.92682 14.5183 7.90641C14.5183 7.88599 14.5183 7.86558 14.5183 7.84518C14.5183 7.82478 14.5183 7.80439 14.5183 7.784C14.5183 7.76362 14.5183 7.74324 14.5183 7.72288C14.5183 7.70251 14.5183 7.68215 14.5183 7.6618C14.5183 7.64145 14.5183 7.62111 14.5183 7.60078C14.5183 7.58045 14.5183 7.56013 14.5183 7.53982C14.5183 7.5195 14.5183 7.4992 14.5183 7.47891C14.5183 7.45861 14.5183 7.43833 14.5183 7.41805C14.5183 7.39778 14.5183 7.37751 14.5183 7.35726C14.5183 7.337 14.5183 7.31675 14.5183 7.29652C14.5183 7.27628 14.5183 7.25605 14.5183 7.23584C14.5183 7.21562 14.5183 7.19542 14.5183 7.17522C14.5183 7.15502 14.5183 7.13484 14.5183 7.11466C14.5183 7.09449 14.5183 7.07432 14.5183 7.05417C14.5183 7.03401 14.5183 7.01387 14.5183 6.99374C14.5183 6.9736 14.5183 6.95348 14.5183 6.93337C14.5183 6.91326 14.5183 6.89316 14.5183 6.87307C14.5183 6.85298 14.5183 6.8329 14.5183 6.81283C14.5183 6.79276 14.5183 6.77271 14.5183 6.75266C14.5183 6.73262 14.5183 6.71259 14.5183 6.69256C14.5183 6.67254 14.5183 6.65253 14.5183 6.63253C14.5183 6.61254 14.5183 6.59255 14.5183 6.57257C14.5183 6.5526 14.5183 6.53264 14.5183 6.51269C14.5183 6.49274 14.5183 6.4728 14.5183 6.45287C14.5183 6.43295 14.5183 6.41303 14.5183 6.39313C14.5183 6.37323 14.5183 6.35334 14.5183 6.33346C14.5183 6.31359 14.5183 6.29372 14.5183 6.27387C14.5183 6.25402 14.5183 6.23418 14.5183 6.21436C14.5183 6.19453 14.5183 6.17472 14.5183 6.15492C14.5183 6.13512 14.5183 6.11533 14.5183 6.09556C14.5183 6.07579 14.5183 6.05603 14.5183 6.03628C14.5183 6.01653 14.5183 5.9968 14.5183 5.97708C14.5183 5.95736 14.5183 5.93765 14.5183 5.91796C14.5183 5.89827 14.5183 5.87859 14.5183 5.85893C14.5183 5.83926 14.5183 5.81961 14.5183 5.79998C14.5183 5.78034 14.5183 5.76072 14.5183 5.74111C14.5183 5.7215 14.5183 5.70191 14.5183 5.68233C14.5183 5.66275 14.5183 5.64318 14.5183 5.62363C14.5183 5.60408 14.5183 5.58455 14.5183 5.56503C14.5183 5.54551 14.5183 5.526 14.5183 5.50651C14.5183 5.48702 14.5183 5.46754 14.5183 5.44808C14.5183 5.42862 14.5183 5.40917 14.5183 5.38974C14.5183 5.37031 14.5183 5.35089 14.5183 5.3315C14.5183 5.3121 14.5183 5.29271 14.5183 5.27334C14.5183 5.25397 14.5183 5.23462 14.5183 5.21528C14.5183 5.19594 14.5183 5.17662 14.5183 5.15732C14.5183 5.13801 14.5183 5.11872 14.5183 5.09945C14.5183 5.08017 14.5183 5.06091 14.5183 5.04167C14.5183 5.02243 14.5183 5.00321 14.5183 4.984C14.5183 4.96479 14.5183 4.9456 14.5183 4.92642C14.5183 4.90725 14.5183 4.88809 14.5183 4.86894C14.5183 4.8498 14.5183 4.83068 14.5183 4.81157C14.5183 4.79246 14.5183 4.77337 14.5183 4.75429C14.5183 4.73522 14.5183 4.71616 14.5183 4.69712C14.5183 4.67808 14.5183 4.65906 14.5183 4.64005C14.5183 4.62105 14.5183 4.60206 14.5183 4.58309C14.5183 4.56412 14.5183 4.54517 14.5183 4.52623C14.5183 4.5073 14.5183 4.48838 14.5183 4.46948C14.5183 4.45058 14.5183 4.4317 14.5183 4.41284C14.5183 4.39397 14.5183 4.37513 14.5183 4.3563C14.5183 4.33748 14.5183 4.31867 14.5183 4.29988C14.5183 4.28109 14.5183 4.26232 14.5183 4.24356C14.5183 4.22481 14.5183 4.20608 14.5183 4.18736C14.5183 4.16865 14.5183 4.14995 14.5183 4.13128C14.5183 4.1126 14.5183 4.09394 14.5183 4.0753C14.5183 4.05666 14.5183 4.03804 14.5183 4.01944C14.5183 4.00084 14.5183 3.98226 14.5183 3.96369C14.5183 3.94513 14.5183 3.92659 14.5183 3.90807C14.5183 3.88954 14.5183 3.87104 14.5183 3.85256C14.5183 3.83407 14.5183 3.81561 14.5183 3.79716C14.5183 3.77872 14.5183 3.7603 14.5183 3.74189C14.5183 3.72349 14.5183 3.70511 14.5183 3.68674C14.5183 3.66838 14.5183 3.65004 14.5183 3.63172C14.5183 3.61339 14.5183 3.59509 14.5183 3.57681C14.5183 3.55853 14.5183 3.54027 14.5183 3.52203C14.5183 3.50379 14.5183 3.48557 14.5183 3.46737C14.5183 3.44917 14.5183 3.431 14.5183 3.41284C14.5183 3.39469 14.5183 3.37655 14.5183 3.35844C14.5183 3.34032 14.5183 3.32223 14.5183 3.30416C14.5183 3.28609 14.5183 3.26804 14.5183 3.25002C14.5183 3.23199 14.5183 3.21398 14.5183 3.196C14.5183 3.17801 14.5183 3.16005 14.5183 3.14211C14.5183 3.12417 14.5183 3.10625 14.5183 3.08836C14.5183 3.07046 14.5183 3.05259 14.5183 3.03474C14.5183 3.01689 14.5183 2.99906 14.5183 2.98125C14.5183 2.96344 14.5183 2.94566 14.5183 2.9279C14.5183 2.91014 14.5183 2.8924 14.5183 2.87468C14.5183 2.85697 14.5183 2.83927 14.5183 2.8216C14.5183 2.80393 14.5183 2.78629 14.5183 2.76866C14.5183 2.75104 14.5183 2.73344 14.5183 2.71586C14.5183 2.69828 14.5183 2.68073 14.5183 2.6632C14.5183 2.64567 14.5183 2.62816 14.5183 2.61068C14.5183 2.59319 14.5183 2.57573 14.5183 2.5583C14.5183 2.54086 14.5183 2.52345 14.5183 2.50606C14.5183 2.48867 14.5183 2.47131 14.5183 2.45397C14.5183 2.43663 14.5183 2.41931 14.5183 2.40202C14.5183 2.38473 14.5183 2.36746 14.5183 2.35022C14.5183 2.33298 14.5183 2.31576 14.5183 2.29857C14.5183 2.28137 14.5183 2.26421 14.5183 2.24706C14.5183 2.22992 14.5183 2.2128 14.5183 2.19571C14.5183 2.17861 14.5183 2.16154 14.5183 2.1445C14.5183 2.12746 14.5183 2.11044 14.5183 2.09344C14.5183 2.07645 14.5183 2.05948 14.5183 2.04254C14.5183 2.0256 14.5183 2.00868 14.5183 1.99179C14.5183 1.9749 14.5183 1.95803 14.5183 1.9412C14.5183 1.92436 14.5183 1.90754 14.5183 1.89075C14.5183 1.87397 14.5183 1.85721 14.5183 1.84047C14.5183 1.82374 14.5183 1.80703 14.5183 1.79034C14.5183 1.77366 14.5183 1.757 14.5183 1.74037C14.5183 1.72375 14.5183 1.70714 14.5183 1.69057C14.5183 1.67399 14.5183 1.65744 14.5183 1.64091C14.5183 1.62439 14.5183 1.60789 14.5183 1.59143C14.5183 1.57496 14.5183 1.55852 14.5183 1.5421C14.5183 1.52568 14.5183 1.5093 14.5183 1.49294C14.5183 1.47658 14.5183 1.46024 14.5183 1.44394C14.5183 1.42763 14.5183 1.41135 14.5183 1.3951C14.5183 1.37885 14.5183 1.36263 14.5183 1.34644C14.5183 1.33024 14.5183 1.31408 14.5183 1.29794C14.5183 1.2818 14.5183 1.26569 14.5183 1.24961C14.5183 1.23352 14.5183 1.21747 14.5183 1.20144C14.5183 1.18542 14.5183 1.16942 14.5183 1.15345C14.5183 1.13748 14.5183 1.12154 14.5183 1.10563C14.5183 1.08972 14.5183 1.07383 14.5183 1.05798C14.5183 1.04213 14.5183 1.0263 14.5183 1.0105C14.5183 0.994709 14.5183 0.978941 14.5183 0.963203C14.5183 0.947466 14.5183 0.931757 14.5183 0.916077C14.5183 0.900398 14.5183 0.884748 14.5183 0.869127C14.5183 0.853508 14.5183 0.837917 14.5183 0.822355C14.5183 0.806795 14.5183 0.791264 14.5183 0.775763C14.5183 0.76026 14.5183 0.744789 14.5183 0.729347C14.5183 0.713905 14.5183 0.698494 14.5183 0.683113C14.5183 0.667732 14.5183 0.65238 14.5183 0.63706C14.5183 0.62174 14.5183 0.606449 14.5183 0.59119C14.5183 0.57593 14.5183 0.560701 14.5183 0.545504C14.5183 0.530304 14.5183 0.515137 14.5183 0.5L12.5183 0.5C12.5183 0.515137 12.5183 0.530304 12.5183 0.545504C12.5183 0.560701 12.5183 0.57593 12.5183 0.59119C12.5183 0.606449 12.5183 0.62174 12.5183 0.63706C12.5183 0.65238 12.5183 0.667732 12.5183 0.683113C12.5183 0.698494 12.5183 0.713905 12.5183 0.729347C12.5183 0.744789 12.5183 0.76026 12.5183 0.775763C12.5183 0.791264 12.5183 0.806795 12.5183 0.822355C12.5183 0.837917 12.5183 0.853508 12.5183 0.869127C12.5183 0.884749 12.5183 0.900398 12.5183 0.916077C12.5183 0.931757 12.5183 0.947466 12.5183 0.963203C12.5183 0.978941 12.5183 0.994709 12.5183 1.0105C12.5183 1.0263 12.5183 1.04213 12.5183 1.05798C12.5183 1.07383 12.5183 1.08972 12.5183 1.10563C12.5183 1.12154 12.5183 1.13748 12.5183 1.15345C12.5183 1.16942 12.5183 1.18542 12.5183 1.20144C12.5183 1.21747 12.5183 1.23352 12.5183 1.24961C12.5183 1.26569 12.5183 1.2818 12.5183 1.29794C12.5183 1.31408 12.5183 1.33024 12.5183 1.34644C12.5183 1.36263 12.5183 1.37885 12.5183 1.3951C12.5183 1.41135 12.5183 1.42763 12.5183 1.44394C12.5183 1.46024 12.5183 1.47658 12.5183 1.49294C12.5183 1.5093 12.5183 1.52568 12.5183 1.5421C12.5183 1.55852 12.5183 1.57496 12.5183 1.59143C12.5183 1.60789 12.5183 1.62439 12.5183 1.64091C12.5183 1.65744 12.5183 1.67399 12.5183 1.69057C12.5183 1.70714 12.5183 1.72375 12.5183 1.74037C12.5183 1.757 12.5183 1.77366 12.5183 1.79034C12.5183 1.80703 12.5183 1.82374 12.5183 1.84047C12.5183 1.85721 12.5183 1.87397 12.5183 1.89075C12.5183 1.90754 12.5183 1.92436 12.5183 1.9412C12.5183 1.95803 12.5183 1.9749 12.5183 1.99179C12.5183 2.00868 12.5183 2.0256 12.5183 2.04254C12.5183 2.05948 12.5183 2.07645 12.5183 2.09344C12.5183 2.11044 12.5183 2.12746 12.5183 2.1445C12.5183 2.16154 12.5183 2.17861 12.5183 2.19571C12.5183 2.2128 12.5183 2.22992 12.5183 2.24706C12.5183 2.26421 12.5183 2.28137 12.5183 2.29857C12.5183 2.31576 12.5183 2.33298 12.5183 2.35022C12.5183 2.36746 12.5183 2.38473 12.5183 2.40202C12.5183 2.41931 12.5183 2.43663 12.5183 2.45397C12.5183 2.47131 12.5183 2.48867 12.5183 2.50606C12.5183 2.52345 12.5183 2.54086 12.5183 2.5583C12.5183 2.57573 12.5183 2.59319 12.5183 2.61068C12.5183 2.62816 12.5183 2.64567 12.5183 2.6632C12.5183 2.68073 12.5183 2.69828 12.5183 2.71586C12.5183 2.73344 12.5183 2.75104 12.5183 2.76866C12.5183 2.78629 12.5183 2.80393 12.5183 2.8216C12.5183 2.83927 12.5183 2.85697 12.5183 2.87468C12.5183 2.8924 12.5183 2.91014 12.5183 2.9279C12.5183 2.94566 12.5183 2.96344 12.5183 2.98125C12.5183 2.99906 12.5183 3.01689 12.5183 3.03474C12.5183 3.05259 12.5183 3.07046 12.5183 3.08836C12.5183 3.10625 12.5183 3.12417 12.5183 3.14211C12.5183 3.16005 12.5183 3.17801 12.5183 3.196C12.5183 3.21398 12.5183 3.23199 12.5183 3.25002C12.5183 3.26804 12.5183 3.28609 12.5183 3.30416C12.5183 3.32223 12.5183 3.34032 12.5183 3.35844C12.5183 3.37655 12.5183 3.39469 12.5183 3.41284C12.5183 3.431 12.5183 3.44917 12.5183 3.46737C12.5183 3.48557 12.5183 3.50379 12.5183 3.52203C12.5183 3.54027 12.5183 3.55853 12.5183 3.57681C12.5183 3.59509 12.5183 3.61339 12.5183 3.63172C12.5183 3.65004 12.5183 3.66838 12.5183 3.68674C12.5183 3.70511 12.5183 3.72349 12.5183 3.74189C12.5183 3.7603 12.5183 3.77872 12.5183 3.79716C12.5183 3.81561 12.5183 3.83407 12.5183 3.85256C12.5183 3.87104 12.5183 3.88954 12.5183 3.90807C12.5183 3.92659 12.5183 3.94513 12.5183 3.96369C12.5183 3.98226 12.5183 4.00084 12.5183 4.01944C12.5183 4.03804 12.5183 4.05666 12.5183 4.0753C12.5183 4.09394 12.5183 4.1126 12.5183 4.13128C12.5183 4.14995 12.5183 4.16865 12.5183 4.18736C12.5183 4.20608 12.5183 4.22481 12.5183 4.24356C12.5183 4.26232 12.5183 4.28109 12.5183 4.29988C12.5183 4.31867 12.5183 4.33748 12.5183 4.3563C12.5183 4.37513 12.5183 4.39397 12.5183 4.41284C12.5183 4.4317 12.5183 4.45058 12.5183 4.46948C12.5183 4.48838 12.5183 4.5073 12.5183 4.52623C12.5183 4.54517 12.5183 4.56412 12.5183 4.58309C12.5183 4.60206 12.5183 4.62105 12.5183 4.64005C12.5183 4.65906 12.5183 4.67808 12.5183 4.69712C12.5183 4.71616 12.5183 4.73522 12.5183 4.75429C12.5183 4.77337 12.5183 4.79246 12.5183 4.81157C12.5183 4.83068 12.5183 4.8498 12.5183 4.86894C12.5183 4.88809 12.5183 4.90725 12.5183 4.92642C12.5183 4.9456 12.5183 4.96479 12.5183 4.984C12.5183 5.00321 12.5183 5.02243 12.5183 5.04167C12.5183 5.06092 12.5183 5.08017 12.5183 5.09945C12.5183 5.11872 12.5183 5.13801 12.5183 5.15732C12.5183 5.17662 12.5183 5.19594 12.5183 5.21528C12.5183 5.23462 12.5183 5.25397 12.5183 5.27334C12.5183 5.29271 12.5183 5.3121 12.5183 5.3315C12.5183 5.35089 12.5183 5.37031 12.5183 5.38974C12.5183 5.40917 12.5183 5.42862 12.5183 5.44808C12.5183 5.46754 12.5183 5.48702 12.5183 5.50651C12.5183 5.526 12.5183 5.54551 12.5183 5.56503C12.5183 5.58455 12.5183 5.60408 12.5183 5.62363C12.5183 5.64318 12.5183 5.66275 12.5183 5.68233C12.5183 5.70191 12.5183 5.7215 12.5183 5.74111C12.5183 5.76072 12.5183 5.78034 12.5183 5.79998C12.5183 5.81961 12.5183 5.83926 12.5183 5.85893C12.5183 5.87859 12.5183 5.89827 12.5183 5.91796C12.5183 5.93765 12.5183 5.95736 12.5183 5.97708C12.5183 5.9968 12.5183 6.01653 12.5183 6.03628C12.5183 6.05603 12.5183 6.07579 12.5183 6.09556C12.5183 6.11533 12.5183 6.13512 12.5183 6.15492C12.5183 6.17472 12.5183 6.19453 12.5183 6.21436C12.5183 6.23418 12.5183 6.25402 12.5183 6.27387C12.5183 6.29372 12.5183 6.31359 12.5183 6.33346C12.5183 6.35334 12.5183 6.37323 12.5183 6.39313C12.5183 6.41303 12.5183 6.43295 12.5183 6.45287C12.5183 6.4728 12.5183 6.49274 12.5183 6.51269C12.5183 6.53264 12.5183 6.5526 12.5183 6.57257C12.5183 6.59255 12.5183 6.61254 12.5183 6.63253C12.5183 6.65253 12.5183 6.67254 12.5183 6.69256C12.5183 6.71259 12.5183 6.73262 12.5183 6.75266C12.5183 6.77271 12.5183 6.79276 12.5183 6.81283C12.5183 6.8329 12.5183 6.85298 12.5183 6.87307C12.5183 6.89316 12.5183 6.91326 12.5183 6.93337C12.5183 6.95348 12.5183 6.9736 12.5183 6.99374C12.5183 7.01387 12.5183 7.03401 12.5183 7.05417C12.5183 7.07432 12.5183 7.09449 12.5183 7.11466C12.5183 7.13484 12.5183 7.15502 12.5183 7.17522C12.5183 7.19542 12.5183 7.21562 12.5183 7.23584C12.5183 7.25605 12.5183 7.27628 12.5183 7.29652C12.5183 7.31675 12.5183 7.337 12.5183 7.35726C12.5183 7.37751 12.5183 7.39778 12.5183 7.41805C12.5183 7.43833 12.5183 7.45861 12.5183 7.47891C12.5183 7.4992 12.5183 7.5195 12.5183 7.53982C12.5183 7.56013 12.5183 7.58045 12.5183 7.60078C12.5183 7.62111 12.5183 7.64145 12.5183 7.6618C12.5183 7.68215 12.5183 7.70251 12.5183 7.72288C12.5183 7.74324 12.5183 7.76362 12.5183 7.784C12.5183 7.80439 12.5183 7.82478 12.5183 7.84518C12.5183 7.86558 12.5183 7.88599 12.5183 7.90641C12.5183 7.92682 12.5183 7.94725 12.5183 7.96768C12.5183 7.98812 12.5183 8.00856 12.5183 8.02901C12.5183 8.04946 12.5183 8.06992 12.5183 8.09038C12.5183 8.11085 12.5183 8.13132 12.5183 8.1518C12.5183 8.17228 12.5183 8.19277 12.5183 8.21326C12.5183 8.23376 12.5183 8.25426 12.5183 8.27477C12.5183 8.29528 12.5183 8.3158 12.5183 8.33632C12.5183 8.35685 12.5183 8.37738 12.5183 8.39792C12.5183 8.41846 12.5183 8.439 12.5183 8.45955C12.5183 8.4801 12.5183 8.50066 12.5183 8.52123C12.5183 8.54179 12.5183 8.56236 12.5183 8.58294C12.5183 8.60352 12.5183 8.62411 12.5183 8.6447C12.5183 8.66529 12.5183 8.68588 12.5183 8.70649C12.5183 8.72709 12.5183 8.7477 12.5183 8.76831C12.5183 8.78893 12.5183 8.80955 12.5183 8.83017C12.5183 8.8508 12.5183 8.87143 12.5183 8.89207C12.5183 8.91271 12.5183 8.93335 12.5183 8.954C12.5183 8.97465 12.5183 8.9953 12.5183 9.01596C12.5183 9.03662 12.5183 9.05728 12.5183 9.07795C12.5183 9.09862 12.5183 9.11929 12.5183 9.13997C12.5183 9.16065 12.5183 9.18134 12.5183 9.20202C12.5183 9.22271 12.5183 9.24341 12.5183 9.2641C12.5183 9.2848 12.5183 9.3055 12.5183 9.32621C12.5183 9.34692 12.5183 9.36763 12.5183 9.38834C12.5183 9.40906 12.5183 9.42978 12.5183 9.4505C12.5183 9.47122 12.5183 9.49195 12.5183 9.51268C12.5183 9.53341 12.5183 9.55415 12.5183 9.57489C12.5183 9.59563 12.5183 9.61637 12.5183 9.63711C12.5183 9.65786 12.5183 9.67861 12.5183 9.69936C12.5183 9.72012 12.5183 9.74087 12.5183 9.76163C12.5183 9.78239 12.5183 9.80315 12.5183 9.82392C12.5183 9.84468 12.5183 9.86545 12.5183 9.88622C12.5183 9.90699 12.5183 9.92777 12.5183 9.94855C12.5183 9.96932 12.5183 9.9901 12.5183 10.0109C12.5183 10.0317 12.5183 10.0525 12.5183 10.0732C12.5183 10.094 12.5183 10.1148 12.5183 10.1356C12.5183 10.1564 12.5183 10.1772 12.5183 10.198C12.5183 10.2188 12.5183 10.2396 12.5183 10.2604C12.5183 10.2812 12.5183 10.302 12.5183 10.3228C12.5183 10.3436 12.5183 10.3644 12.5183 10.3852C12.5183 10.406 12.5183 10.4268 12.5183 10.4476C12.5183 10.4684 12.5183 10.4892 12.5183 10.51C12.5183 10.5309 12.5183 10.5517 12.5183 10.5725C12.5183 10.5933 12.5183 10.6141 12.5183 10.6349C12.5183 10.6557 12.5183 10.6766 12.5183 10.6974C12.5183 10.7182 12.5183 10.739 12.5183 10.7598C12.5183 10.7806 12.5183 10.8015 12.5183 10.8223C12.5183 10.8431 12.5183 10.8639 12.5183 10.8847C12.5183 10.9056 12.5183 10.9264 12.5183 10.9472C12.5183 10.968 12.5183 10.9888 12.5183 11.0097C12.5183 11.0305 12.5183 11.0513 12.5183 11.0721C12.5183 11.0929 12.5183 11.1138 12.5183 11.1346C12.5183 11.1554 12.5183 11.1762 12.5183 11.197C12.5183 11.2178 12.5183 11.2387 12.5183 11.2595C12.5183 11.2803 12.5183 11.3011 12.5183 11.3219C12.5183 11.3427 12.5183 11.3635 12.5183 11.3843C12.5183 11.4052 12.5183 11.426 12.5183 11.4468C12.5183 11.4676 12.5183 11.4884 12.5183 11.5092C12.5183 11.53 12.5183 11.5508 12.5183 11.5716C12.5183 11.5924 12.5183 11.6132 12.5183 11.634C12.5183 11.6548 12.5183 11.6756 12.5183 11.6964C12.5183 11.7172 12.5183 11.738 12.5183 11.7588C12.5183 11.7796 12.5183 11.8004 12.5183 11.8211C12.5183 11.8419 12.5183 11.8627 12.5183 11.8835C12.5183 11.9043 12.5183 11.9251 12.5183 11.9458C12.5183 11.9666 12.5183 11.9874 12.5183 12.0082C12.5183 12.0289 12.5183 12.0497 12.5183 12.0705C12.5183 12.0912 12.5183 12.112 12.5183 12.1327C12.5183 12.1535 12.5183 12.1743 12.5183 12.195C12.5183 12.2158 12.5183 12.2365 12.5183 12.2572C12.5183 12.278 12.5183 12.2987 12.5183 12.3195C12.5183 12.3402 12.5183 12.3609 12.5183 12.3817C12.5183 12.4024 12.5183 12.4231 12.5183 12.4438C12.5183 12.4646 12.5183 12.4853 12.5183 12.506C12.5183 12.5267 12.5183 12.5474 12.5183 12.5681C12.5183 12.5888 12.5183 12.6095 12.5183 12.6302C12.5183 12.6509 12.5183 12.6716 12.5183 12.6923C12.5183 12.713 12.5183 12.7337 12.5183 12.7544C12.5183 12.775 12.5183 12.7957 12.5183 12.8164C12.5183 12.837 12.5183 12.8577 12.5183 12.8784C12.5183 12.899 12.5183 12.9197 12.5183 12.9403C12.5183 12.961 12.5183 12.9816 12.5183 13.0022C12.5183 13.0229 12.5183 13.0435 12.5183 13.0641C12.5183 13.0847 12.5183 13.1054 12.5183 13.126C12.5183 13.1466 12.5183 13.1672 12.5183 13.1878C12.5183 13.2084 12.5183 13.229 12.5183 13.2496C12.5183 13.2702 12.5183 13.2908 12.5183 13.3113C12.5183 13.3319 12.5183 13.3525 12.5183 13.373C12.5183 13.3936 12.5183 13.4142 12.5183 13.4347C12.5183 13.4553 12.5183 13.4758 12.5183 13.4963C12.5183 13.5169 12.5183 13.5374 12.5183 13.5579C12.5183 13.5784 12.5183 13.599 12.5183 13.6195C12.5183 13.64 12.5183 13.6605 12.5183 13.681C12.5183 13.7015 12.5183 13.7219 12.5183 13.7424C12.5183 13.7629 12.5183 13.7834 12.5183 13.8038C12.5183 13.8243 12.5183 13.8447 12.5183 13.8652C12.5183 13.8856 12.5183 13.9061 12.5183 13.9265C12.5183 13.9469 12.5183 13.9674 12.5183 13.9878C12.5183 14.0082 12.5183 14.0286 12.5183 14.049C12.5183 14.0694 12.5183 14.0898 12.5183 14.1102C12.5183 14.1305 12.5183 14.1509 12.5183 14.1713C12.5183 14.1916 12.5183 14.212 12.5183 14.2323C12.5183 14.2527 12.5183 14.273 12.5183 14.2934C12.5183 14.3137 12.5183 14.334 12.5183 14.3543C12.5183 14.3746 12.5183 14.3949 12.5183 14.4152C12.5183 14.4355 12.5183 14.4558 12.5183 14.4761C12.5183 14.4963 12.5183 14.5166 12.5183 14.5368C12.5183 14.5571 12.5183 14.5773 12.5183 14.5976C12.5183 14.6178 12.5183 14.638 12.5183 14.6582C12.5183 14.6785 12.5183 14.6987 12.5183 14.7188C12.5183 14.739 12.5183 14.7592 12.5183 14.7794C12.5183 14.7996 12.5183 14.8197 12.5183 14.8399C12.5183 14.86 12.5183 14.8802 12.5183 14.9003C12.5183 14.9204 12.5183 14.9405 12.5183 14.9607C12.5183 14.9808 12.5183 15.0009 12.5183 15.0209C12.5183 15.041 12.5183 15.0611 12.5183 15.0812C12.5183 15.1012 12.5183 15.1213 12.5183 15.1413C12.5183 15.1614 12.5183 15.1814 12.5183 15.2014C12.5183 15.2214 12.5183 15.2414 12.5183 15.2614C12.5183 15.2814 12.5183 15.3014 12.5183 15.3214C12.5183 15.3413 12.5183 15.3613 12.5183 15.3813C12.5183 15.4012 12.5183 15.4211 12.5183 15.4411C12.5183 15.461 12.5183 15.4809 12.5183 15.5008C12.5183 15.5207 12.5183 15.5406 12.5183 15.5604C12.5183 15.5803 12.5183 15.6002 12.5183 15.62C12.5183 15.6399 12.5183 15.6597 12.5183 15.6795C12.5183 15.6993 12.5183 15.7191 12.5183 15.7389C12.5183 15.7587 12.5183 15.7785 12.5183 15.7983C12.5183 15.8181 12.5183 15.8378 12.5183 15.8575C12.5183 15.8773 12.5183 15.897 12.5183 15.9167C12.5183 15.9364 12.5183 15.9562 12.5183 15.9758C12.5183 15.9955 12.5183 16.0152 12.5183 16.0349C12.5183 16.0545 12.5183 16.0742 12.5183 16.0938C12.5183 16.1134 12.5183 16.133 12.5183 16.1526C12.5183 16.1722 12.5183 16.1918 12.5183 16.2114C12.5183 16.231 12.5183 16.2505 12.5183 16.2701C12.5183 16.2896 12.5183 16.3092 12.5183 16.3287C12.5183 16.3482 12.5183 16.3677 12.5183 16.3872C12.5183 16.4067 12.5183 16.4261 12.5183 16.4456C12.5183 16.4651 12.5183 16.4845 12.5183 16.5039C12.5183 16.5233 12.5183 16.5428 12.5183 16.5621C12.5183 16.5815 12.5183 16.6009 12.5183 16.6203C12.5183 16.6397 12.5183 16.659 12.5183 16.6783C12.5183 16.6977 12.5183 16.717 12.5183 16.7363C12.5183 16.7556 12.5183 16.7749 12.5183 16.7941C12.5183 16.8134 12.5183 16.8327 12.5183 16.8519C12.5183 16.8711 12.5183 16.8903 12.5183 16.9095C12.5183 16.9287 12.5183 16.9479 12.5183 16.9671C12.5183 16.9863 12.5183 17.0054 12.5183 17.0246C12.5183 17.0437 12.5183 17.0628 12.5183 17.0819C12.5183 17.101 12.5183 17.1201 12.5183 17.1392C12.5183 17.1582 12.5183 17.1773 12.5183 17.1963C12.5183 17.2154 12.5183 17.2344 12.5183 17.2534C12.5183 17.2724 12.5183 17.2914 12.5183 17.3103C12.5183 17.3293 12.5183 17.3482 12.5183 17.3672C12.5183 17.3861 12.5183 17.405 12.5183 17.4239C12.5183 17.4428 12.5183 17.4617 12.5183 17.4805C12.5183 17.4994 12.5183 17.5182 12.5183 17.537C12.5183 17.5559 12.5183 17.5747 12.5183 17.5934C12.5183 17.6122 12.5183 17.631 12.5183 17.6497C12.5183 17.6685 12.5183 17.6872 12.5183 17.7059C12.5183 17.7246 12.5183 17.7433 12.5183 17.762C12.5183 17.7807 12.5183 17.7993 12.5183 17.8179C12.5183 17.8366 12.5183 17.8552 12.5183 17.8738C12.5183 17.8924 12.5183 17.9109 12.5183 17.9295C12.5183 17.9481 12.5183 17.9666 12.5183 17.9851C12.5183 18.0036 12.5183 18.0221 12.5183 18.0406C12.5183 18.0591 12.5183 18.0775 12.5183 18.096C12.5183 18.1144 12.5183 18.1328 12.5183 18.1512C12.5183 18.1696 12.5183 18.188 12.5183 18.2063C12.5183 18.2247 12.5183 18.243 12.5183 18.2614C12.5183 18.2797 12.5183 18.298 12.5183 18.3162C12.5183 18.3345 12.5183 18.3528 12.5183 18.371C12.5183 18.3892 12.5183 18.4074 12.5183 18.4256C12.5183 18.4438 12.5183 18.462 12.5183 18.4801C12.5183 18.4983 12.5183 18.5164 12.5183 18.5345C12.5183 18.5526 12.5183 18.5707 12.5183 18.5888C12.5183 18.6068 12.5183 18.6249 12.5183 18.6429C12.5183 18.6609 12.5183 18.6789 12.5183 18.6969C12.5183 18.7149 12.5183 18.7328 12.5183 18.7508C12.5183 18.7687 12.5183 18.7866 12.5183 18.8045C12.5183 18.8224 12.5183 18.8402 12.5183 18.8581C12.5183 18.8759 12.5183 18.8937 12.5183 18.9115C12.5183 18.9293 12.5183 18.9471 12.5183 18.9649C12.5183 18.9826 12.5183 19.0004 12.5183 19.0181C12.5183 19.0358 12.5183 19.0535 12.5183 19.0711C12.5183 19.0888 12.5183 19.1064 12.5183 19.124C12.5183 19.1417 12.5183 19.1592 12.5183 19.1768C12.5183 19.1944 12.5183 19.2119 12.5183 19.2295C12.5183 19.247 12.5183 19.2645 12.5183 19.2819C12.5183 19.2994 12.5183 19.3169 12.5183 19.3343C12.5183 19.3517 12.5183 19.3691 12.5183 19.3865C12.5183 19.4039 12.5183 19.4212 12.5183 19.4386C12.5183 19.4559 12.5183 19.4732 12.5183 19.4905C12.5183 19.5078 12.5183 19.525 12.5183 19.5423C12.5183 19.5595 12.5183 19.5767 12.5183 19.5939C12.5183 19.6111 12.5183 19.6282 12.5183 19.6454C12.5183 19.6625 12.5183 19.6796 12.5183 19.6967C12.5183 19.7138 12.5183 19.7309 12.5183 19.7479C12.5183 19.7649 12.5183 19.7819 12.5183 19.7989C12.5183 19.8159 12.5183 19.8329 12.5183 19.8498C12.5183 19.8667 12.5183 19.8836 12.5183 19.9005C12.5183 19.9174 12.5183 19.9343 12.5183 19.9511C12.5183 19.9679 12.5183 19.9847 12.5183 20.0015C12.5183 20.0183 12.5183 20.035 12.5183 20.0518C12.5183 20.0685 12.5183 20.0852 12.5183 20.1019C12.5183 20.1185 12.5183 20.1352 12.5183 20.1518C12.5183 20.1684 12.5183 20.185 12.5183 20.2016C12.5183 20.2181 12.5183 20.2347 12.5183 20.2512C12.5183 20.2677 12.5183 20.2842 12.5183 20.3007C12.5183 20.3171 12.5183 20.3335 12.5183 20.35C12.5183 20.3664 12.5183 20.3827 12.5183 20.3991C12.5183 20.4154 12.5183 20.4318 12.5183 20.4481C12.5183 20.4644 12.5183 20.4806 12.5183 20.4969C12.5183 20.5131 12.5183 20.5293 12.5183 20.5455C12.5183 20.5617 12.5183 20.5778 12.5183 20.594C12.5183 20.6101 12.5183 20.6262 12.5183 20.6423C12.5183 20.6583 12.5183 20.6744 12.5183 20.6904C12.5183 20.7064 12.5183 20.7224 12.5183 20.7384C12.5183 20.7543 12.5183 20.7703 12.5183 20.7862C12.5183 20.8021 12.5183 20.8179 12.5183 20.8338C12.5183 20.8496 12.5183 20.8654 12.5183 20.8812C12.5183 20.897 12.5183 20.9128 12.5183 20.9285C12.5183 20.9442 12.5183 20.9599 12.5183 20.9756C12.5183 20.9913 12.5183 21.0069 12.5183 21.0225C12.5183 21.0381 12.5183 21.0537 12.5183 21.0692C12.5183 21.0848 12.5183 21.1003 12.5183 21.1158C12.5183 21.1313 12.5183 21.1468 12.5183 21.1622C12.5183 21.1776 12.5183 21.193 12.5183 21.2084C12.5183 21.2238 12.5183 21.2391 12.5183 21.2544C12.5183 21.2697 12.5183 21.285 12.5183 21.3003C12.5183 21.3155 12.5183 21.3307 12.5183 21.3459C12.5183 21.3611 12.5183 21.3762 12.5183 21.3914C12.5183 21.4065 12.5183 21.4216 12.5183 21.4367C12.5183 21.4517 12.5183 21.4668 12.5183 21.4818C12.5183 21.4968 12.5183 21.5117 12.5183 21.5267C12.5183 21.5416 12.5183 21.5565 12.5183 21.5714C12.5183 21.5863 12.5183 21.6011 12.5183 21.6159C12.5183 21.6307 12.5183 21.6455 12.5183 21.6603C12.5183 21.675 12.5183 21.6897 12.5183 21.7044C12.5183 21.7191 12.5183 21.7337 12.5183 21.7484C12.5183 21.763 12.5183 21.7776 12.5183 21.7921C12.5183 21.8067 12.5183 21.8212 12.5183 21.8357C12.5183 21.8502 12.5183 21.8646 12.5183 21.8791C12.5183 21.8935 12.5183 21.9079 12.5183 21.9222C12.5183 21.9366 12.5183 21.9509 12.5183 21.9652C12.5183 21.9795 12.5183 21.9938 12.5183 22.008C12.5183 22.0222 12.5183 22.0364 12.5183 22.0506C12.5183 22.0647 12.5183 22.0789 12.5183 22.093C12.5183 22.1071 12.5183 22.1211 12.5183 22.1351C12.5183 22.1492 12.5183 22.1632 12.5183 22.1771C12.5183 22.1911 12.5183 22.205 12.5183 22.2189C12.5183 22.2328 12.5183 22.2466 12.5183 22.2605C12.5183 22.2743 12.5183 22.2881 12.5183 22.3018C12.5183 22.3156 12.5183 22.3293 12.5183 22.343C12.5183 22.3567 12.5183 22.3703 12.5183 22.3839C12.5183 22.3975 12.5183 22.4111 12.5183 22.4247C12.5183 22.4382 12.5183 22.4517 12.5183 22.4652C12.5183 22.4787 12.5183 22.4921 12.5183 22.5055C12.5183 22.5189 12.5183 22.5323 12.5183 22.5456C12.5183 22.5589 12.5183 22.5722 12.5183 22.5855C12.5183 22.5988 12.5183 22.612 12.5183 22.6252C12.5183 22.6384 12.5183 22.6515 12.5183 22.6646C12.5183 22.6778 12.5183 22.6908 12.5183 22.7039C12.5183 22.7169 12.5183 22.73 12.5183 22.7429C12.5183 22.7559 12.5183 22.7688 12.5183 22.7817C12.5183 22.7946 12.5183 22.8075 12.5183 22.8203C12.5183 22.8332 12.5183 22.846 12.5183 22.8587C12.5183 22.8715 12.5183 22.8842 12.5183 22.8969C12.5183 22.9095 12.5183 22.9222 12.5183 22.9348C12.5183 22.9474 12.5183 22.96 12.5183 22.9725C12.5183 22.985 12.5183 22.9975 12.5183 23.01C12.5183 23.0225 12.5183 23.0349 12.5183 23.0473C12.5183 23.0596 12.5183 23.072 12.5183 23.0843C12.5183 23.0966 12.5183 23.1089 12.5183 23.1211C12.5183 23.1333 12.5183 23.1455 12.5183 23.1577C12.5183 23.1698 12.5183 23.1819 12.5183 23.194C12.5183 23.2061 12.5183 23.2181 12.5183 23.2301C12.5183 23.2421 12.5183 23.2541 12.5183 23.266C12.5183 23.278 12.5183 23.2898 12.5183 23.3017C12.5183 23.3135 12.5183 23.3254 12.5183 23.3371C12.5183 23.3489 12.5183 23.3606 12.5183 23.3723C12.5183 23.384 12.5183 23.3957 12.5183 23.4073C12.5183 23.4189 12.5183 23.4305 12.5183 23.442C12.5183 23.4535 12.5183 23.465 12.5183 23.4765C12.5183 23.4879 12.5183 23.4993 12.5183 23.5107C12.5183 23.5221 12.5183 23.5334 12.5183 23.5447C12.5183 23.556 12.5183 23.5673 12.5183 23.5785C12.5183 23.5897 12.5183 23.6009 12.5183 23.612C12.5183 23.6232 12.5183 23.6342 12.5183 23.6453C12.5183 23.6564 12.5183 23.6674 12.5183 23.6783C12.5183 23.6893 12.5183 23.7002 12.5183 23.7111C12.5183 23.722 12.5183 23.7329 12.5183 23.7437C12.5183 23.7545 12.5183 23.7653 12.5183 23.776C12.5183 23.7867 12.5183 23.7974 12.5183 23.8081C12.5183 23.8187 12.5183 23.8293 12.5183 23.8399C12.5183 23.8504 12.5183 23.8609 12.5183 23.8714C12.5183 23.8819 12.5183 23.8923 12.5183 23.9027C12.5183 23.9131 12.5183 23.9235 12.5183 23.9338C12.5183 23.9441 12.5183 23.9544 12.5183 23.9646C12.5183 23.9748 12.5183 23.985 12.5183 23.9952C12.5183 24.0053 12.5183 24.0154 12.5183 24.0255C12.5183 24.0355 12.5183 24.0455 12.5183 24.0555C12.5183 24.0655 12.5183 24.0754 12.5183 24.0853C12.5183 24.0952 12.5183 24.105 12.5183 24.1148C12.5183 24.1246 12.5183 24.1344 12.5183 24.1441C12.5183 24.1538 12.5183 24.1635 12.5183 24.1731C12.5183 24.1827 12.5183 24.1923 12.5183 24.2019C12.5183 24.2114 12.5183 24.2209 12.5183 24.2304C12.5183 24.2398 12.5183 24.2492 12.5183 24.2586C12.5183 24.268 12.5183 24.2773 12.5183 24.2866C12.5183 24.2958 12.5183 24.3051 12.5183 24.3143C12.5183 24.3235 12.5183 24.3326 12.5183 24.3417C12.5183 24.3508 12.5183 24.3599 12.5183 24.3689C12.5183 24.3779 12.5183 24.3869 12.5183 24.3958C12.5183 24.4047 12.5183 24.4136 12.5183 24.4224C12.5183 24.4312 12.5183 24.44 12.5183 24.4488C12.5183 24.4575 12.5183 24.4662 12.5183 24.4749C12.5183 24.4835 12.5183 24.4921 12.5183 24.5007C12.5183 24.5093 12.5183 24.5178 12.5183 24.5263C12.5183 24.5347 12.5183 24.5432 12.5183 24.5515C12.5183 24.5599 12.5183 24.5683 12.5183 24.5765C12.5183 24.5848 12.5183 24.5931 12.5183 24.6013C12.5183 24.6095 12.5183 24.6176 12.5183 24.6257C12.5183 24.6338 12.5183 24.6419 12.5183 24.6499C12.5183 24.6579 12.5183 24.6659 12.5183 24.6738C12.5183 24.6817 12.5183 24.6896 12.5183 24.6974C12.5183 24.7053 12.5183 24.713 12.5183 24.7208C12.5183 24.7285 12.5183 24.7362 12.5183 24.7438C12.5183 24.7515 12.5183 24.7591 12.5183 24.7666C12.5183 24.7741 12.5183 24.7816 12.5183 24.7891C12.5183 24.7965 12.5183 24.8039 12.5183 24.8113C12.5183 24.8187 12.5183 24.826 12.5183 24.8332C12.5183 24.8405 12.5183 24.8477 12.5183 24.8549C12.5183 24.862 12.5183 24.8691 12.5183 24.8762C12.5183 24.8833 12.5183 24.8903 12.5183 24.8973C12.5183 24.9042 12.5183 24.9112 12.5183 24.918C12.5183 24.9249 12.5183 24.9317 12.5183 24.9385C12.5183 24.9453 12.5183 24.952 12.5183 24.9587C12.5183 24.9654 12.5183 24.972 12.5183 24.9786C12.5183 24.9852 12.5183 24.9917 12.5183 24.9982C12.5183 25.0047 12.5183 25.0111 12.5183 25.0175C12.5183 25.0239 12.5183 25.0302 12.5183 25.0365C12.5183 25.0428 12.5183 25.0491 12.5183 25.0552C12.5183 25.0614 12.5183 25.0676 12.5183 25.0737C12.5183 25.0798 12.5183 25.0858 12.5183 25.0918C12.5183 25.0978 12.5183 25.1037 12.5183 25.1096C12.5183 25.1155 12.5183 25.1213 12.5183 25.1271C12.5183 25.1329 12.5183 25.1387 12.5183 25.1444C12.5183 25.15 12.5183 25.1557 12.5183 25.1613C12.5183 25.1669 12.5183 25.1724 12.5183 25.1779C12.5183 25.1834 12.5183 25.1888 12.5183 25.1942C12.5183 25.1996 12.5183 25.2049 12.5183 25.2102C12.5183 25.2155 12.5183 25.2207 12.5183 25.2259C12.5183 25.2311 12.5183 25.2362 12.5183 25.2413C12.5183 25.2464 12.5183 25.2514 12.5183 25.2564C12.5183 25.2613 12.5183 25.2663 12.5183 25.2711C12.5183 25.276 12.5183 25.2808 12.5183 25.2856C12.5183 25.2904 12.5183 25.2951 12.5183 25.2997C12.5183 25.3044 12.5183 25.309 12.5183 25.3136C12.5183 25.3181 12.5183 25.3226 12.5183 25.3271C12.5183 25.3316 12.5183 25.336 12.5183 25.3403C12.5183 25.3447 12.5183 25.349 12.5183 25.3532C12.5183 25.3575 12.5183 25.3616 12.5183 25.3658C12.5183 25.3699 12.5183 25.374 12.5183 25.378C12.5183 25.3821 12.5183 25.3861 12.5183 25.39C12.5183 25.3939 12.5183 25.3978 12.5183 25.4016C12.5183 25.4054 12.5183 25.4092 12.5183 25.4129C12.5183 25.4166 12.5183 25.4203 12.5183 25.4239C12.5183 25.4275 12.5183 25.431 12.5183 25.4345C12.5183 25.438 12.5183 25.4415 12.5183 25.4449C12.5183 25.4483 12.5183 25.4516 12.5183 25.4549C12.5183 25.4582 12.5183 25.4614 12.5183 25.4646C12.5183 25.4677 12.5183 25.4708 12.5183 25.4739C12.5183 25.477 12.5183 25.48 12.5183 25.4829C12.5183 25.4859 12.5183 25.4888 12.5183 25.4916C12.5183 25.4945 12.5183 25.4973 12.5183 25.5L14.5183 25.5Z" fill="black"/>
<path d="M1.02051 13.9991C0.468224 13.9991 0.0205078 13.5514 0.0205078 12.9991C0.0205078 12.4469 0.468224 11.9991 1.02051 11.9991L1.02051 13.9991ZM26.0205 13.9991C26.0178 13.9991 26.015 13.9991 26.0121 13.9991C26.0093 13.9991 26.0064 13.9991 26.0034 13.9991C26.0005 13.9991 25.9975 13.9991 25.9944 13.9991C25.9914 13.9991 25.9882 13.9991 25.9851 13.9991C25.9819 13.9991 25.9787 13.9991 25.9754 13.9991C25.9721 13.9991 25.9688 13.9991 25.9654 13.9991C25.962 13.9991 25.9585 13.9991 25.955 13.9991C25.9515 13.9991 25.948 13.9991 25.9444 13.9991C25.9408 13.9991 25.9371 13.9991 25.9334 13.9991C25.9297 13.9991 25.9259 13.9991 25.9221 13.9991C25.9183 13.9991 25.9144 13.9991 25.9105 13.9991C25.9066 13.9991 25.9026 13.9991 25.8985 13.9991C25.8945 13.9991 25.8904 13.9991 25.8863 13.9991C25.8822 13.9991 25.878 13.9991 25.8737 13.9991C25.8695 13.9991 25.8652 13.9991 25.8608 13.9991C25.8565 13.9991 25.8521 13.9991 25.8476 13.9991C25.8432 13.9991 25.8386 13.9991 25.8341 13.9991C25.8295 13.9991 25.8249 13.9991 25.8203 13.9991C25.8156 13.9991 25.8109 13.9991 25.8061 13.9991C25.8013 13.9991 25.7965 13.9991 25.7916 13.9991C25.7868 13.9991 25.7818 13.9991 25.7769 13.9991C25.7719 13.9991 25.7669 13.9991 25.7618 13.9991C25.7567 13.9991 25.7516 13.9991 25.7464 13.9991C25.7412 13.9991 25.736 13.9991 25.7307 13.9991C25.7254 13.9991 25.7201 13.9991 25.7147 13.9991C25.7093 13.9991 25.7039 13.9991 25.6984 13.9991C25.6929 13.9991 25.6874 13.9991 25.6818 13.9991C25.6762 13.9991 25.6706 13.9991 25.6649 13.9991C25.6592 13.9991 25.6534 13.9991 25.6476 13.9991C25.6419 13.9991 25.636 13.9991 25.6301 13.9991C25.6242 13.9991 25.6183 13.9991 25.6123 13.9991C25.6063 13.9991 25.6003 13.9991 25.5942 13.9991C25.5881 13.9991 25.5819 13.9991 25.5758 13.9991C25.5696 13.9991 25.5633 13.9991 25.557 13.9991C25.5508 13.9991 25.5444 13.9991 25.538 13.9991C25.5316 13.9991 25.5252 13.9991 25.5187 13.9991C25.5122 13.9991 25.5057 13.9991 25.4991 13.9991C25.4925 13.9991 25.4859 13.9991 25.4792 13.9991C25.4725 13.9991 25.4658 13.9991 25.459 13.9991C25.4523 13.9991 25.4454 13.9991 25.4385 13.9991C25.4317 13.9991 25.4247 13.9991 25.4178 13.9991C25.4108 13.9991 25.4038 13.9991 25.3967 13.9991C25.3896 13.9991 25.3825 13.9991 25.3754 13.9991C25.3682 13.9991 25.361 13.9991 25.3537 13.9991C25.3465 13.9991 25.3392 13.9991 25.3318 13.9991C25.3245 13.9991 25.3171 13.9991 25.3096 13.9991C25.3022 13.9991 25.2947 13.9991 25.2871 13.9991C25.2796 13.9991 25.272 13.9991 25.2643 13.9991C25.2567 13.9991 25.249 13.9991 25.2413 13.9991C25.2335 13.9991 25.2258 13.9991 25.2179 13.9991C25.2101 13.9991 25.2022 13.9991 25.1943 13.9991C25.1864 13.9991 25.1784 13.9991 25.1704 13.9991C25.1624 13.9991 25.1543 13.9991 25.1462 13.9991C25.1381 13.9991 25.13 13.9991 25.1218 13.9991C25.1136 13.9991 25.1053 13.9991 25.0971 13.9991C25.0888 13.9991 25.0804 13.9991 25.072 13.9991C25.0637 13.9991 25.0552 13.9991 25.0468 13.9991C25.0383 13.9991 25.0298 13.9991 25.0212 13.9991C25.0126 13.9991 25.004 13.9991 24.9954 13.9991C24.9867 13.9991 24.978 13.9991 24.9693 13.9991C24.9605 13.9991 24.9518 13.9991 24.9429 13.9991C24.9341 13.9991 24.9252 13.9991 24.9163 13.9991C24.9074 13.9991 24.8984 13.9991 24.8894 13.9991C24.8804 13.9991 24.8713 13.9991 24.8622 13.9991C24.8531 13.9991 24.844 13.9991 24.8348 13.9991C24.8256 13.9991 24.8163 13.9991 24.8071 13.9991C24.7978 13.9991 24.7885 13.9991 24.7791 13.9991C24.7697 13.9991 24.7603 13.9991 24.7509 13.9991C24.7414 13.9991 24.7319 13.9991 24.7224 13.9991C24.7128 13.9991 24.7032 13.9991 24.6936 13.9991C24.684 13.9991 24.6743 13.9991 24.6646 13.9991C24.6549 13.9991 24.6451 13.9991 24.6353 13.9991C24.6255 13.9991 24.6157 13.9991 24.6058 13.9991C24.5959 13.9991 24.586 13.9991 24.576 13.9991C24.566 13.9991 24.556 13.9991 24.546 13.9991C24.5359 13.9991 24.5258 13.9991 24.5157 13.9991C24.5055 13.9991 24.4953 13.9991 24.4851 13.9991C24.4749 13.9991 24.4646 13.9991 24.4543 13.9991C24.444 13.9991 24.4336 13.9991 24.4232 13.9991C24.4128 13.9991 24.4024 13.9991 24.3919 13.9991C24.3815 13.9991 24.3709 13.9991 24.3604 13.9991C24.3498 13.9991 24.3392 13.9991 24.3286 13.9991C24.3179 13.9991 24.3072 13.9991 24.2965 13.9991C24.2858 13.9991 24.275 13.9991 24.2642 13.9991C24.2534 13.9991 24.2425 13.9991 24.2316 13.9991C24.2208 13.9991 24.2098 13.9991 24.1988 13.9991C24.1879 13.9991 24.1769 13.9991 24.1658 13.9991C24.1548 13.9991 24.1437 13.9991 24.1325 13.9991C24.1214 13.9991 24.1102 13.9991 24.099 13.9991C24.0878 13.9991 24.0765 13.9991 24.0652 13.9991C24.0539 13.9991 24.0426 13.9991 24.0312 13.9991C24.0199 13.9991 24.0084 13.9991 23.997 13.9991C23.9855 13.9991 23.974 13.9991 23.9625 13.9991C23.951 13.9991 23.9394 13.9991 23.9278 13.9991C23.9162 13.9991 23.9045 13.9991 23.8928 13.9991C23.8811 13.9991 23.8694 13.9991 23.8576 13.9991C23.8459 13.9991 23.8341 13.9991 23.8222 13.9991C23.8104 13.9991 23.7985 13.9991 23.7865 13.9991C23.7746 13.9991 23.7627 13.9991 23.7507 13.9991C23.7387 13.9991 23.7266 13.9991 23.7145 13.9991C23.7025 13.9991 23.6903 13.9991 23.6782 13.9991C23.666 13.9991 23.6538 13.9991 23.6416 13.9991C23.6294 13.9991 23.6171 13.9991 23.6048 13.9991C23.5925 13.9991 23.5801 13.9991 23.5678 13.9991C23.5554 13.9991 23.543 13.9991 23.5305 13.9991C23.518 13.9991 23.5055 13.9991 23.493 13.9991C23.4805 13.9991 23.4679 13.9991 23.4553 13.9991C23.4427 13.9991 23.4301 13.9991 23.4174 13.9991C23.4047 13.9991 23.392 13.9991 23.3792 13.9991C23.3665 13.9991 23.3537 13.9991 23.3408 13.9991C23.328 13.9991 23.3152 13.9991 23.3022 13.9991C23.2893 13.9991 23.2764 13.9991 23.2634 13.9991C23.2505 13.9991 23.2375 13.9991 23.2244 13.9991C23.2114 13.9991 23.1983 13.9991 23.1852 13.9991C23.172 13.9991 23.1589 13.9991 23.1457 13.9991C23.1325 13.9991 23.1193 13.9991 23.106 13.9991C23.0928 13.9991 23.0795 13.9991 23.0661 13.9991C23.0528 13.9991 23.0394 13.9991 23.026 13.9991C23.0126 13.9991 22.9992 13.9991 22.9857 13.9991C22.9722 13.9991 22.9587 13.9991 22.9452 13.9991C22.9316 13.9991 22.918 13.9991 22.9044 13.9991C22.8908 13.9991 22.8772 13.9991 22.8635 13.9991C22.8498 13.9991 22.8361 13.9991 22.8223 13.9991C22.8086 13.9991 22.7948 13.9991 22.781 13.9991C22.7671 13.9991 22.7533 13.9991 22.7394 13.9991C22.7255 13.9991 22.7116 13.9991 22.6976 13.9991C22.6837 13.9991 22.6697 13.9991 22.6557 13.9991C22.6416 13.9991 22.6276 13.9991 22.6135 13.9991C22.5994 13.9991 22.5853 13.9991 22.5711 13.9991C22.5569 13.9991 22.5427 13.9991 22.5285 13.9991C22.5143 13.9991 22.5 13.9991 22.4857 13.9991C22.4714 13.9991 22.4571 13.9991 22.4428 13.9991C22.4284 13.9991 22.414 13.9991 22.3996 13.9991C22.3852 13.9991 22.3707 13.9991 22.3562 13.9991C22.3417 13.9991 22.3272 13.9991 22.3126 13.9991C22.2981 13.9991 22.2835 13.9991 22.2689 13.9991C22.2543 13.9991 22.2396 13.9991 22.2249 13.9991C22.2102 13.9991 22.1955 13.9991 22.1808 13.9991C22.166 13.9991 22.1512 13.9991 22.1364 13.9991C22.1216 13.9991 22.1068 13.9991 22.0919 13.9991C22.077 13.9991 22.0621 13.9991 22.0472 13.9991C22.0322 13.9991 22.0173 13.9991 22.0023 13.9991C21.9873 13.9991 21.9722 13.9991 21.9572 13.9991C21.9421 13.9991 21.927 13.9991 21.9119 13.9991C21.8968 13.9991 21.8816 13.9991 21.8664 13.9991C21.8512 13.9991 21.836 13.9991 21.8208 13.9991C21.8055 13.9991 21.7902 13.9991 21.7749 13.9991C21.7596 13.9991 21.7443 13.9991 21.7289 13.9991C21.7135 13.9991 21.6981 13.9991 21.6827 13.9991C21.6673 13.9991 21.6518 13.9991 21.6363 13.9991C21.6208 13.9991 21.6053 13.9991 21.5898 13.9991C21.5742 13.9991 21.5586 13.9991 21.543 13.9991C21.5274 13.9991 21.5118 13.9991 21.4961 13.9991C21.4804 13.9991 21.4647 13.9991 21.449 13.9991C21.4333 13.9991 21.4175 13.9991 21.4017 13.9991C21.3859 13.9991 21.3701 13.9991 21.3543 13.9991C21.3384 13.9991 21.3226 13.9991 21.3067 13.9991C21.2908 13.9991 21.2748 13.9991 21.2589 13.9991C21.2429 13.9991 21.2269 13.9991 21.2109 13.9991C21.1949 13.9991 21.1789 13.9991 21.1628 13.9991C21.1467 13.9991 21.1306 13.9991 21.1145 13.9991C21.0984 13.9991 21.0822 13.9991 21.066 13.9991C21.0498 13.9991 21.0336 13.9991 21.0174 13.9991C21.0011 13.9991 20.9849 13.9991 20.9686 13.9991C20.9523 13.9991 20.9359 13.9991 20.9196 13.9991C20.9032 13.9991 20.8869 13.9991 20.8705 13.9991C20.8541 13.9991 20.8376 13.9991 20.8212 13.9991C20.8047 13.9991 20.7882 13.9991 20.7717 13.9991C20.7552 13.9991 20.7387 13.9991 20.7221 13.9991C20.7055 13.9991 20.6889 13.9991 20.6723 13.9991C20.6557 13.9991 20.639 13.9991 20.6224 13.9991C20.6057 13.9991 20.589 13.9991 20.5723 13.9991C20.5555 13.9991 20.5388 13.9991 20.522 13.9991C20.5052 13.9991 20.4884 13.9991 20.4716 13.9991C20.4548 13.9991 20.4379 13.9991 20.421 13.9991C20.4041 13.9991 20.3872 13.9991 20.3703 13.9991C20.3534 13.9991 20.3364 13.9991 20.3194 13.9991C20.3024 13.9991 20.2854 13.9991 20.2684 13.9991C20.2514 13.9991 20.2343 13.9991 20.2172 13.9991C20.2001 13.9991 20.183 13.9991 20.1659 13.9991C20.1488 13.9991 20.1316 13.9991 20.1144 13.9991C20.0972 13.9991 20.08 13.9991 20.0628 13.9991C20.0455 13.9991 20.0283 13.9991 20.011 13.9991C19.9937 13.9991 19.9764 13.9991 19.9591 13.9991C19.9418 13.9991 19.9244 13.9991 19.907 13.9991C19.8896 13.9991 19.8722 13.9991 19.8548 13.9991C19.8374 13.9991 19.8199 13.9991 19.8025 13.9991C19.785 13.9991 19.7675 13.9991 19.75 13.9991C19.7324 13.9991 19.7149 13.9991 19.6973 13.9991C19.6798 13.9991 19.6622 13.9991 19.6445 13.9991C19.6269 13.9991 19.6093 13.9991 19.5916 13.9991C19.574 13.9991 19.5563 13.9991 19.5386 13.9991C19.5209 13.9991 19.5031 13.9991 19.4854 13.9991C19.4676 13.9991 19.4499 13.9991 19.4321 13.9991C19.4143 13.9991 19.3964 13.9991 19.3786 13.9991C19.3607 13.9991 19.3429 13.9991 19.325 13.9991C19.3071 13.9991 19.2892 13.9991 19.2713 13.9991C19.2533 13.9991 19.2354 13.9991 19.2174 13.9991C19.1994 13.9991 19.1814 13.9991 19.1634 13.9991C19.1454 13.9991 19.1273 13.9991 19.1093 13.9991C19.0912 13.9991 19.0731 13.9991 19.055 13.9991C19.0369 13.9991 19.0188 13.9991 19.0006 13.9991C18.9825 13.9991 18.9643 13.9991 18.9461 13.9991C18.9279 13.9991 18.9097 13.9991 18.8915 13.9991C18.8733 13.9991 18.855 13.9991 18.8367 13.9991C18.8185 13.9991 18.8002 13.9991 18.7819 13.9991C18.7635 13.9991 18.7452 13.9991 18.7269 13.9991C18.7085 13.9991 18.6901 13.9991 18.6717 13.9991C18.6533 13.9991 18.6349 13.9991 18.6165 13.9991C18.598 13.9991 18.5796 13.9991 18.5611 13.9991C18.5426 13.9991 18.5241 13.9991 18.5056 13.9991C18.4871 13.9991 18.4686 13.9991 18.45 13.9991C18.4315 13.9991 18.4129 13.9991 18.3943 13.9991C18.3757 13.9991 18.3571 13.9991 18.3384 13.9991C18.3198 13.9991 18.3012 13.9991 18.2825 13.9991C18.2638 13.9991 18.2451 13.9991 18.2264 13.9991C18.2077 13.9991 18.189 13.9991 18.1702 13.9991C18.1515 13.9991 18.1327 13.9991 18.1139 13.9991C18.0952 13.9991 18.0764 13.9991 18.0575 13.9991C18.0387 13.9991 18.0199 13.9991 18.001 13.9991C17.9822 13.9991 17.9633 13.9991 17.9444 13.9991C17.9255 13.9991 17.9066 13.9991 17.8877 13.9991C17.8687 13.9991 17.8498 13.9991 17.8308 13.9991C17.8119 13.9991 17.7929 13.9991 17.7739 13.9991C17.7549 13.9991 17.7359 13.9991 17.7168 13.9991C17.6978 13.9991 17.6788 13.9991 17.6597 13.9991C17.6406 13.9991 17.6215 13.9991 17.6024 13.9991C17.5833 13.9991 17.5642 13.9991 17.5451 13.9991C17.5259 13.9991 17.5068 13.9991 17.4876 13.9991C17.4684 13.9991 17.4493 13.9991 17.4301 13.9991C17.4109 13.9991 17.3916 13.9991 17.3724 13.9991C17.3532 13.9991 17.3339 13.9991 17.3146 13.9991C17.2954 13.9991 17.2761 13.9991 17.2568 13.9991C17.2375 13.9991 17.2182 13.9991 17.1988 13.9991C17.1795 13.9991 17.1602 13.9991 17.1408 13.9991C17.1214 13.9991 17.1021 13.9991 17.0827 13.9991C17.0633 13.9991 17.0439 13.9991 17.0244 13.9991C17.005 13.9991 16.9856 13.9991 16.9661 13.9991C16.9466 13.9991 16.9272 13.9991 16.9077 13.9991C16.8882 13.9991 16.8687 13.9991 16.8492 13.9991C16.8297 13.9991 16.8101 13.9991 16.7906 13.9991C16.7711 13.9991 16.7515 13.9991 16.7319 13.9991C16.7123 13.9991 16.6928 13.9991 16.6732 13.9991C16.6536 13.9991 16.6339 13.9991 16.6143 13.9991C16.5947 13.9991 16.575 13.9991 16.5554 13.9991C16.5357 13.9991 16.516 13.9991 16.4963 13.9991C16.4767 13.9991 16.457 13.9991 16.4372 13.9991C16.4175 13.9991 16.3978 13.9991 16.3781 13.9991C16.3583 13.9991 16.3386 13.9991 16.3188 13.9991C16.299 13.9991 16.2792 13.9991 16.2594 13.9991C16.2397 13.9991 16.2198 13.9991 16.2 13.9991C16.1802 13.9991 16.1604 13.9991 16.1405 13.9991C16.1207 13.9991 16.1008 13.9991 16.0809 13.9991C16.0611 13.9991 16.0412 13.9991 16.0213 13.9991C16.0014 13.9991 15.9815 13.9991 15.9616 13.9991C15.9416 13.9991 15.9217 13.9991 15.9018 13.9991C15.8818 13.9991 15.8619 13.9991 15.8419 13.9991C15.8219 13.9991 15.8019 13.9991 15.7819 13.9991C15.7619 13.9991 15.7419 13.9991 15.7219 13.9991C15.7019 13.9991 15.6819 13.9991 15.6618 13.9991C15.6418 13.9991 15.6217 13.9991 15.6017 13.9991C15.5816 13.9991 15.5615 13.9991 15.5415 13.9991C15.5214 13.9991 15.5013 13.9991 15.4812 13.9991C15.4611 13.9991 15.4409 13.9991 15.4208 13.9991C15.4007 13.9991 15.3805 13.9991 15.3604 13.9991C15.3402 13.9991 15.3201 13.9991 15.2999 13.9991C15.2797 13.9991 15.2596 13.9991 15.2394 13.9991C15.2192 13.9991 15.199 13.9991 15.1787 13.9991C15.1585 13.9991 15.1383 13.9991 15.1181 13.9991C15.0978 13.9991 15.0776 13.9991 15.0574 13.9991C15.0371 13.9991 15.0168 13.9991 14.9966 13.9991C14.9763 13.9991 14.956 13.9991 14.9357 13.9991C14.9154 13.9991 14.8951 13.9991 14.8748 13.9991C14.8545 13.9991 14.8342 13.9991 14.8139 13.9991C14.7935 13.9991 14.7732 13.9991 14.7529 13.9991C14.7325 13.9991 14.7122 13.9991 14.6918 13.9991C14.6714 13.9991 14.6511 13.9991 14.6307 13.9991C14.6103 13.9991 14.5899 13.9991 14.5695 13.9991C14.5491 13.9991 14.5287 13.9991 14.5083 13.9991C14.4879 13.9991 14.4674 13.9991 14.447 13.9991C14.4266 13.9991 14.4061 13.9991 14.3857 13.9991C14.3653 13.9991 14.3448 13.9991 14.3243 13.9991C14.3039 13.9991 14.2834 13.9991 14.2629 13.9991C14.2424 13.9991 14.222 13.9991 14.2015 13.9991C14.181 13.9991 14.1605 13.9991 14.14 13.9991C14.1195 13.9991 14.0989 13.9991 14.0784 13.9991C14.0579 13.9991 14.0374 13.9991 14.0168 13.9991C13.9963 13.9991 13.9758 13.9991 13.9552 13.9991C13.9347 13.9991 13.9141 13.9991 13.8935 13.9991C13.873 13.9991 13.8524 13.9991 13.8318 13.9991C13.8113 13.9991 13.7907 13.9991 13.7701 13.9991C13.7495 13.9991 13.7289 13.9991 13.7083 13.9991C13.6877 13.9991 13.6671 13.9991 13.6465 13.9991C13.6259 13.9991 13.6053 13.9991 13.5846 13.9991C13.564 13.9991 13.5434 13.9991 13.5227 13.9991C13.5021 13.9991 13.4815 13.9991 13.4608 13.9991C13.4402 13.9991 13.4195 13.9991 13.3989 13.9991C13.3782 13.9991 13.3575 13.9991 13.3369 13.9991C13.3162 13.9991 13.2955 13.9991 13.2749 13.9991C13.2542 13.9991 13.2335 13.9991 13.2128 13.9991C13.1921 13.9991 13.1714 13.9991 13.1507 13.9991C13.13 13.9991 13.1093 13.9991 13.0886 13.9991C13.0679 13.9991 13.0472 13.9991 13.0265 13.9991C13.0058 13.9991 12.9851 13.9991 12.9644 13.9991C12.9436 13.9991 12.9229 13.9991 12.9022 13.9991C12.8814 13.9991 12.8607 13.9991 12.84 13.9991C12.8192 13.9991 12.7985 13.9991 12.7778 13.9991C12.757 13.9991 12.7363 13.9991 12.7155 13.9991C12.6948 13.9991 12.674 13.9991 12.6532 13.9991C12.6325 13.9991 12.6117 13.9991 12.591 13.9991C12.5702 13.9991 12.5494 13.9991 12.5287 13.9991C12.5079 13.9991 12.4871 13.9991 12.4663 13.9991C12.4456 13.9991 12.4248 13.9991 12.404 13.9991C12.3832 13.9991 12.3624 13.9991 12.3417 13.9991C12.3209 13.9991 12.3001 13.9991 12.2793 13.9991C12.2585 13.9991 12.2377 13.9991 12.2169 13.9991C12.1961 13.9991 12.1753 13.9991 12.1545 13.9991C12.1337 13.9991 12.1129 13.9991 12.0921 13.9991C12.0713 13.9991 12.0505 13.9991 12.0297 13.9991C12.0089 13.9991 11.9881 13.9991 11.9673 13.9991C11.9465 13.9991 11.9257 13.9991 11.9049 13.9991C11.884 13.9991 11.8632 13.9991 11.8424 13.9991C11.8216 13.9991 11.8008 13.9991 11.78 13.9991C11.7592 13.9991 11.7383 13.9991 11.7175 13.9991C11.6967 13.9991 11.6759 13.9991 11.6551 13.9991C11.6343 13.9991 11.6134 13.9991 11.5926 13.9991C11.5718 13.9991 11.551 13.9991 11.5302 13.9991C11.5093 13.9991 11.4885 13.9991 11.4677 13.9991C11.4469 13.9991 11.4261 13.9991 11.4053 13.9991C11.3844 13.9991 11.3636 13.9991 11.3428 13.9991C11.322 13.9991 11.3012 13.9991 11.2803 13.9991C11.2595 13.9991 11.2387 13.9991 11.2179 13.9991C11.1971 13.9991 11.1763 13.9991 11.1554 13.9991C11.1346 13.9991 11.1138 13.9991 11.093 13.9991C11.0722 13.9991 11.0514 13.9991 11.0306 13.9991C11.0097 13.9991 10.9889 13.9991 10.9681 13.9991C10.9473 13.9991 10.9265 13.9991 10.9057 13.9991C10.8849 13.9991 10.8641 13.9991 10.8433 13.9991C10.8225 13.9991 10.8017 13.9991 10.7809 13.9991C10.7601 13.9991 10.7393 13.9991 10.7185 13.9991C10.6977 13.9991 10.6769 13.9991 10.6561 13.9991C10.6353 13.9991 10.6145 13.9991 10.5937 13.9991C10.573 13.9991 10.5522 13.9991 10.5314 13.9991C10.5106 13.9991 10.4898 13.9991 10.4691 13.9991C10.4483 13.9991 10.4275 13.9991 10.4067 13.9991C10.386 13.9991 10.3652 13.9991 10.3444 13.9991C10.3237 13.9991 10.3029 13.9991 10.2821 13.9991C10.2614 13.9991 10.2406 13.9991 10.2199 13.9991C10.1991 13.9991 10.1784 13.9991 10.1576 13.9991C10.1369 13.9991 10.1161 13.9991 10.0954 13.9991C10.0747 13.9991 10.0539 13.9991 10.0332 13.9991C10.0125 13.9991 9.99173 13.9991 9.97101 13.9991C9.95029 13.9991 9.92957 13.9991 9.90885 13.9991C9.88814 13.9991 9.86742 13.9991 9.84672 13.9991C9.82601 13.9991 9.80531 13.9991 9.78461 13.9991C9.76391 13.9991 9.74322 13.9991 9.72253 13.9991C9.70184 13.9991 9.68116 13.9991 9.66048 13.9991C9.6398 13.9991 9.61913 13.9991 9.59846 13.9991C9.57779 13.9991 9.55713 13.9991 9.53647 13.9991C9.51581 13.9991 9.49515 13.9991 9.47451 13.9991C9.45386 13.9991 9.43321 13.9991 9.41258 13.9991C9.39194 13.9991 9.37131 13.9991 9.35068 13.9991C9.33006 13.9991 9.30943 13.9991 9.28882 13.9991C9.26821 13.9991 9.2476 13.9991 9.22699 13.9991C9.20639 13.9991 9.18579 13.9991 9.1652 13.9991C9.14461 13.9991 9.12403 13.9991 9.10345 13.9991C9.08287 13.9991 9.0623 13.9991 9.04174 13.9991C9.02117 13.9991 9.00061 13.9991 8.98006 13.9991C8.95951 13.9991 8.93896 13.9991 8.91843 13.9991C8.89789 13.9991 8.87736 13.9991 8.85683 13.9991C8.83631 13.9991 8.81579 13.9991 8.79528 13.9991C8.77477 13.9991 8.75427 13.9991 8.73377 13.9991C8.71328 13.9991 8.69279 13.9991 8.67231 13.9991C8.65183 13.9991 8.63136 13.9991 8.61089 13.9991C8.59043 13.9991 8.56997 13.9991 8.54952 13.9991C8.52907 13.9991 8.50863 13.9991 8.48819 13.9991C8.46776 13.9991 8.44733 13.9991 8.42692 13.9991C8.4065 13.9991 8.38609 13.9991 8.36569 13.9991C8.34529 13.9991 8.32489 13.9991 8.30451 13.9991C8.28413 13.9991 8.26375 13.9991 8.24339 13.9991C8.22302 13.9991 8.20266 13.9991 8.18231 13.9991C8.16196 13.9991 8.14162 13.9991 8.12129 13.9991C8.10096 13.9991 8.08064 13.9991 8.06032 13.9991C8.04001 13.9991 8.01971 13.9991 7.99941 13.9991C7.97912 13.9991 7.95884 13.9991 7.93856 13.9991C7.91829 13.9991 7.89802 13.9991 7.87776 13.9991C7.85751 13.9991 7.83726 13.9991 7.81702 13.9991C7.79679 13.9991 7.77656 13.9991 7.75635 13.9991C7.73613 13.9991 7.71592 13.9991 7.69573 13.9991C7.67553 13.9991 7.65534 13.9991 7.63517 13.9991C7.61499 13.9991 7.59483 13.9991 7.57467 13.9991C7.55452 13.9991 7.53438 13.9991 7.51424 13.9991C7.49411 13.9991 7.47399 13.9991 7.45388 13.9991C7.43377 13.9991 7.41366 13.9991 7.39357 13.9991C7.37349 13.9991 7.35341 13.9991 7.33334 13.9991C7.31327 13.9991 7.29322 13.9991 7.27317 13.9991C7.25313 13.9991 7.23309 13.9991 7.21307 13.9991C7.19305 13.9991 7.17304 13.9991 7.15304 13.9991C7.13305 13.9991 7.11306 13.9991 7.09308 13.9991C7.07311 13.9991 7.05315 13.9991 7.0332 13.9991C7.01324 13.9991 6.99331 13.9991 6.97338 13.9991C6.95345 13.9991 6.93354 13.9991 6.91364 13.9991C6.89374 13.9991 6.87385 13.9991 6.85397 13.9991C6.8341 13.9991 6.81423 13.9991 6.79438 13.9991C6.77453 13.9991 6.75469 13.9991 6.73486 13.9991C6.71504 13.9991 6.69523 13.9991 6.67543 13.9991C6.65563 13.9991 6.63584 13.9991 6.61607 13.9991C6.59629 13.9991 6.57653 13.9991 6.55679 13.9991C6.53704 13.9991 6.51731 13.9991 6.49759 13.9991C6.47787 13.9991 6.45816 13.9991 6.43847 13.9991C6.41878 13.9991 6.3991 13.9991 6.37944 13.9991C6.35977 13.9991 6.34012 13.9991 6.32048 13.9991C6.30085 13.9991 6.28123 13.9991 6.26162 13.9991C6.24201 13.9991 6.22242 13.9991 6.20284 13.9991C6.18326 13.9991 6.16369 13.9991 6.14414 13.9991C6.12459 13.9991 6.10505 13.9991 6.08554 13.9991C6.06601 13.9991 6.04651 13.9991 6.02702 13.9991C6.00752 13.9991 5.98805 13.9991 5.96859 13.9991C5.94913 13.9991 5.92968 13.9991 5.91025 13.9991C5.89082 13.9991 5.8714 13.9991 5.852 13.9991C5.8326 13.9991 5.81322 13.9991 5.79385 13.9991C5.77448 13.9991 5.75513 13.9991 5.73579 13.9991C5.71645 13.9991 5.69713 13.9991 5.67782 13.9991C5.65852 13.9991 5.63923 13.9991 5.61995 13.9991C5.60068 13.9991 5.58142 13.9991 5.56218 13.9991C5.54294 13.9991 5.52371 13.9991 5.50451 13.9991C5.4853 13.9991 5.4661 13.9991 5.44693 13.9991C5.42775 13.9991 5.40859 13.9991 5.38945 13.9991C5.37031 13.9991 5.35118 13.9991 5.33208 13.9991C5.31297 13.9991 5.29387 13.9991 5.2748 13.9991C5.25573 13.9991 5.23667 13.9991 5.21763 13.9991C5.19859 13.9991 5.17957 13.9991 5.16056 13.9991C5.14156 13.9991 5.12257 13.9991 5.1036 13.9991C5.08463 13.9991 5.06567 13.9991 5.04674 13.9991C5.02781 13.9991 5.00889 13.9991 4.98999 13.9991C4.97109 13.9991 4.95221 13.9991 4.93335 13.9991C4.91448 13.9991 4.89564 13.9991 4.87681 13.9991C4.85798 13.9991 4.83918 13.9991 4.82039 13.9991C4.8016 13.9991 4.78283 13.9991 4.76407 13.9991C4.74532 13.9991 4.72659 13.9991 4.70787 13.9991C4.68916 13.9991 4.67046 13.9991 4.65178 13.9991C4.6331 13.9991 4.61445 13.9991 4.59581 13.9991C4.57717 13.9991 4.55855 13.9991 4.53995 13.9991C4.52135 13.9991 4.50276 13.9991 4.4842 13.9991C4.46564 13.9991 4.4471 13.9991 4.42857 13.9991C4.41005 13.9991 4.39155 13.9991 4.37306 13.9991C4.35458 13.9991 4.33612 13.9991 4.31767 13.9991C4.29923 13.9991 4.28081 13.9991 4.2624 13.9991C4.244 13.9991 4.22561 13.9991 4.20725 13.9991C4.18889 13.9991 4.17055 13.9991 4.15222 13.9991C4.1339 13.9991 4.1156 13.9991 4.09732 13.9991C4.07904 13.9991 4.06078 13.9991 4.04254 13.9991C4.0243 13.9991 4.00608 13.9991 3.98788 13.9991C3.96968 13.9991 3.95151 13.9991 3.93335 13.9991C3.91519 13.9991 3.89706 13.9991 3.87895 13.9991C3.86083 13.9991 3.84274 13.9991 3.82467 13.9991C3.8066 13.9991 3.78855 13.9991 3.77052 13.9991C3.75249 13.9991 3.73449 13.9991 3.71651 13.9991C3.69852 13.9991 3.68056 13.9991 3.66262 13.9991C3.64468 13.9991 3.62676 13.9991 3.60887 13.9991C3.59097 13.9991 3.5731 13.9991 3.55524 13.9991C3.53739 13.9991 3.51956 13.9991 3.50176 13.9991C3.48395 13.9991 3.46617 13.9991 3.4484 13.9991C3.43064 13.9991 3.4129 13.9991 3.39519 13.9991C3.37747 13.9991 3.35978 13.9991 3.34211 13.9991C3.32444 13.9991 3.30679 13.9991 3.28917 13.9991C3.27155 13.9991 3.25394 13.9991 3.23637 13.9991C3.21879 13.9991 3.20123 13.9991 3.1837 13.9991C3.16617 13.9991 3.14867 13.9991 3.13118 13.9991C3.1137 13.9991 3.09624 13.9991 3.0788 13.9991C3.06137 13.9991 3.04396 13.9991 3.02657 13.9991C3.00918 13.9991 2.99182 13.9991 2.97448 13.9991C2.95714 13.9991 2.93982 13.9991 2.92253 13.9991C2.90524 13.9991 2.88797 13.9991 2.87073 13.9991C2.85349 13.9991 2.83627 13.9991 2.81908 13.9991C2.80188 13.9991 2.78471 13.9991 2.76757 13.9991C2.75043 13.9991 2.73331 13.9991 2.71621 13.9991C2.69912 13.9991 2.68205 13.9991 2.66501 13.9991C2.64796 13.9991 2.63095 13.9991 2.61395 13.9991C2.59696 13.9991 2.57999 13.9991 2.56305 13.9991C2.54611 13.9991 2.52919 13.9991 2.5123 13.9991C2.49541 13.9991 2.47854 13.9991 2.4617 13.9991C2.44486 13.9991 2.42805 13.9991 2.41126 13.9991C2.39448 13.9991 2.37771 13.9991 2.36098 13.9991C2.34424 13.9991 2.32753 13.9991 2.31085 13.9991C2.29417 13.9991 2.27751 13.9991 2.26088 13.9991C2.24425 13.9991 2.22765 13.9991 2.21107 13.9991C2.1945 13.9991 2.17795 13.9991 2.16142 13.9991C2.1449 13.9991 2.1284 13.9991 2.11193 13.9991C2.09546 13.9991 2.07902 13.9991 2.06261 13.9991C2.04619 13.9991 2.0298 13.9991 2.01344 13.9991C1.99708 13.9991 1.98075 13.9991 1.96445 13.9991C1.94814 13.9991 1.93186 13.9991 1.91561 13.9991C1.89936 13.9991 1.88314 13.9991 1.86695 13.9991C1.85075 13.9991 1.83458 13.9991 1.81845 13.9991C1.80231 13.9991 1.7862 13.9991 1.77011 13.9991C1.75403 13.9991 1.73798 13.9991 1.72195 13.9991C1.70593 13.9991 1.68993 13.9991 1.67396 13.9991C1.65799 13.9991 1.64205 13.9991 1.62614 13.9991C1.61023 13.9991 1.59434 13.9991 1.57849 13.9991C1.56263 13.9991 1.54681 13.9991 1.53101 13.9991C1.51522 13.9991 1.49945 13.9991 1.48371 13.9991C1.46797 13.9991 1.45226 13.9991 1.43658 13.9991C1.42091 13.9991 1.40526 13.9991 1.38964 13.9991C1.37402 13.9991 1.35843 13.9991 1.34286 13.9991C1.3273 13.9991 1.31177 13.9991 1.29627 13.9991C1.28077 13.9991 1.2653 13.9991 1.24986 13.9991C1.23441 13.9991 1.219 13.9991 1.20362 13.9991C1.18824 13.9991 1.17289 13.9991 1.15757 13.9991C1.14225 13.9991 1.12696 13.9991 1.1117 13.9991C1.09644 13.9991 1.08121 13.9991 1.06601 13.9991C1.05081 13.9991 1.03564 13.9991 1.02051 13.9991L1.02051 11.9991C1.03564 11.9991 1.05081 11.9991 1.06601 11.9991C1.08121 11.9991 1.09644 11.9991 1.1117 11.9991C1.12696 11.9991 1.14225 11.9991 1.15757 11.9991C1.17289 11.9991 1.18824 11.9991 1.20362 11.9991C1.219 11.9991 1.23441 11.9991 1.24985 11.9991C1.2653 11.9991 1.28077 11.9991 1.29627 11.9991C1.31177 11.9991 1.3273 11.9991 1.34286 11.9991C1.35843 11.9991 1.37402 11.9991 1.38964 11.9991C1.40526 11.9991 1.42091 11.9991 1.43658 11.9991C1.45226 11.9991 1.46797 11.9991 1.48371 11.9991C1.49945 11.9991 1.51522 11.9991 1.53101 11.9991C1.54681 11.9991 1.56263 11.9991 1.57849 11.9991C1.59434 11.9991 1.61023 11.9991 1.62614 11.9991C1.64205 11.9991 1.65799 11.9991 1.67396 11.9991C1.68993 11.9991 1.70592 11.9991 1.72195 11.9991C1.73798 11.9991 1.75403 11.9991 1.77011 11.9991C1.7862 11.9991 1.80231 11.9991 1.81845 11.9991C1.83458 11.9991 1.85075 11.9991 1.86695 11.9991C1.88314 11.9991 1.89936 11.9991 1.91561 11.9991C1.93186 11.9991 1.94814 11.9991 1.96445 11.9991C1.98075 11.9991 1.99708 11.9991 2.01344 11.9991C2.0298 11.9991 2.04619 11.9991 2.06261 11.9991C2.07902 11.9991 2.09546 11.9991 2.11193 11.9991C2.1284 11.9991 2.1449 11.9991 2.16142 11.9991C2.17795 11.9991 2.1945 11.9991 2.21107 11.9991C2.22765 11.9991 2.24425 11.9991 2.26088 11.9991C2.27751 11.9991 2.29417 11.9991 2.31085 11.9991C2.32753 11.9991 2.34424 11.9991 2.36098 11.9991C2.37771 11.9991 2.39448 11.9991 2.41126 11.9991C2.42805 11.9991 2.44486 11.9991 2.4617 11.9991C2.47854 11.9991 2.49541 11.9991 2.5123 11.9991C2.52919 11.9991 2.54611 11.9991 2.56305 11.9991C2.57999 11.9991 2.59696 11.9991 2.61395 11.9991C2.63095 11.9991 2.64796 11.9991 2.66501 11.9991C2.68205 11.9991 2.69912 11.9991 2.71621 11.9991C2.73331 11.9991 2.75043 11.9991 2.76757 11.9991C2.78471 11.9991 2.80188 11.9991 2.81908 11.9991C2.83627 11.9991 2.85349 11.9991 2.87073 11.9991C2.88797 11.9991 2.90524 11.9991 2.92253 11.9991C2.93982 11.9991 2.95714 11.9991 2.97448 11.9991C2.99182 11.9991 3.00918 11.9991 3.02657 11.9991C3.04396 11.9991 3.06137 11.9991 3.0788 11.9991C3.09624 11.9991 3.1137 11.9991 3.13118 11.9991C3.14867 11.9991 3.16617 11.9991 3.1837 11.9991C3.20123 11.9991 3.21879 11.9991 3.23637 11.9991C3.25394 11.9991 3.27155 11.9991 3.28917 11.9991C3.30679 11.9991 3.32444 11.9991 3.34211 11.9991C3.35978 11.9991 3.37747 11.9991 3.39519 11.9991C3.4129 11.9991 3.43064 11.9991 3.4484 11.9991C3.46617 11.9991 3.48395 11.9991 3.50176 11.9991C3.51956 11.9991 3.53739 11.9991 3.55524 11.9991C3.5731 11.9991 3.59097 11.9991 3.60887 11.9991C3.62676 11.9991 3.64468 11.9991 3.66262 11.9991C3.68056 11.9991 3.69852 11.9991 3.71651 11.9991C3.73449 11.9991 3.75249 11.9991 3.77052 11.9991C3.78855 11.9991 3.8066 11.9991 3.82467 11.9991C3.84274 11.9991 3.86083 11.9991 3.87895 11.9991C3.89706 11.9991 3.91519 11.9991 3.93335 11.9991C3.95151 11.9991 3.96968 11.9991 3.98788 11.9991C4.00608 11.9991 4.0243 11.9991 4.04254 11.9991C4.06078 11.9991 4.07904 11.9991 4.09732 11.9991C4.1156 11.9991 4.1339 11.9991 4.15222 11.9991C4.17055 11.9991 4.18889 11.9991 4.20725 11.9991C4.22561 11.9991 4.244 11.9991 4.2624 11.9991C4.28081 11.9991 4.29923 11.9991 4.31767 11.9991C4.33612 11.9991 4.35458 11.9991 4.37306 11.9991C4.39155 11.9991 4.41005 11.9991 4.42857 11.9991C4.4471 11.9991 4.46564 11.9991 4.4842 11.9991C4.50276 11.9991 4.52135 11.9991 4.53995 11.9991C4.55855 11.9991 4.57717 11.9991 4.59581 11.9991C4.61445 11.9991 4.6331 11.9991 4.65178 11.9991C4.67046 11.9991 4.68916 11.9991 4.70787 11.9991C4.72659 11.9991 4.74532 11.9991 4.76407 11.9991C4.78283 11.9991 4.8016 11.9991 4.82039 11.9991C4.83918 11.9991 4.85798 11.9991 4.87681 11.9991C4.89564 11.9991 4.91448 11.9991 4.93335 11.9991C4.95221 11.9991 4.97109 11.9991 4.98999 11.9991C5.00889 11.9991 5.02781 11.9991 5.04674 11.9991C5.06567 11.9991 5.08463 11.9991 5.1036 11.9991C5.12257 11.9991 5.14156 11.9991 5.16056 11.9991C5.17957 11.9991 5.19859 11.9991 5.21763 11.9991C5.23667 11.9991 5.25573 11.9991 5.2748 11.9991C5.29387 11.9991 5.31297 11.9991 5.33208 11.9991C5.35118 11.9991 5.37031 11.9991 5.38945 11.9991C5.40859 11.9991 5.42775 11.9991 5.44693 11.9991C5.4661 11.9991 5.4853 11.9991 5.50451 11.9991C5.52371 11.9991 5.54294 11.9991 5.56218 11.9991C5.58142 11.9991 5.60068 11.9991 5.61995 11.9991C5.63923 11.9991 5.65852 11.9991 5.67782 11.9991C5.69713 11.9991 5.71645 11.9991 5.73579 11.9991C5.75513 11.9991 5.77448 11.9991 5.79385 11.9991C5.81322 11.9991 5.8326 11.9991 5.852 11.9991C5.8714 11.9991 5.89082 11.9991 5.91025 11.9991C5.92968 11.9991 5.94913 11.9991 5.96859 11.9991C5.98805 11.9991 6.00752 11.9991 6.02702 11.9991C6.04651 11.9991 6.06601 11.9991 6.08554 11.9991C6.10505 11.9991 6.12459 11.9991 6.14414 11.9991C6.16369 11.9991 6.18326 11.9991 6.20284 11.9991C6.22242 11.9991 6.24201 11.9991 6.26162 11.9991C6.28123 11.9991 6.30085 11.9991 6.32048 11.9991C6.34012 11.9991 6.35977 11.9991 6.37944 11.9991C6.3991 11.9991 6.41878 11.9991 6.43847 11.9991C6.45816 11.9991 6.47787 11.9991 6.49759 11.9991C6.51731 11.9991 6.53704 11.9991 6.55679 11.9991C6.57653 11.9991 6.59629 11.9991 6.61607 11.9991C6.63584 11.9991 6.65563 11.9991 6.67543 11.9991C6.69523 11.9991 6.71504 11.9991 6.73486 11.9991C6.75469 11.9991 6.77453 11.9991 6.79438 11.9991C6.81423 11.9991 6.83409 11.9991 6.85397 11.9991C6.87385 11.9991 6.89374 11.9991 6.91364 11.9991C6.93354 11.9991 6.95345 11.9991 6.97338 11.9991C6.99331 11.9991 7.01324 11.9991 7.0332 11.9991C7.05315 11.9991 7.07311 11.9991 7.09308 11.9991C7.11306 11.9991 7.13305 11.9991 7.15304 11.9991C7.17304 11.9991 7.19305 11.9991 7.21307 11.9991C7.23309 11.9991 7.25313 11.9991 7.27317 11.9991C7.29322 11.9991 7.31327 11.9991 7.33334 11.9991C7.35341 11.9991 7.37349 11.9991 7.39357 11.9991C7.41366 11.9991 7.43377 11.9991 7.45388 11.9991C7.47399 11.9991 7.49411 11.9991 7.51424 11.9991C7.53438 11.9991 7.55452 11.9991 7.57467 11.9991C7.59483 11.9991 7.61499 11.9991 7.63517 11.9991C7.65534 11.9991 7.67553 11.9991 7.69573 11.9991C7.71592 11.9991 7.73613 11.9991 7.75635 11.9991C7.77656 11.9991 7.79679 11.9991 7.81702 11.9991C7.83726 11.9991 7.85751 11.9991 7.87776 11.9991C7.89802 11.9991 7.91829 11.9991 7.93856 11.9991C7.95884 11.9991 7.97912 11.9991 7.99941 11.9991C8.01971 11.9991 8.04001 11.9991 8.06032 11.9991C8.08064 11.9991 8.10096 11.9991 8.12129 11.9991C8.14162 11.9991 8.16196 11.9991 8.18231 11.9991C8.20266 11.9991 8.22302 11.9991 8.24339 11.9991C8.26375 11.9991 8.28413 11.9991 8.30451 11.9991C8.32489 11.9991 8.34529 11.9991 8.36569 11.9991C8.38609 11.9991 8.4065 11.9991 8.42692 11.9991C8.44733 11.9991 8.46776 11.9991 8.48819 11.9991C8.50862 11.9991 8.52907 11.9991 8.54952 11.9991C8.56997 11.9991 8.59043 11.9991 8.61089 11.9991C8.63136 11.9991 8.65183 11.9991 8.67231 11.9991C8.69279 11.9991 8.71328 11.9991 8.73377 11.9991C8.75427 11.9991 8.77477 11.9991 8.79528 11.9991C8.81579 11.9991 8.83631 11.9991 8.85683 11.9991C8.87736 11.9991 8.89789 11.9991 8.91843 11.9991C8.93896 11.9991 8.95951 11.9991 8.98006 11.9991C9.00061 11.9991 9.02117 11.9991 9.04174 11.9991C9.0623 11.9991 9.08287 11.9991 9.10345 11.9991C9.12403 11.9991 9.14461 11.9991 9.1652 11.9991C9.18579 11.9991 9.20639 11.9991 9.22699 11.9991C9.2476 11.9991 9.26821 11.9991 9.28882 11.9991C9.30943 11.9991 9.33006 11.9991 9.35068 11.9991C9.37131 11.9991 9.39194 11.9991 9.41258 11.9991C9.43321 11.9991 9.45386 11.9991 9.47451 11.9991C9.49515 11.9991 9.51581 11.9991 9.53647 11.9991C9.55713 11.9991 9.57779 11.9991 9.59846 11.9991C9.61913 11.9991 9.6398 11.9991 9.66048 11.9991C9.68116 11.9991 9.70184 11.9991 9.72253 11.9991C9.74322 11.9991 9.76391 11.9991 9.78461 11.9991C9.80531 11.9991 9.82601 11.9991 9.84672 11.9991C9.86742 11.9991 9.88814 11.9991 9.90885 11.9991C9.92957 11.9991 9.95028 11.9991 9.97101 11.9991C9.99173 11.9991 10.0125 11.9991 10.0332 11.9991C10.0539 11.9991 10.0747 11.9991 10.0954 11.9991C10.1161 11.9991 10.1369 11.9991 10.1576 11.9991C10.1784 11.9991 10.1991 11.9991 10.2199 11.9991C10.2406 11.9991 10.2614 11.9991 10.2821 11.9991C10.3029 11.9991 10.3237 11.9991 10.3444 11.9991C10.3652 11.9991 10.386 11.9991 10.4067 11.9991C10.4275 11.9991 10.4483 11.9991 10.4691 11.9991C10.4898 11.9991 10.5106 11.9991 10.5314 11.9991C10.5522 11.9991 10.573 11.9991 10.5937 11.9991C10.6145 11.9991 10.6353 11.9991 10.6561 11.9991C10.6769 11.9991 10.6977 11.9991 10.7185 11.9991C10.7393 11.9991 10.7601 11.9991 10.7809 11.9991C10.8017 11.9991 10.8225 11.9991 10.8433 11.9991C10.8641 11.9991 10.8849 11.9991 10.9057 11.9991C10.9265 11.9991 10.9473 11.9991 10.9681 11.9991C10.9889 11.9991 11.0097 11.9991 11.0306 11.9991C11.0514 11.9991 11.0722 11.9991 11.093 11.9991C11.1138 11.9991 11.1346 11.9991 11.1554 11.9991C11.1763 11.9991 11.1971 11.9991 11.2179 11.9991C11.2387 11.9991 11.2595 11.9991 11.2803 11.9991C11.3012 11.9991 11.322 11.9991 11.3428 11.9991C11.3636 11.9991 11.3844 11.9991 11.4053 11.9991C11.4261 11.9991 11.4469 11.9991 11.4677 11.9991C11.4885 11.9991 11.5093 11.9991 11.5302 11.9991C11.551 11.9991 11.5718 11.9991 11.5926 11.9991C11.6134 11.9991 11.6343 11.9991 11.6551 11.9991C11.6759 11.9991 11.6967 11.9991 11.7175 11.9991C11.7383 11.9991 11.7592 11.9991 11.78 11.9991C11.8008 11.9991 11.8216 11.9991 11.8424 11.9991C11.8632 11.9991 11.884 11.9991 11.9049 11.9991C11.9257 11.9991 11.9465 11.9991 11.9673 11.9991C11.9881 11.9991 12.0089 11.9991 12.0297 11.9991C12.0505 11.9991 12.0713 11.9991 12.0921 11.9991C12.1129 11.9991 12.1337 11.9991 12.1545 11.9991C12.1753 11.9991 12.1961 11.9991 12.2169 11.9991C12.2377 11.9991 12.2585 11.9991 12.2793 11.9991C12.3001 11.9991 12.3209 11.9991 12.3417 11.9991C12.3624 11.9991 12.3832 11.9991 12.404 11.9991C12.4248 11.9991 12.4456 11.9991 12.4663 11.9991C12.4871 11.9991 12.5079 11.9991 12.5287 11.9991C12.5494 11.9991 12.5702 11.9991 12.591 11.9991C12.6117 11.9991 12.6325 11.9991 12.6532 11.9991C12.674 11.9991 12.6948 11.9991 12.7155 11.9991C12.7363 11.9991 12.757 11.9991 12.7778 11.9991C12.7985 11.9991 12.8192 11.9991 12.84 11.9991C12.8607 11.9991 12.8814 11.9991 12.9022 11.9991C12.9229 11.9991 12.9436 11.9991 12.9644 11.9991C12.9851 11.9991 13.0058 11.9991 13.0265 11.9991C13.0472 11.9991 13.0679 11.9991 13.0886 11.9991C13.1093 11.9991 13.13 11.9991 13.1507 11.9991C13.1714 11.9991 13.1921 11.9991 13.2128 11.9991C13.2335 11.9991 13.2542 11.9991 13.2749 11.9991C13.2955 11.9991 13.3162 11.9991 13.3369 11.9991C13.3575 11.9991 13.3782 11.9991 13.3989 11.9991C13.4195 11.9991 13.4402 11.9991 13.4608 11.9991C13.4815 11.9991 13.5021 11.9991 13.5227 11.9991C13.5434 11.9991 13.564 11.9991 13.5846 11.9991C13.6053 11.9991 13.6259 11.9991 13.6465 11.9991C13.6671 11.9991 13.6877 11.9991 13.7083 11.9991C13.7289 11.9991 13.7495 11.9991 13.7701 11.9991C13.7907 11.9991 13.8113 11.9991 13.8318 11.9991C13.8524 11.9991 13.873 11.9991 13.8935 11.9991C13.9141 11.9991 13.9347 11.9991 13.9552 11.9991C13.9758 11.9991 13.9963 11.9991 14.0168 11.9991C14.0374 11.9991 14.0579 11.9991 14.0784 11.9991C14.0989 11.9991 14.1195 11.9991 14.14 11.9991C14.1605 11.9991 14.181 11.9991 14.2015 11.9991C14.222 11.9991 14.2424 11.9991 14.2629 11.9991C14.2834 11.9991 14.3039 11.9991 14.3243 11.9991C14.3448 11.9991 14.3653 11.9991 14.3857 11.9991C14.4061 11.9991 14.4266 11.9991 14.447 11.9991C14.4674 11.9991 14.4879 11.9991 14.5083 11.9991C14.5287 11.9991 14.5491 11.9991 14.5695 11.9991C14.5899 11.9991 14.6103 11.9991 14.6307 11.9991C14.6511 11.9991 14.6714 11.9991 14.6918 11.9991C14.7122 11.9991 14.7325 11.9991 14.7529 11.9991C14.7732 11.9991 14.7935 11.9991 14.8139 11.9991C14.8342 11.9991 14.8545 11.9991 14.8748 11.9991C14.8951 11.9991 14.9154 11.9991 14.9357 11.9991C14.956 11.9991 14.9763 11.9991 14.9966 11.9991C15.0168 11.9991 15.0371 11.9991 15.0574 11.9991C15.0776 11.9991 15.0978 11.9991 15.1181 11.9991C15.1383 11.9991 15.1585 11.9991 15.1787 11.9991C15.199 11.9991 15.2192 11.9991 15.2394 11.9991C15.2596 11.9991 15.2797 11.9991 15.2999 11.9991C15.3201 11.9991 15.3402 11.9991 15.3604 11.9991C15.3805 11.9991 15.4007 11.9991 15.4208 11.9991C15.4409 11.9991 15.4611 11.9991 15.4812 11.9991C15.5013 11.9991 15.5214 11.9991 15.5415 11.9991C15.5615 11.9991 15.5816 11.9991 15.6017 11.9991C15.6217 11.9991 15.6418 11.9991 15.6618 11.9991C15.6819 11.9991 15.7019 11.9991 15.7219 11.9991C15.7419 11.9991 15.7619 11.9991 15.7819 11.9991C15.8019 11.9991 15.8219 11.9991 15.8419 11.9991C15.8619 11.9991 15.8818 11.9991 15.9018 11.9991C15.9217 11.9991 15.9416 11.9991 15.9616 11.9991C15.9815 11.9991 16.0014 11.9991 16.0213 11.9991C16.0412 11.9991 16.0611 11.9991 16.0809 11.9991C16.1008 11.9991 16.1207 11.9991 16.1405 11.9991C16.1604 11.9991 16.1802 11.9991 16.2 11.9991C16.2198 11.9991 16.2397 11.9991 16.2594 11.9991C16.2792 11.9991 16.299 11.9991 16.3188 11.9991C16.3386 11.9991 16.3583 11.9991 16.3781 11.9991C16.3978 11.9991 16.4175 11.9991 16.4372 11.9991C16.457 11.9991 16.4767 11.9991 16.4963 11.9991C16.516 11.9991 16.5357 11.9991 16.5554 11.9991C16.575 11.9991 16.5947 11.9991 16.6143 11.9991C16.6339 11.9991 16.6536 11.9991 16.6732 11.9991C16.6928 11.9991 16.7123 11.9991 16.7319 11.9991C16.7515 11.9991 16.7711 11.9991 16.7906 11.9991C16.8101 11.9991 16.8297 11.9991 16.8492 11.9991C16.8687 11.9991 16.8882 11.9991 16.9077 11.9991C16.9272 11.9991 16.9466 11.9991 16.9661 11.9991C16.9856 11.9991 17.005 11.9991 17.0244 11.9991C17.0439 11.9991 17.0633 11.9991 17.0827 11.9991C17.1021 11.9991 17.1214 11.9991 17.1408 11.9991C17.1602 11.9991 17.1795 11.9991 17.1988 11.9991C17.2182 11.9991 17.2375 11.9991 17.2568 11.9991C17.2761 11.9991 17.2954 11.9991 17.3146 11.9991C17.3339 11.9991 17.3532 11.9991 17.3724 11.9991C17.3916 11.9991 17.4109 11.9991 17.4301 11.9991C17.4493 11.9991 17.4684 11.9991 17.4876 11.9991C17.5068 11.9991 17.5259 11.9991 17.5451 11.9991C17.5642 11.9991 17.5833 11.9991 17.6024 11.9991C17.6215 11.9991 17.6406 11.9991 17.6597 11.9991C17.6788 11.9991 17.6978 11.9991 17.7168 11.9991C17.7359 11.9991 17.7549 11.9991 17.7739 11.9991C17.7929 11.9991 17.8119 11.9991 17.8308 11.9991C17.8498 11.9991 17.8687 11.9991 17.8877 11.9991C17.9066 11.9991 17.9255 11.9991 17.9444 11.9991C17.9633 11.9991 17.9822 11.9991 18.001 11.9991C18.0199 11.9991 18.0387 11.9991 18.0575 11.9991C18.0764 11.9991 18.0952 11.9991 18.1139 11.9991C18.1327 11.9991 18.1515 11.9991 18.1702 11.9991C18.189 11.9991 18.2077 11.9991 18.2264 11.9991C18.2451 11.9991 18.2638 11.9991 18.2825 11.9991C18.3012 11.9991 18.3198 11.9991 18.3384 11.9991C18.3571 11.9991 18.3757 11.9991 18.3943 11.9991C18.4129 11.9991 18.4315 11.9991 18.45 11.9991C18.4686 11.9991 18.4871 11.9991 18.5056 11.9991C18.5241 11.9991 18.5426 11.9991 18.5611 11.9991C18.5796 11.9991 18.598 11.9991 18.6165 11.9991C18.6349 11.9991 18.6533 11.9991 18.6717 11.9991C18.6901 11.9991 18.7085 11.9991 18.7269 11.9991C18.7452 11.9991 18.7635 11.9991 18.7819 11.9991C18.8002 11.9991 18.8185 11.9991 18.8367 11.9991C18.855 11.9991 18.8733 11.9991 18.8915 11.9991C18.9097 11.9991 18.9279 11.9991 18.9461 11.9991C18.9643 11.9991 18.9825 11.9991 19.0006 11.9991C19.0188 11.9991 19.0369 11.9991 19.055 11.9991C19.0731 11.9991 19.0912 11.9991 19.1093 11.9991C19.1273 11.9991 19.1454 11.9991 19.1634 11.9991C19.1814 11.9991 19.1994 11.9991 19.2174 11.9991C19.2354 11.9991 19.2533 11.9991 19.2713 11.9991C19.2892 11.9991 19.3071 11.9991 19.325 11.9991C19.3429 11.9991 19.3607 11.9991 19.3786 11.9991C19.3964 11.9991 19.4143 11.9991 19.4321 11.9991C19.4499 11.9991 19.4676 11.9991 19.4854 11.9991C19.5031 11.9991 19.5209 11.9991 19.5386 11.9991C19.5563 11.9991 19.574 11.9991 19.5916 11.9991C19.6093 11.9991 19.6269 11.9991 19.6445 11.9991C19.6622 11.9991 19.6798 11.9991 19.6973 11.9991C19.7149 11.9991 19.7324 11.9991 19.75 11.9991C19.7675 11.9991 19.785 11.9991 19.8025 11.9991C19.8199 11.9991 19.8374 11.9991 19.8548 11.9991C19.8722 11.9991 19.8896 11.9991 19.907 11.9991C19.9244 11.9991 19.9418 11.9991 19.9591 11.9991C19.9764 11.9991 19.9937 11.9991 20.011 11.9991C20.0283 11.9991 20.0455 11.9991 20.0628 11.9991C20.08 11.9991 20.0972 11.9991 20.1144 11.9991C20.1316 11.9991 20.1488 11.9991 20.1659 11.9991C20.183 11.9991 20.2001 11.9991 20.2172 11.9991C20.2343 11.9991 20.2514 11.9991 20.2684 11.9991C20.2854 11.9991 20.3024 11.9991 20.3194 11.9991C20.3364 11.9991 20.3534 11.9991 20.3703 11.9991C20.3872 11.9991 20.4041 11.9991 20.421 11.9991C20.4379 11.9991 20.4548 11.9991 20.4716 11.9991C20.4884 11.9991 20.5052 11.9991 20.522 11.9991C20.5388 11.9991 20.5555 11.9991 20.5723 11.9991C20.589 11.9991 20.6057 11.9991 20.6224 11.9991C20.639 11.9991 20.6557 11.9991 20.6723 11.9991C20.6889 11.9991 20.7055 11.9991 20.7221 11.9991C20.7387 11.9991 20.7552 11.9991 20.7717 11.9991C20.7882 11.9991 20.8047 11.9991 20.8212 11.9991C20.8376 11.9991 20.8541 11.9991 20.8705 11.9991C20.8869 11.9991 20.9032 11.9991 20.9196 11.9991C20.9359 11.9991 20.9523 11.9991 20.9686 11.9991C20.9849 11.9991 21.0011 11.9991 21.0174 11.9991C21.0336 11.9991 21.0498 11.9991 21.066 11.9991C21.0822 11.9991 21.0984 11.9991 21.1145 11.9991C21.1306 11.9991 21.1467 11.9991 21.1628 11.9991C21.1789 11.9991 21.1949 11.9991 21.2109 11.9991C21.2269 11.9991 21.2429 11.9991 21.2589 11.9991C21.2748 11.9991 21.2908 11.9991 21.3067 11.9991C21.3226 11.9991 21.3384 11.9991 21.3543 11.9991C21.3701 11.9991 21.3859 11.9991 21.4017 11.9991C21.4175 11.9991 21.4333 11.9991 21.449 11.9991C21.4647 11.9991 21.4804 11.9991 21.4961 11.9991C21.5118 11.9991 21.5274 11.9991 21.543 11.9991C21.5586 11.9991 21.5742 11.9991 21.5898 11.9991C21.6053 11.9991 21.6208 11.9991 21.6363 11.9991C21.6518 11.9991 21.6673 11.9991 21.6827 11.9991C21.6981 11.9991 21.7135 11.9991 21.7289 11.9991C21.7443 11.9991 21.7596 11.9991 21.7749 11.9991C21.7902 11.9991 21.8055 11.9991 21.8208 11.9991C21.836 11.9991 21.8512 11.9991 21.8664 11.9991C21.8816 11.9991 21.8968 11.9991 21.9119 11.9991C21.927 11.9991 21.9421 11.9991 21.9572 11.9991C21.9722 11.9991 21.9873 11.9991 22.0023 11.9991C22.0173 11.9991 22.0322 11.9991 22.0472 11.9991C22.0621 11.9991 22.077 11.9991 22.0919 11.9991C22.1068 11.9991 22.1216 11.9991 22.1364 11.9991C22.1512 11.9991 22.166 11.9991 22.1808 11.9991C22.1955 11.9991 22.2102 11.9991 22.2249 11.9991C22.2396 11.9991 22.2543 11.9991 22.2689 11.9991C22.2835 11.9991 22.2981 11.9991 22.3126 11.9991C22.3272 11.9991 22.3417 11.9991 22.3562 11.9991C22.3707 11.9991 22.3852 11.9991 22.3996 11.9991C22.414 11.9991 22.4284 11.9991 22.4428 11.9991C22.4571 11.9991 22.4714 11.9991 22.4857 11.9991C22.5 11.9991 22.5143 11.9991 22.5285 11.9991C22.5427 11.9991 22.5569 11.9991 22.5711 11.9991C22.5853 11.9991 22.5994 11.9991 22.6135 11.9991C22.6276 11.9991 22.6416 11.9991 22.6557 11.9991C22.6697 11.9991 22.6837 11.9991 22.6976 11.9991C22.7116 11.9991 22.7255 11.9991 22.7394 11.9991C22.7533 11.9991 22.7671 11.9991 22.781 11.9991C22.7948 11.9991 22.8086 11.9991 22.8223 11.9991C22.8361 11.9991 22.8498 11.9991 22.8635 11.9991C22.8772 11.9991 22.8908 11.9991 22.9044 11.9991C22.918 11.9991 22.9316 11.9991 22.9452 11.9991C22.9587 11.9991 22.9722 11.9991 22.9857 11.9991C22.9992 11.9991 23.0126 11.9991 23.026 11.9991C23.0394 11.9991 23.0528 11.9991 23.0661 11.9991C23.0795 11.9991 23.0928 11.9991 23.106 11.9991C23.1193 11.9991 23.1325 11.9991 23.1457 11.9991C23.1589 11.9991 23.172 11.9991 23.1852 11.9991C23.1983 11.9991 23.2114 11.9991 23.2244 11.9991C23.2375 11.9991 23.2505 11.9991 23.2634 11.9991C23.2764 11.9991 23.2893 11.9991 23.3022 11.9991C23.3152 11.9991 23.328 11.9991 23.3408 11.9991C23.3537 11.9991 23.3665 11.9991 23.3792 11.9991C23.392 11.9991 23.4047 11.9991 23.4174 11.9991C23.4301 11.9991 23.4427 11.9991 23.4553 11.9991C23.4679 11.9991 23.4805 11.9991 23.493 11.9991C23.5055 11.9991 23.518 11.9991 23.5305 11.9991C23.543 11.9991 23.5554 11.9991 23.5678 11.9991C23.5801 11.9991 23.5925 11.9991 23.6048 11.9991C23.6171 11.9991 23.6294 11.9991 23.6416 11.9991C23.6538 11.9991 23.666 11.9991 23.6782 11.9991C23.6903 11.9991 23.7025 11.9991 23.7145 11.9991C23.7266 11.9991 23.7387 11.9991 23.7507 11.9991C23.7627 11.9991 23.7746 11.9991 23.7865 11.9991C23.7985 11.9991 23.8104 11.9991 23.8222 11.9991C23.8341 11.9991 23.8459 11.9991 23.8576 11.9991C23.8694 11.9991 23.8811 11.9991 23.8928 11.9991C23.9045 11.9991 23.9162 11.9991 23.9278 11.9991C23.9394 11.9991 23.951 11.9991 23.9625 11.9991C23.974 11.9991 23.9855 11.9991 23.997 11.9991C24.0084 11.9991 24.0199 11.9991 24.0312 11.9991C24.0426 11.9991 24.0539 11.9991 24.0652 11.9991C24.0765 11.9991 24.0878 11.9991 24.099 11.9991C24.1102 11.9991 24.1214 11.9991 24.1325 11.9991C24.1437 11.9991 24.1548 11.9991 24.1658 11.9991C24.1769 11.9991 24.1879 11.9991 24.1988 11.9991C24.2098 11.9991 24.2208 11.9991 24.2316 11.9991C24.2425 11.9991 24.2534 11.9991 24.2642 11.9991C24.275 11.9991 24.2858 11.9991 24.2965 11.9991C24.3072 11.9991 24.3179 11.9991 24.3286 11.9991C24.3392 11.9991 24.3498 11.9991 24.3604 11.9991C24.3709 11.9991 24.3815 11.9991 24.3919 11.9991C24.4024 11.9991 24.4128 11.9991 24.4232 11.9991C24.4336 11.9991 24.444 11.9991 24.4543 11.9991C24.4646 11.9991 24.4749 11.9991 24.4851 11.9991C24.4953 11.9991 24.5055 11.9991 24.5157 11.9991C24.5258 11.9991 24.5359 11.9991 24.546 11.9991C24.556 11.9991 24.566 11.9991 24.576 11.9991C24.586 11.9991 24.5959 11.9991 24.6058 11.9991C24.6157 11.9991 24.6255 11.9991 24.6353 11.9991C24.6451 11.9991 24.6549 11.9991 24.6646 11.9991C24.6743 11.9991 24.684 11.9991 24.6936 11.9991C24.7032 11.9991 24.7128 11.9991 24.7224 11.9991C24.7319 11.9991 24.7414 11.9991 24.7509 11.9991C24.7603 11.9991 24.7697 11.9991 24.7791 11.9991C24.7885 11.9991 24.7978 11.9991 24.8071 11.9991C24.8163 11.9991 24.8256 11.9991 24.8348 11.9991C24.844 11.9991 24.8531 11.9991 24.8622 11.9991C24.8713 11.9991 24.8804 11.9991 24.8894 11.9991C24.8984 11.9991 24.9074 11.9991 24.9163 11.9991C24.9252 11.9991 24.9341 11.9991 24.9429 11.9991C24.9518 11.9991 24.9605 11.9991 24.9693 11.9991C24.978 11.9991 24.9867 11.9991 24.9954 11.9991C25.004 11.9991 25.0126 11.9991 25.0212 11.9991C25.0298 11.9991 25.0383 11.9991 25.0468 11.9991C25.0552 11.9991 25.0637 11.9991 25.072 11.9991C25.0804 11.9991 25.0888 11.9991 25.0971 11.9991C25.1053 11.9991 25.1136 11.9991 25.1218 11.9991C25.13 11.9991 25.1381 11.9991 25.1462 11.9991C25.1543 11.9991 25.1624 11.9991 25.1704 11.9991C25.1784 11.9991 25.1864 11.9991 25.1943 11.9991C25.2022 11.9991 25.2101 11.9991 25.2179 11.9991C25.2258 11.9991 25.2335 11.9991 25.2413 11.9991C25.249 11.9991 25.2567 11.9991 25.2643 11.9991C25.272 11.9991 25.2796 11.9991 25.2871 11.9991C25.2947 11.9991 25.3022 11.9991 25.3096 11.9991C25.3171 11.9991 25.3245 11.9991 25.3318 11.9991C25.3392 11.9991 25.3465 11.9991 25.3537 11.9991C25.361 11.9991 25.3682 11.9991 25.3754 11.9991C25.3825 11.9991 25.3896 11.9991 25.3967 11.9991C25.4038 11.9991 25.4108 11.9991 25.4178 11.9991C25.4247 11.9991 25.4317 11.9991 25.4385 11.9991C25.4454 11.9991 25.4523 11.9991 25.459 11.9991C25.4658 11.9991 25.4725 11.9991 25.4792 11.9991C25.4859 11.9991 25.4925 11.9991 25.4991 11.9991C25.5057 11.9991 25.5122 11.9991 25.5187 11.9991C25.5252 11.9991 25.5316 11.9991 25.538 11.9991C25.5444 11.9991 25.5508 11.9991 25.557 11.9991C25.5633 11.9991 25.5696 11.9991 25.5758 11.9991C25.5819 11.9991 25.5881 11.9991 25.5942 11.9991C25.6003 11.9991 25.6063 11.9991 25.6123 11.9991C25.6183 11.9991 25.6242 11.9991 25.6301 11.9991C25.636 11.9991 25.6419 11.9991 25.6476 11.9991C25.6534 11.9991 25.6592 11.9991 25.6649 11.9991C25.6706 11.9991 25.6762 11.9991 25.6818 11.9991C25.6874 11.9991 25.6929 11.9991 25.6984 11.9991C25.7039 11.9991 25.7093 11.9991 25.7147 11.9991C25.7201 11.9991 25.7254 11.9991 25.7307 11.9991C25.736 11.9991 25.7412 11.9991 25.7464 11.9991C25.7516 11.9991 25.7567 11.9991 25.7618 11.9991C25.7669 11.9991 25.7719 11.9991 25.7769 11.9991C25.7818 11.9991 25.7868 11.9991 25.7916 11.9991C25.7965 11.9991 25.8013 11.9991 25.8061 11.9991C25.8109 11.9991 25.8156 11.9991 25.8203 11.9991C25.8249 11.9991 25.8295 11.9991 25.8341 11.9991C25.8386 11.9991 25.8432 11.9991 25.8476 11.9991C25.8521 11.9991 25.8565 11.9991 25.8608 11.9991C25.8652 11.9991 25.8695 11.9991 25.8737 11.9991C25.878 11.9991 25.8822 11.9991 25.8863 11.9991C25.8904 11.9991 25.8945 11.9991 25.8985 11.9991C25.9026 11.9991 25.9066 11.9991 25.9105 11.9991C25.9144 11.9991 25.9183 11.9991 25.9221 11.9991C25.9259 11.9991 25.9297 11.9991 25.9334 11.9991C25.9371 11.9991 25.9408 11.9991 25.9444 11.9991C25.948 11.9991 25.9515 11.9991 25.955 11.9991C25.9585 11.9991 25.962 11.9991 25.9654 11.9991C25.9688 11.9991 25.9721 11.9991 25.9754 11.9991C25.9787 11.9991 25.9819 11.9991 25.9851 11.9991C25.9882 11.9991 25.9914 11.9991 25.9944 11.9991C25.9975 11.9991 26.0005 11.9991 26.0034 11.9991C26.0064 11.9991 26.0093 11.9991 26.0121 11.9991C26.015 11.9991 26.0178 11.9991 26.0205 11.9991L26.0205 13.9991Z" fill="black"/>
</svg>
